0
SECTION
2
ENTITIES
0
LINE
8
0
10
131.824544
20
-102.743479
11
132.312865
21
-102.883503
0
LINE
8
0
10
132.312865
20
-102.883503
11
132.172841
21
-103.371824
0
LINE
8
0
10
131.68452
20
-103.2318
11
132.172841
21
-103.371824
0
LINE
8
0
10
131.824544
20
-102.743479
11
131.68452
21
-103.2318
0
LINE
8
0
10
132.524663
20
-100.301875
11
133.012984
21
-100.441898
0
LINE
8
0
10
133.012984
20
-100.441898
11
132.87296
21
-100.930219
0
LINE
8
0
10
132.384639
20
-100.790196
11
132.87296
21
-100.930219
0
LINE
8
0
10
132.524663
20
-100.301875
11
132.384639
21
-100.790196
0
LINE
8
0
10
133.224781
20
-97.86027
11
133.713102
21
-98.000294
0
LINE
8
0
10
133.713102
20
-98.000294
11
133.573079
21
-98.488615
0
LINE
8
0
10
133.084758
20
-98.348591
11
133.573079
21
-98.488615
0
LINE
8
0
10
133.224781
20
-97.86027
11
133.084758
21
-98.348591
0
LINE
8
0
10
133.9249
20
-95.418665
11
134.413221
21
-95.558689
0
LINE
8
0
10
134.413221
20
-95.558689
11
134.273198
21
-96.04701
0
LINE
8
0
10
133.784877
20
-95.906986
11
134.273198
21
-96.04701
0
LINE
8
0
10
133.9249
20
-95.418665
11
133.784877
21
-95.906986
0
LINE
8
0
10
134.625719
20
-92.974619
11
135.11404
21
-93.114643
0
LINE
8
0
10
135.11404
20
-93.114643
11
134.973316
21
-93.605405
0
LINE
8
0
10
134.484995
20
-93.465382
11
134.973316
21
-93.605405
0
LINE
8
0
10
134.625719
20
-92.974619
11
134.484995
21
-93.465382
0
LINE
8
0
10
139.525851
20
-75.885828
11
140.014172
21
-76.025851
0
LINE
8
0
10
140.014172
20
-76.025851
11
139.874149
21
-76.514172
0
LINE
8
0
10
139.385828
20
-76.374149
11
139.874149
21
-76.514172
0
LINE
8
0
10
139.525851
20
-75.885828
11
139.385828
21
-76.374149
0
LINE
8
0
10
138.825733
20
-78.327432
11
139.314053
21
-78.467456
0
LINE
8
0
10
139.314053
20
-78.467456
11
139.17403
21
-78.955777
0
LINE
8
0
10
138.685709
20
-78.815753
11
139.17403
21
-78.955777
0
LINE
8
0
10
138.825733
20
-78.327432
11
138.685709
21
-78.815753
0
LINE
8
0
10
138.125614
20
-80.769037
11
138.613935
21
-80.909061
0
LINE
8
0
10
138.613935
20
-80.909061
11
138.473911
21
-81.397382
0
LINE
8
0
10
137.98559
20
-81.257358
11
138.473911
21
-81.397382
0
LINE
8
0
10
138.125614
20
-80.769037
11
137.98559
21
-81.257358
0
LINE
8
0
10
137.425495
20
-83.210642
11
137.913816
21
-83.350666
0
LINE
8
0
10
137.913816
20
-83.350666
11
137.773792
21
-83.838986
0
LINE
8
0
10
137.285471
20
-83.698963
11
137.773792
21
-83.838986
0
LINE
8
0
10
137.425495
20
-83.210642
11
137.285471
21
-83.698963
0
LINE
8
0
10
136.725376
20
-85.652246
11
137.213697
21
-85.79227
0
LINE
8
0
10
137.213697
20
-85.79227
11
137.073673
21
-86.280591
0
LINE
8
0
10
136.585352
20
-86.140567
11
137.073673
21
-86.280591
0
LINE
8
0
10
136.725376
20
-85.652246
11
136.585352
21
-86.140567
0
LINE
8
0
10
136.025257
20
-88.093851
11
136.513578
21
-88.233875
0
LINE
8
0
10
136.513578
20
-88.233875
11
136.373554
21
-88.722196
0
LINE
8
0
10
135.885233
20
-88.582172
11
136.373554
21
-88.722196
0
LINE
8
0
10
136.025257
20
-88.093851
11
135.885233
21
-88.582172
0
LINE
8
0
10
135.325138
20
-90.535456
11
135.813459
21
-90.67548
0
LINE
8
0
10
135.813459
20
-90.67548
11
135.673435
21
-91.163801
0
LINE
8
0
10
135.185114
20
-91.023777
11
135.673435
21
-91.163801
0
LINE
8
0
10
135.325138
20
-90.535456
11
135.185114
21
-91.023777
0
LINE
8
Cmts
62
1
10
123.825
20
-114.3
11
136.525
21
-114.3
0
LINE
8
Cmts
62
1
10
136.525
20
-114.3
11
136.525
21
-127.0
0
LINE
8
Cmts
62
1
10
136.525
20
-127.0
11
123.825
21
-127.0
0
LINE
8
Cmts
62
1
10
123.825
20
-127.0
11
123.825
21
-114.3
0
LINE
8
0
10
120.777
20
-111.252
11
139.573
21
-111.252
0
LINE
8
0
10
139.573
20
-111.252
11
139.573
21
-130.048
0
LINE
8
0
10
139.573
20
-130.048
11
120.777
21
-130.048
0
LINE
8
0
10
120.777
20
-130.048
11
120.777
21
-111.252
0
LINE
8
Eco2
62
4
10
123.19
20
-113.665
11
137.16
21
-113.665
0
LINE
8
Eco2
62
4
10
137.16
20
-113.665
11
137.16
21
-127.635
0
LINE
8
Eco2
62
4
10
137.16
20
-127.635
11
123.19
21
-127.635
0
LINE
8
Eco2
62
4
10
123.19
20
-127.635
11
123.19
21
-113.665
0
LINE
8
Cmts
62
1
10
114.3
20
-76.2
11
127.0
21
-76.2
0
LINE
8
Cmts
62
1
10
127.0
20
-76.2
11
127.0
21
-88.9
0
LINE
8
Cmts
62
1
10
127.0
20
-88.9
11
114.3
21
-88.9
0
LINE
8
Cmts
62
1
10
114.3
20
-88.9
11
114.3
21
-76.2
0
LINE
8
0
10
111.252
20
-73.152
11
130.048
21
-73.152
0
LINE
8
0
10
130.048
20
-73.152
11
130.048
21
-91.948
0
LINE
8
0
10
130.048
20
-91.948
11
111.252
21
-91.948
0
LINE
8
0
10
111.252
20
-91.948
11
111.252
21
-73.152
0
LINE
8
Eco2
62
4
10
113.665
20
-75.565
11
127.635
21
-75.565
0
LINE
8
Eco2
62
4
10
127.635
20
-75.565
11
127.635
21
-89.535
0
LINE
8
Eco2
62
4
10
127.635
20
-89.535
11
113.665
21
-89.535
0
LINE
8
Eco2
62
4
10
113.665
20
-89.535
11
113.665
21
-75.565
0
LINE
8
Cmts
62
1
10
95.25
20
-73.025
11
107.95
21
-73.025
0
LINE
8
Cmts
62
1
10
107.95
20
-73.025
11
107.95
21
-85.725
0
LINE
8
Cmts
62
1
10
107.95
20
-85.725
11
95.25
21
-85.725
0
LINE
8
Cmts
62
1
10
95.25
20
-85.725
11
95.25
21
-73.025
0
LINE
8
0
10
92.202
20
-69.977
11
110.998
21
-69.977
0
LINE
8
0
10
110.998
20
-69.977
11
110.998
21
-88.773
0
LINE
8
0
10
110.998
20
-88.773
11
92.202
21
-88.773
0
LINE
8
0
10
92.202
20
-88.773
11
92.202
21
-69.977
0
LINE
8
Eco2
62
4
10
94.615
20
-72.39
11
108.585
21
-72.39
0
LINE
8
Eco2
62
4
10
108.585
20
-72.39
11
108.585
21
-86.36
0
LINE
8
Eco2
62
4
10
108.585
20
-86.36
11
94.615
21
-86.36
0
LINE
8
Eco2
62
4
10
94.615
20
-86.36
11
94.615
21
-72.39
0
LINE
8
Cmts
62
1
10
76.2
20
-76.2
11
88.9
21
-76.2
0
LINE
8
Cmts
62
1
10
88.9
20
-76.2
11
88.9
21
-88.9
0
LINE
8
Cmts
62
1
10
88.9
20
-88.9
11
76.2
21
-88.9
0
LINE
8
Cmts
62
1
10
76.2
20
-88.9
11
76.2
21
-76.2
0
LINE
8
0
10
73.152
20
-73.152
11
91.948
21
-73.152
0
LINE
8
0
10
91.948
20
-73.152
11
91.948
21
-91.948
0
LINE
8
0
10
91.948
20
-91.948
11
73.152
21
-91.948
0
LINE
8
0
10
73.152
20
-91.948
11
73.152
21
-73.152
0
LINE
8
Eco2
62
4
10
75.565
20
-75.565
11
89.535
21
-75.565
0
LINE
8
Eco2
62
4
10
89.535
20
-75.565
11
89.535
21
-89.535
0
LINE
8
Eco2
62
4
10
89.535
20
-89.535
11
75.565
21
-89.535
0
LINE
8
Eco2
62
4
10
75.565
20
-89.535
11
75.565
21
-75.565
0
LINE
8
Cmts
62
1
10
57.15
20
-79.375
11
69.85
21
-79.375
0
LINE
8
Cmts
62
1
10
69.85
20
-79.375
11
69.85
21
-92.075
0
LINE
8
Cmts
62
1
10
69.85
20
-92.075
11
57.15
21
-92.075
0
LINE
8
Cmts
62
1
10
57.15
20
-92.075
11
57.15
21
-79.375
0
LINE
8
0
10
54.102
20
-76.327
11
72.898
21
-76.327
0
LINE
8
0
10
72.898
20
-76.327
11
72.898
21
-95.123
0
LINE
8
0
10
72.898
20
-95.123
11
54.102
21
-95.123
0
LINE
8
0
10
54.102
20
-95.123
11
54.102
21
-76.327
0
LINE
8
Eco2
62
4
10
56.515
20
-78.74
11
70.485
21
-78.74
0
LINE
8
Eco2
62
4
10
70.485
20
-78.74
11
70.485
21
-92.71
0
LINE
8
Eco2
62
4
10
70.485
20
-92.71
11
56.515
21
-92.71
0
LINE
8
Eco2
62
4
10
56.515
20
-92.71
11
56.515
21
-78.74
0
LINE
8
FFab
62
5
10
128.175
20
-127.905
11
128.175
21
-129.905
0
LINE
8
FFab
62
5
10
128.175
20
-129.905
11
132.175
21
-129.905
0
LINE
8
FFab
62
5
10
132.175
20
-129.905
11
132.175
21
-127.905
0
LINE
8
FFab
62
5
10
132.175
20
-127.905
11
128.175
21
-127.905
0
LINE
8
FFab
62
5
10
126.365
20
-128.905
11
128.175
21
-128.905
0
LINE
8
FFab
62
5
10
133.985
20
-128.905
11
132.175
21
-128.905
0
LINE
8
FFab
62
5
10
128.775
20
-127.905
11
128.775
21
-129.905
0
LINE
8
FCrtYd
62
7
10
125.315
20
-127.555
11
125.315
21
-130.255
0
LINE
8
FCrtYd
62
7
10
125.315
20
-130.255
11
135.065
21
-130.255
0
LINE
8
FCrtYd
62
7
10
135.065
20
-130.255
11
135.065
21
-127.555
0
LINE
8
FCrtYd
62
7
10
135.065
20
-127.555
11
125.315
21
-127.555
0
LINE
8
FFab
62
5
10
118.65
20
-89.805
11
118.65
21
-91.805
0
LINE
8
FFab
62
5
10
118.65
20
-91.805
11
122.65
21
-91.805
0
LINE
8
FFab
62
5
10
122.65
20
-91.805
11
122.65
21
-89.805
0
LINE
8
FFab
62
5
10
122.65
20
-89.805
11
118.65
21
-89.805
0
LINE
8
FFab
62
5
10
116.84
20
-90.805
11
118.65
21
-90.805
0
LINE
8
FFab
62
5
10
124.46
20
-90.805
11
122.65
21
-90.805
0
LINE
8
FFab
62
5
10
119.25
20
-89.805
11
119.25
21
-91.805
0
LINE
8
FCrtYd
62
7
10
115.79
20
-89.455
11
115.79
21
-92.155
0
LINE
8
FCrtYd
62
7
10
115.79
20
-92.155
11
125.54
21
-92.155
0
LINE
8
FCrtYd
62
7
10
125.54
20
-92.155
11
125.54
21
-89.455
0
LINE
8
FCrtYd
62
7
10
125.54
20
-89.455
11
115.79
21
-89.455
0
LINE
8
FFab
62
5
10
99.6
20
-86.63
11
99.6
21
-88.63
0
LINE
8
FFab
62
5
10
99.6
20
-88.63
11
103.6
21
-88.63
0
LINE
8
FFab
62
5
10
103.6
20
-88.63
11
103.6
21
-86.63
0
LINE
8
FFab
62
5
10
103.6
20
-86.63
11
99.6
21
-86.63
0
LINE
8
FFab
62
5
10
97.79
20
-87.63
11
99.6
21
-87.63
0
LINE
8
FFab
62
5
10
105.41
20
-87.63
11
103.6
21
-87.63
0
LINE
8
FFab
62
5
10
100.2
20
-86.63
11
100.2
21
-88.63
0
LINE
8
FCrtYd
62
7
10
96.74
20
-86.28
11
96.74
21
-88.98
0
LINE
8
FCrtYd
62
7
10
96.74
20
-88.98
11
106.49
21
-88.98
0
LINE
8
FCrtYd
62
7
10
106.49
20
-88.98
11
106.49
21
-86.28
0
LINE
8
FCrtYd
62
7
10
106.49
20
-86.28
11
96.74
21
-86.28
0
LINE
8
FFab
62
5
10
80.55
20
-89.805
11
80.55
21
-91.805
0
LINE
8
FFab
62
5
10
80.55
20
-91.805
11
84.55
21
-91.805
0
LINE
8
FFab
62
5
10
84.55
20
-91.805
11
84.55
21
-89.805
0
LINE
8
FFab
62
5
10
84.55
20
-89.805
11
80.55
21
-89.805
0
LINE
8
FFab
62
5
10
78.74
20
-90.805
11
80.55
21
-90.805
0
LINE
8
FFab
62
5
10
86.36
20
-90.805
11
84.55
21
-90.805
0
LINE
8
FFab
62
5
10
81.15
20
-89.805
11
81.15
21
-91.805
0
LINE
8
FCrtYd
62
7
10
77.69
20
-89.455
11
77.69
21
-92.155
0
LINE
8
FCrtYd
62
7
10
77.69
20
-92.155
11
87.44
21
-92.155
0
LINE
8
FCrtYd
62
7
10
87.44
20
-92.155
11
87.44
21
-89.455
0
LINE
8
FCrtYd
62
7
10
87.44
20
-89.455
11
77.69
21
-89.455
0
LINE
8
FFab
62
5
10
61.5
20
-92.98
11
61.5
21
-94.98
0
LINE
8
FFab
62
5
10
61.5
20
-94.98
11
65.5
21
-94.98
0
LINE
8
FFab
62
5
10
65.5
20
-94.98
11
65.5
21
-92.98
0
LINE
8
FFab
62
5
10
65.5
20
-92.98
11
61.5
21
-92.98
0
LINE
8
FFab
62
5
10
59.69
20
-93.98
11
61.5
21
-93.98
0
LINE
8
FFab
62
5
10
67.31
20
-93.98
11
65.5
21
-93.98
0
LINE
8
FFab
62
5
10
62.1
20
-92.98
11
62.1
21
-94.98
0
LINE
8
FCrtYd
62
7
10
58.64
20
-92.63
11
58.64
21
-95.33
0
LINE
8
FCrtYd
62
7
10
58.64
20
-95.33
11
68.39
21
-95.33
0
LINE
8
FCrtYd
62
7
10
68.39
20
-95.33
11
68.39
21
-92.63
0
LINE
8
FCrtYd
62
7
10
68.39
20
-92.63
11
58.64
21
-92.63
0
ARC
8
Edge
62
2
10
106.045
20
-101.6
30
0.0
40
1.905
50
0.0
51
90.0
0
LINE
8
Edge
62
2
10
54.61
20
-96.52
11
106.045
21
-99.695
0
ARC
8
Edge
62
2
10
54.61
20
-94.615
30
0.0
40
1.905
50
180.0
51
270.0
0
LINE
8
Edge
62
2
10
52.705
20
-76.835
11
52.705
21
-94.615
0
LINE
8
Edge
62
2
10
119.38
20
-131.290923
11
107.95
21
-101.6
0
ARC
8
Edge
62
2
10
121.285
20
-129.385923
30
0.0
40
2.694077
50
-135.0
51
-90.0
0
LINE
8
Edge
62
2
10
139.065
20
-132.08
11
121.285
21
-132.08
0
ARC
8
Edge
62
2
10
139.065
20
-129.54
30
0.0
40
2.54
50
-90.0
51
0.0
0
ARC
8
Edge
62
2
10
54.61
20
-76.835
30
0.0
40
1.905
50
90.0
51
180.0
0
LINE
8
Edge
62
2
10
149.86
20
-104.14
11
141.605
21
-129.54
0
LINE
8
Edge
62
2
10
140.97
20
-74.295
11
149.86
21
-104.14
0
LINE
8
Edge
62
2
10
129.54
20
-71.755
11
140.97
21
-74.295
0
LINE
8
Edge
62
2
10
110.49
20
-68.58
11
129.54
21
-71.755
0
LINE
8
Edge
62
2
10
92.71
20
-68.58
11
110.49
21
-68.58
0
LINE
8
Edge
62
2
10
73.66
20
-71.755
11
92.71
21
-68.58
0
LINE
8
Edge
62
2
10
54.61
20
-74.93
11
73.66
21
-71.755
0
ENDSEC
0
EOF
