G04 #@! TF.GenerationSoftware,KiCad,Pcbnew,(5.1.5)-3*
G04 #@! TF.CreationDate,2020-09-15T11:54:07+03:00*
G04 #@! TF.ProjectId,reset,72657365-742e-46b6-9963-61645f706362,rev?*
G04 #@! TF.SameCoordinates,Original*
G04 #@! TF.FileFunction,Soldermask,Top*
G04 #@! TF.FilePolarity,Negative*
%FSLAX46Y46*%
G04 Gerber Fmt 4.6, Leading zero omitted, Abs format (unit mm)*
G04 Created by KiCad (PCBNEW (5.1.5)-3) date 2020-09-15 11:54:07*
%MOMM*%
%LPD*%
G04 APERTURE LIST*
%ADD10C,0.100000*%
G04 APERTURE END LIST*
D10*
G36*
X134233228Y-128086703D02*
G01*
X134388100Y-128150853D01*
X134527481Y-128243985D01*
X134646015Y-128362519D01*
X134739147Y-128501900D01*
X134803297Y-128656772D01*
X134836000Y-128821184D01*
X134836000Y-128988816D01*
X134803297Y-129153228D01*
X134739147Y-129308100D01*
X134646015Y-129447481D01*
X134527481Y-129566015D01*
X134388100Y-129659147D01*
X134233228Y-129723297D01*
X134068816Y-129756000D01*
X133901184Y-129756000D01*
X133736772Y-129723297D01*
X133581900Y-129659147D01*
X133442519Y-129566015D01*
X133323985Y-129447481D01*
X133230853Y-129308100D01*
X133166703Y-129153228D01*
X133134000Y-128988816D01*
X133134000Y-128821184D01*
X133166703Y-128656772D01*
X133230853Y-128501900D01*
X133323985Y-128362519D01*
X133442519Y-128243985D01*
X133581900Y-128150853D01*
X133736772Y-128086703D01*
X133901184Y-128054000D01*
X134068816Y-128054000D01*
X134233228Y-128086703D01*
G37*
G36*
X127216000Y-129756000D02*
G01*
X125514000Y-129756000D01*
X125514000Y-128054000D01*
X127216000Y-128054000D01*
X127216000Y-129756000D01*
G37*
G36*
X132448500Y-126733500D02*
G01*
X130441500Y-126733500D01*
X130441500Y-124726500D01*
X132448500Y-124726500D01*
X132448500Y-126733500D01*
G37*
G36*
X129031425Y-124731988D02*
G01*
X129197710Y-124765063D01*
X129380336Y-124840709D01*
X129544694Y-124950530D01*
X129684470Y-125090306D01*
X129794291Y-125254664D01*
X129869937Y-125437290D01*
X129908500Y-125631164D01*
X129908500Y-125828836D01*
X129869937Y-126022710D01*
X129794291Y-126205336D01*
X129684470Y-126369694D01*
X129544694Y-126509470D01*
X129380336Y-126619291D01*
X129197710Y-126694937D01*
X129031425Y-126728012D01*
X129003837Y-126733500D01*
X128806163Y-126733500D01*
X128778575Y-126728012D01*
X128612290Y-126694937D01*
X128429664Y-126619291D01*
X128265306Y-126509470D01*
X128125530Y-126369694D01*
X128015709Y-126205336D01*
X127940063Y-126022710D01*
X127901500Y-125828836D01*
X127901500Y-125631164D01*
X127940063Y-125437290D01*
X128015709Y-125254664D01*
X128125530Y-125090306D01*
X128265306Y-124950530D01*
X128429664Y-124840709D01*
X128612290Y-124765063D01*
X128778575Y-124731988D01*
X128806163Y-124726500D01*
X129003837Y-124726500D01*
X129031425Y-124731988D01*
G37*
G36*
X127648563Y-114518946D02*
G01*
X127652228Y-114519000D01*
X127738515Y-114519000D01*
X127743498Y-114519991D01*
X127764213Y-114522338D01*
X127767650Y-114522439D01*
X127769283Y-114522487D01*
X127853355Y-114541789D01*
X127856925Y-114542553D01*
X127941567Y-114559389D01*
X127946259Y-114561333D01*
X127966122Y-114567678D01*
X127971062Y-114568812D01*
X128049746Y-114604141D01*
X128053111Y-114605593D01*
X128098570Y-114624423D01*
X128132833Y-114638615D01*
X128132837Y-114638617D01*
X128137055Y-114641435D01*
X128155296Y-114651533D01*
X128159927Y-114653612D01*
X128230232Y-114703631D01*
X128233225Y-114705694D01*
X128304971Y-114753633D01*
X128308565Y-114757227D01*
X128324474Y-114770678D01*
X128328620Y-114773628D01*
X128387833Y-114836420D01*
X128390335Y-114838997D01*
X128451365Y-114900027D01*
X128454185Y-114904247D01*
X128454185Y-114904248D01*
X128467170Y-114920552D01*
X128470657Y-114924249D01*
X128502350Y-114974832D01*
X128516450Y-114997336D01*
X128518441Y-115000412D01*
X128566383Y-115072163D01*
X128568325Y-115076851D01*
X128577888Y-115095391D01*
X128580579Y-115099685D01*
X128580579Y-115099686D01*
X128611246Y-115180332D01*
X128612596Y-115183731D01*
X128645610Y-115263432D01*
X128646599Y-115268407D01*
X128652359Y-115288446D01*
X128654165Y-115293196D01*
X128668521Y-115378350D01*
X128669169Y-115381872D01*
X128686000Y-115466486D01*
X128686000Y-115529497D01*
X128686296Y-115538085D01*
X128698648Y-115717209D01*
X128718343Y-116002791D01*
X128720449Y-116018577D01*
X128726000Y-116046484D01*
X128726000Y-116109515D01*
X128726296Y-116118115D01*
X128727061Y-116129205D01*
X128726054Y-116163529D01*
X128726000Y-116167194D01*
X128726000Y-116253514D01*
X128725007Y-116258505D01*
X128722660Y-116279225D01*
X128722512Y-116284281D01*
X128703684Y-116366291D01*
X128700569Y-116390596D01*
X128701960Y-116413211D01*
X128709891Y-116464890D01*
X128710836Y-116470255D01*
X128719446Y-116513538D01*
X128726000Y-116546486D01*
X128726000Y-116560321D01*
X128727445Y-116579275D01*
X128729534Y-116592884D01*
X128726120Y-116670305D01*
X128726000Y-116675774D01*
X128726000Y-116753514D01*
X128723299Y-116767092D01*
X128721021Y-116785949D01*
X128720414Y-116799713D01*
X128701964Y-116874967D01*
X128700781Y-116880301D01*
X128685611Y-116956562D01*
X128680312Y-116969356D01*
X128674395Y-116987422D01*
X128671118Y-117000787D01*
X128638341Y-117070998D01*
X128636139Y-117076000D01*
X128614941Y-117127176D01*
X128606384Y-117147835D01*
X128600551Y-117156564D01*
X128598693Y-117159345D01*
X128589362Y-117175915D01*
X128583542Y-117188381D01*
X128572386Y-117203582D01*
X128537719Y-117250818D01*
X128534559Y-117255329D01*
X128491365Y-117319973D01*
X128440586Y-117370752D01*
X128435936Y-117375662D01*
X127203202Y-118749565D01*
X127192307Y-118763598D01*
X127181367Y-118779971D01*
X127130740Y-118830598D01*
X127126100Y-118835496D01*
X127112796Y-118850324D01*
X127112791Y-118850329D01*
X127093741Y-118867770D01*
X127089761Y-118871577D01*
X127034971Y-118926367D01*
X127023531Y-118934011D01*
X127008569Y-118945748D01*
X126998362Y-118955092D01*
X126931890Y-118995389D01*
X126927264Y-118998334D01*
X126862835Y-119041384D01*
X126862834Y-119041385D01*
X126862833Y-119041385D01*
X126850115Y-119046653D01*
X126833151Y-119055246D01*
X126821325Y-119062415D01*
X126748297Y-119088959D01*
X126743163Y-119090954D01*
X126671565Y-119120611D01*
X126658056Y-119123298D01*
X126639745Y-119128415D01*
X126626753Y-119133137D01*
X126626750Y-119133138D01*
X126549931Y-119144927D01*
X126544543Y-119145877D01*
X126468514Y-119161000D01*
X126454738Y-119161000D01*
X126435776Y-119162447D01*
X126422120Y-119164543D01*
X126422116Y-119164543D01*
X126344508Y-119161121D01*
X126339023Y-119161000D01*
X126261483Y-119161000D01*
X126247964Y-119158311D01*
X126229093Y-119156031D01*
X126215289Y-119155422D01*
X126162621Y-119142510D01*
X126139889Y-119136937D01*
X126134513Y-119135744D01*
X126058437Y-119120611D01*
X126045695Y-119115333D01*
X126027621Y-119109413D01*
X126014217Y-119106127D01*
X126000611Y-119099775D01*
X125943883Y-119073293D01*
X125938854Y-119071079D01*
X125867164Y-119041384D01*
X125855688Y-119033716D01*
X125839131Y-119024391D01*
X125826621Y-119018551D01*
X125764055Y-118972634D01*
X125759568Y-118969490D01*
X125695029Y-118926367D01*
X125685264Y-118916602D01*
X125670833Y-118904217D01*
X125659717Y-118896059D01*
X125607344Y-118838854D01*
X125603536Y-118834874D01*
X125548634Y-118779972D01*
X125540962Y-118768490D01*
X125529225Y-118753529D01*
X125519918Y-118743363D01*
X125479722Y-118677057D01*
X125476764Y-118672412D01*
X125433617Y-118607837D01*
X125428326Y-118595064D01*
X125419734Y-118578102D01*
X125412593Y-118566322D01*
X125386118Y-118493483D01*
X125384123Y-118488348D01*
X125354389Y-118416564D01*
X125351691Y-118403001D01*
X125346573Y-118384686D01*
X125341872Y-118371753D01*
X125341871Y-118371749D01*
X125330113Y-118295132D01*
X125329163Y-118289742D01*
X125314000Y-118213514D01*
X125314000Y-118199679D01*
X125312554Y-118180718D01*
X125310466Y-118167115D01*
X125313879Y-118089733D01*
X125314000Y-118084226D01*
X125314000Y-118025999D01*
X125311598Y-118001613D01*
X125304485Y-117978164D01*
X125292934Y-117956553D01*
X125277389Y-117937611D01*
X125258447Y-117922066D01*
X125236836Y-117910515D01*
X125213387Y-117903402D01*
X125189001Y-117901000D01*
X125071484Y-117901000D01*
X124868436Y-117860611D01*
X124677167Y-117781385D01*
X124677166Y-117781385D01*
X124677165Y-117781384D01*
X124505027Y-117666365D01*
X124358635Y-117519973D01*
X124243616Y-117347835D01*
X124215458Y-117279855D01*
X124164389Y-117156564D01*
X124124000Y-116953516D01*
X124124000Y-116746484D01*
X124164389Y-116543436D01*
X124243615Y-116352167D01*
X124249450Y-116343435D01*
X124358635Y-116180027D01*
X124505027Y-116033635D01*
X124677165Y-115918616D01*
X124686083Y-115914922D01*
X124868436Y-115839389D01*
X125071484Y-115799000D01*
X125278516Y-115799000D01*
X125481564Y-115839389D01*
X125663917Y-115914922D01*
X125672835Y-115918616D01*
X125844973Y-116033635D01*
X125991365Y-116180027D01*
X126100551Y-116343435D01*
X126106385Y-116352167D01*
X126164276Y-116491927D01*
X126175827Y-116513538D01*
X126191373Y-116532480D01*
X126210315Y-116548025D01*
X126231925Y-116559576D01*
X126255374Y-116566689D01*
X126279760Y-116569091D01*
X126304146Y-116566689D01*
X126327595Y-116559576D01*
X126349206Y-116548025D01*
X126372798Y-116527570D01*
X126592039Y-116283221D01*
X126606537Y-116263466D01*
X126616903Y-116241263D01*
X126622738Y-116217463D01*
X126624000Y-116199743D01*
X126624000Y-116190503D01*
X126623704Y-116181903D01*
X126623575Y-116180027D01*
X126597298Y-115799000D01*
X126591657Y-115717209D01*
X126589551Y-115701423D01*
X126584000Y-115673516D01*
X126584000Y-115610485D01*
X126583704Y-115601885D01*
X126582939Y-115590795D01*
X126583946Y-115556471D01*
X126584000Y-115552806D01*
X126584000Y-115466486D01*
X126584993Y-115461495D01*
X126587340Y-115440775D01*
X126587488Y-115435721D01*
X126587488Y-115435718D01*
X126606782Y-115351682D01*
X126607545Y-115348115D01*
X126624389Y-115263436D01*
X126626335Y-115258738D01*
X126632682Y-115238869D01*
X126633814Y-115233937D01*
X126669124Y-115155296D01*
X126670576Y-115151931D01*
X126703616Y-115072165D01*
X126706442Y-115067935D01*
X126716538Y-115049694D01*
X126718612Y-115045074D01*
X126768586Y-114974832D01*
X126770666Y-114971815D01*
X126818631Y-114900031D01*
X126822233Y-114896429D01*
X126835689Y-114880514D01*
X126838629Y-114876381D01*
X126901385Y-114817201D01*
X126903963Y-114814699D01*
X126965027Y-114753635D01*
X126969260Y-114750807D01*
X126985560Y-114737824D01*
X126989250Y-114734344D01*
X127062322Y-114688560D01*
X127065373Y-114686585D01*
X127137163Y-114638617D01*
X127137168Y-114638615D01*
X127139268Y-114637745D01*
X127141865Y-114636669D01*
X127160392Y-114627112D01*
X127164684Y-114624423D01*
X127245285Y-114593773D01*
X127248691Y-114592420D01*
X127328434Y-114559390D01*
X127333419Y-114558398D01*
X127353456Y-114552639D01*
X127358197Y-114550836D01*
X127377634Y-114547559D01*
X127443244Y-114536497D01*
X127446848Y-114535835D01*
X127531484Y-114519000D01*
X127536562Y-114519000D01*
X127557344Y-114517260D01*
X127562344Y-114516417D01*
X127648563Y-114518946D01*
G37*
G36*
X132792656Y-114517260D02*
G01*
X132813438Y-114519000D01*
X132818516Y-114519000D01*
X132903152Y-114535835D01*
X132906756Y-114536497D01*
X132991804Y-114550836D01*
X132996550Y-114552641D01*
X133016581Y-114558398D01*
X133021568Y-114559390D01*
X133101294Y-114592413D01*
X133104699Y-114593766D01*
X133185314Y-114624421D01*
X133189610Y-114627113D01*
X133208141Y-114636671D01*
X133212835Y-114638615D01*
X133284603Y-114686569D01*
X133287679Y-114688560D01*
X133311703Y-114703613D01*
X133360750Y-114734344D01*
X133364443Y-114737827D01*
X133380743Y-114750809D01*
X133384973Y-114753635D01*
X133446030Y-114814692D01*
X133448622Y-114817208D01*
X133511371Y-114876381D01*
X133514311Y-114880514D01*
X133527767Y-114896429D01*
X133531369Y-114900031D01*
X133579334Y-114971815D01*
X133581414Y-114974832D01*
X133631388Y-115045074D01*
X133633462Y-115049694D01*
X133643558Y-115067935D01*
X133646384Y-115072165D01*
X133679424Y-115151931D01*
X133680876Y-115155296D01*
X133716186Y-115233937D01*
X133717318Y-115238869D01*
X133723665Y-115258738D01*
X133725611Y-115263436D01*
X133742455Y-115348115D01*
X133743215Y-115351667D01*
X133762512Y-115435717D01*
X133762512Y-115435721D01*
X133762660Y-115440775D01*
X133765007Y-115461495D01*
X133766000Y-115466486D01*
X133766000Y-115552806D01*
X133766054Y-115556471D01*
X133767061Y-115590795D01*
X133766296Y-115601885D01*
X133766000Y-115610485D01*
X133766000Y-115673516D01*
X133760449Y-115701423D01*
X133758343Y-115717209D01*
X133752702Y-115799000D01*
X133726426Y-116180027D01*
X133726296Y-116181903D01*
X133726000Y-116190503D01*
X133726000Y-116253514D01*
X133709169Y-116338128D01*
X133708521Y-116341650D01*
X133701664Y-116382323D01*
X133699980Y-116406757D01*
X133702328Y-116427478D01*
X133726000Y-116546484D01*
X133726000Y-116574090D01*
X133728402Y-116598476D01*
X133735515Y-116621925D01*
X133747066Y-116643536D01*
X133757961Y-116657568D01*
X133885501Y-116799714D01*
X134034981Y-116966311D01*
X134045280Y-116977790D01*
X134063353Y-116994337D01*
X134084308Y-117007040D01*
X134107338Y-117015411D01*
X134131558Y-117019128D01*
X134156039Y-117018049D01*
X134179838Y-117012214D01*
X134202042Y-117001848D01*
X134221796Y-116987350D01*
X134238343Y-116969277D01*
X134251046Y-116948322D01*
X134259417Y-116925292D01*
X134263134Y-116901072D01*
X134262055Y-116876591D01*
X134259725Y-116864563D01*
X134227639Y-116733688D01*
X134223853Y-116647835D01*
X134221121Y-116585895D01*
X134243561Y-116439678D01*
X134294097Y-116300643D01*
X134319646Y-116258498D01*
X134370786Y-116174139D01*
X134470681Y-116065026D01*
X134589944Y-115977499D01*
X134723990Y-115914921D01*
X134867669Y-115879696D01*
X134947059Y-115876195D01*
X135015462Y-115873178D01*
X135161679Y-115895618D01*
X135300714Y-115946154D01*
X135427218Y-116022843D01*
X135427219Y-116022844D01*
X135476362Y-116067835D01*
X135508992Y-116097709D01*
X135637796Y-116241263D01*
X135958961Y-116599205D01*
X136024560Y-116688589D01*
X136054870Y-116753516D01*
X136087137Y-116822632D01*
X136122361Y-116966311D01*
X136124385Y-117012214D01*
X136128879Y-117114106D01*
X136106439Y-117260319D01*
X136106438Y-117260323D01*
X136055903Y-117399358D01*
X136055902Y-117399360D01*
X135979213Y-117525863D01*
X135879319Y-117634974D01*
X135760058Y-117722501D01*
X135692917Y-117753845D01*
X135626010Y-117785080D01*
X135482331Y-117820304D01*
X135404680Y-117823728D01*
X135334537Y-117826822D01*
X135188323Y-117804382D01*
X135188320Y-117804381D01*
X135049285Y-117753846D01*
X135049283Y-117753845D01*
X135029999Y-117742155D01*
X135007901Y-117731567D01*
X134984161Y-117725494D01*
X134959693Y-117724168D01*
X134935436Y-117727642D01*
X134912323Y-117735781D01*
X134891242Y-117748273D01*
X134873004Y-117764638D01*
X134858308Y-117784246D01*
X134847720Y-117806344D01*
X134841647Y-117830084D01*
X134840321Y-117854552D01*
X134843795Y-117878809D01*
X134851932Y-117901914D01*
X134911134Y-118028729D01*
X134948704Y-118181975D01*
X134953456Y-118289742D01*
X134955655Y-118339608D01*
X134931721Y-118495562D01*
X134877821Y-118643853D01*
X134860508Y-118672412D01*
X134796025Y-118778780D01*
X134689479Y-118895156D01*
X134689475Y-118895159D01*
X134689474Y-118895160D01*
X134562274Y-118988513D01*
X134419303Y-119055258D01*
X134369531Y-119067460D01*
X134266057Y-119092828D01*
X134108427Y-119099779D01*
X134108424Y-119099779D01*
X133952470Y-119075845D01*
X133804179Y-119021945D01*
X133717652Y-118969490D01*
X133669252Y-118940149D01*
X133654196Y-118926365D01*
X133582036Y-118860301D01*
X132563228Y-117724821D01*
X132545155Y-117708274D01*
X132524200Y-117695571D01*
X132494576Y-117685702D01*
X132368436Y-117660611D01*
X132177167Y-117581385D01*
X132177166Y-117581385D01*
X132177165Y-117581384D01*
X132005027Y-117466365D01*
X131858635Y-117319973D01*
X131743616Y-117147835D01*
X131735059Y-117127176D01*
X131664389Y-116956564D01*
X131624000Y-116753516D01*
X131624000Y-116546484D01*
X131648287Y-116424386D01*
X131650689Y-116400000D01*
X131648286Y-116375606D01*
X131647544Y-116371877D01*
X131646778Y-116368301D01*
X131627488Y-116284282D01*
X131627340Y-116279221D01*
X131624993Y-116258505D01*
X131624000Y-116253514D01*
X131624000Y-116167194D01*
X131623946Y-116163529D01*
X131622939Y-116129205D01*
X131623704Y-116118115D01*
X131624000Y-116109515D01*
X131624000Y-116046484D01*
X131629551Y-116018577D01*
X131631657Y-116002791D01*
X131651352Y-115717209D01*
X131663704Y-115538085D01*
X131664000Y-115529497D01*
X131664000Y-115466486D01*
X131680831Y-115381872D01*
X131681483Y-115378325D01*
X131695836Y-115293195D01*
X131697640Y-115288452D01*
X131703401Y-115268407D01*
X131704391Y-115263432D01*
X131737401Y-115183738D01*
X131738754Y-115180332D01*
X131738757Y-115180325D01*
X131769421Y-115099685D01*
X131772114Y-115095387D01*
X131781676Y-115076849D01*
X131783617Y-115072162D01*
X131831549Y-115000427D01*
X131833540Y-114997351D01*
X131833549Y-114997336D01*
X131879343Y-114924249D01*
X131882826Y-114920556D01*
X131895814Y-114904247D01*
X131898631Y-114900031D01*
X131959649Y-114839013D01*
X131962183Y-114836403D01*
X132021380Y-114773628D01*
X132025516Y-114770685D01*
X132041438Y-114757224D01*
X132045028Y-114753634D01*
X132116766Y-114705700D01*
X132119736Y-114703652D01*
X132190073Y-114653611D01*
X132194713Y-114651528D01*
X132212945Y-114641435D01*
X132217163Y-114638617D01*
X132217168Y-114638615D01*
X132251430Y-114624423D01*
X132296872Y-114605600D01*
X132300237Y-114604148D01*
X132378934Y-114568813D01*
X132383878Y-114567678D01*
X132383883Y-114567677D01*
X132403746Y-114561331D01*
X132408433Y-114559389D01*
X132493061Y-114542556D01*
X132496612Y-114541796D01*
X132580717Y-114522487D01*
X132582198Y-114522444D01*
X132585787Y-114522338D01*
X132606502Y-114519991D01*
X132611485Y-114519000D01*
X132697772Y-114519000D01*
X132701437Y-114518946D01*
X132787656Y-114516417D01*
X132792656Y-114517260D01*
G37*
G36*
X130481564Y-113739389D02*
G01*
X130672833Y-113818615D01*
X130672835Y-113818616D01*
X130844973Y-113933635D01*
X130991365Y-114080027D01*
X131106385Y-114252167D01*
X131185611Y-114443436D01*
X131226000Y-114646484D01*
X131226000Y-114853516D01*
X131185611Y-115056564D01*
X131132937Y-115183731D01*
X131106384Y-115247835D01*
X130991365Y-115419973D01*
X130844973Y-115566365D01*
X130672835Y-115681384D01*
X130672834Y-115681385D01*
X130672833Y-115681385D01*
X130481564Y-115760611D01*
X130278516Y-115801000D01*
X130071484Y-115801000D01*
X129868436Y-115760611D01*
X129677167Y-115681385D01*
X129677166Y-115681385D01*
X129677165Y-115681384D01*
X129505027Y-115566365D01*
X129358635Y-115419973D01*
X129243616Y-115247835D01*
X129217063Y-115183731D01*
X129164389Y-115056564D01*
X129124000Y-114853516D01*
X129124000Y-114646484D01*
X129164389Y-114443436D01*
X129243615Y-114252167D01*
X129358635Y-114080027D01*
X129505027Y-113933635D01*
X129677165Y-113818616D01*
X129677167Y-113818615D01*
X129868436Y-113739389D01*
X130071484Y-113699000D01*
X130278516Y-113699000D01*
X130481564Y-113739389D01*
G37*
G36*
X147705073Y-102056272D02*
G01*
X147894596Y-102134775D01*
X148065162Y-102248744D01*
X148210216Y-102393798D01*
X148324185Y-102564364D01*
X148402688Y-102753887D01*
X148442708Y-102955083D01*
X148442708Y-103160221D01*
X148402688Y-103361417D01*
X148324185Y-103550940D01*
X148210216Y-103721506D01*
X148065162Y-103866560D01*
X147894596Y-103980529D01*
X147894595Y-103980530D01*
X147894594Y-103980530D01*
X147705073Y-104059032D01*
X147503878Y-104099052D01*
X147298738Y-104099052D01*
X147097543Y-104059032D01*
X146908022Y-103980530D01*
X146908021Y-103980530D01*
X146908020Y-103980529D01*
X146737454Y-103866560D01*
X146592400Y-103721506D01*
X146478431Y-103550940D01*
X146399928Y-103361417D01*
X146359908Y-103160221D01*
X146359908Y-102955083D01*
X146399928Y-102753887D01*
X146478431Y-102564364D01*
X146592400Y-102393798D01*
X146737454Y-102248744D01*
X146908020Y-102134775D01*
X147097543Y-102056272D01*
X147298738Y-102016252D01*
X147503878Y-102016252D01*
X147705073Y-102056272D01*
G37*
G36*
X147004954Y-99614667D02*
G01*
X147194477Y-99693170D01*
X147365043Y-99807139D01*
X147510097Y-99952193D01*
X147624066Y-100122759D01*
X147702569Y-100312282D01*
X147742589Y-100513478D01*
X147742589Y-100718616D01*
X147702569Y-100919812D01*
X147624066Y-101109335D01*
X147510097Y-101279901D01*
X147365043Y-101424955D01*
X147194477Y-101538924D01*
X147194476Y-101538925D01*
X147194475Y-101538925D01*
X147004954Y-101617427D01*
X146803759Y-101657447D01*
X146598619Y-101657447D01*
X146397424Y-101617427D01*
X146207903Y-101538925D01*
X146207902Y-101538925D01*
X146207901Y-101538924D01*
X146037335Y-101424955D01*
X145892281Y-101279901D01*
X145778312Y-101109335D01*
X145699809Y-100919812D01*
X145659789Y-100718616D01*
X145659789Y-100513478D01*
X145699809Y-100312282D01*
X145778312Y-100122759D01*
X145892281Y-99952193D01*
X146037335Y-99807139D01*
X146207901Y-99693170D01*
X146397424Y-99614667D01*
X146598619Y-99574647D01*
X146803759Y-99574647D01*
X147004954Y-99614667D01*
G37*
G36*
X146304835Y-97173062D02*
G01*
X146494358Y-97251565D01*
X146664924Y-97365534D01*
X146809978Y-97510588D01*
X146923947Y-97681154D01*
X147002450Y-97870677D01*
X147042470Y-98071873D01*
X147042470Y-98277011D01*
X147002450Y-98478207D01*
X146923947Y-98667730D01*
X146809978Y-98838296D01*
X146664924Y-98983350D01*
X146494358Y-99097319D01*
X146494357Y-99097320D01*
X146494356Y-99097320D01*
X146304835Y-99175822D01*
X146103640Y-99215842D01*
X145898500Y-99215842D01*
X145697305Y-99175822D01*
X145507784Y-99097320D01*
X145507783Y-99097320D01*
X145507782Y-99097319D01*
X145337216Y-98983350D01*
X145192162Y-98838296D01*
X145078193Y-98667730D01*
X144999690Y-98478207D01*
X144959670Y-98277011D01*
X144959670Y-98071873D01*
X144999690Y-97870677D01*
X145078193Y-97681154D01*
X145192162Y-97510588D01*
X145337216Y-97365534D01*
X145507782Y-97251565D01*
X145697305Y-97173062D01*
X145898500Y-97133042D01*
X146103640Y-97133042D01*
X146304835Y-97173062D01*
G37*
G36*
X145604716Y-94731458D02*
G01*
X145794239Y-94809961D01*
X145964805Y-94923930D01*
X146109859Y-95068984D01*
X146223828Y-95239550D01*
X146302331Y-95429073D01*
X146342351Y-95630269D01*
X146342351Y-95835407D01*
X146302331Y-96036603D01*
X146223828Y-96226126D01*
X146109859Y-96396692D01*
X145964805Y-96541746D01*
X145794239Y-96655715D01*
X145794238Y-96655716D01*
X145794237Y-96655716D01*
X145604716Y-96734218D01*
X145403521Y-96774238D01*
X145198381Y-96774238D01*
X144997186Y-96734218D01*
X144807665Y-96655716D01*
X144807664Y-96655716D01*
X144807663Y-96655715D01*
X144637097Y-96541746D01*
X144492043Y-96396692D01*
X144378074Y-96226126D01*
X144299571Y-96036603D01*
X144259551Y-95835407D01*
X144259551Y-95630269D01*
X144299571Y-95429073D01*
X144378074Y-95239550D01*
X144492043Y-95068984D01*
X144637097Y-94923930D01*
X144807663Y-94809961D01*
X144997186Y-94731458D01*
X145198381Y-94691438D01*
X145403521Y-94691438D01*
X145604716Y-94731458D01*
G37*
G36*
X67558228Y-93161703D02*
G01*
X67713100Y-93225853D01*
X67852481Y-93318985D01*
X67971015Y-93437519D01*
X68064147Y-93576900D01*
X68128297Y-93731772D01*
X68161000Y-93896184D01*
X68161000Y-94063816D01*
X68128297Y-94228228D01*
X68064147Y-94383100D01*
X67971015Y-94522481D01*
X67852481Y-94641015D01*
X67713100Y-94734147D01*
X67558228Y-94798297D01*
X67393816Y-94831000D01*
X67226184Y-94831000D01*
X67061772Y-94798297D01*
X66906900Y-94734147D01*
X66767519Y-94641015D01*
X66648985Y-94522481D01*
X66555853Y-94383100D01*
X66491703Y-94228228D01*
X66459000Y-94063816D01*
X66459000Y-93896184D01*
X66491703Y-93731772D01*
X66555853Y-93576900D01*
X66648985Y-93437519D01*
X66767519Y-93318985D01*
X66906900Y-93225853D01*
X67061772Y-93161703D01*
X67226184Y-93129000D01*
X67393816Y-93129000D01*
X67558228Y-93161703D01*
G37*
G36*
X60541000Y-94831000D02*
G01*
X58839000Y-94831000D01*
X58839000Y-93129000D01*
X60541000Y-93129000D01*
X60541000Y-94831000D01*
G37*
G36*
X144904597Y-92289853D02*
G01*
X145094120Y-92368356D01*
X145264686Y-92482325D01*
X145409740Y-92627379D01*
X145523709Y-92797945D01*
X145602212Y-92987468D01*
X145642232Y-93188664D01*
X145642232Y-93393802D01*
X145602212Y-93594998D01*
X145523709Y-93784521D01*
X145409740Y-93955087D01*
X145264686Y-94100141D01*
X145094120Y-94214110D01*
X145094119Y-94214111D01*
X145094118Y-94214111D01*
X144904597Y-94292613D01*
X144703402Y-94332633D01*
X144498262Y-94332633D01*
X144297067Y-94292613D01*
X144107546Y-94214111D01*
X144107545Y-94214111D01*
X144107544Y-94214110D01*
X143936978Y-94100141D01*
X143791924Y-93955087D01*
X143677955Y-93784521D01*
X143599452Y-93594998D01*
X143559432Y-93393802D01*
X143559432Y-93188664D01*
X143599452Y-92987468D01*
X143677955Y-92797945D01*
X143791924Y-92627379D01*
X143936978Y-92482325D01*
X144107544Y-92368356D01*
X144297067Y-92289853D01*
X144498262Y-92249833D01*
X144703402Y-92249833D01*
X144904597Y-92289853D01*
G37*
G36*
X144204478Y-89848248D02*
G01*
X144367344Y-89915709D01*
X144394001Y-89926751D01*
X144564567Y-90040720D01*
X144709621Y-90185774D01*
X144805767Y-90329666D01*
X144823591Y-90356342D01*
X144902093Y-90545863D01*
X144942113Y-90747058D01*
X144942113Y-90952198D01*
X144902093Y-91153393D01*
X144849512Y-91280336D01*
X144823590Y-91342916D01*
X144709621Y-91513482D01*
X144564567Y-91658536D01*
X144394001Y-91772505D01*
X144394000Y-91772506D01*
X144393999Y-91772506D01*
X144204478Y-91851008D01*
X144003283Y-91891028D01*
X143798143Y-91891028D01*
X143596948Y-91851008D01*
X143407427Y-91772506D01*
X143407426Y-91772506D01*
X143407425Y-91772505D01*
X143236859Y-91658536D01*
X143091805Y-91513482D01*
X142977836Y-91342916D01*
X142951915Y-91280336D01*
X142899333Y-91153393D01*
X142859313Y-90952198D01*
X142859313Y-90747058D01*
X142899333Y-90545863D01*
X142977835Y-90356342D01*
X142995659Y-90329666D01*
X143091805Y-90185774D01*
X143236859Y-90040720D01*
X143407425Y-89926751D01*
X143434083Y-89915709D01*
X143596948Y-89848248D01*
X143798143Y-89808228D01*
X144003283Y-89808228D01*
X144204478Y-89848248D01*
G37*
G36*
X65773500Y-91808500D02*
G01*
X63766500Y-91808500D01*
X63766500Y-89801500D01*
X65773500Y-89801500D01*
X65773500Y-91808500D01*
G37*
G36*
X62356425Y-89806988D02*
G01*
X62522710Y-89840063D01*
X62705336Y-89915709D01*
X62869694Y-90025530D01*
X63009470Y-90165306D01*
X63119291Y-90329664D01*
X63194937Y-90512290D01*
X63233500Y-90706164D01*
X63233500Y-90903836D01*
X63194937Y-91097710D01*
X63119291Y-91280336D01*
X63009470Y-91444694D01*
X62869694Y-91584470D01*
X62705336Y-91694291D01*
X62522710Y-91769937D01*
X62356425Y-91803012D01*
X62328837Y-91808500D01*
X62131163Y-91808500D01*
X62103575Y-91803012D01*
X61937290Y-91769937D01*
X61754664Y-91694291D01*
X61590306Y-91584470D01*
X61450530Y-91444694D01*
X61340709Y-91280336D01*
X61265063Y-91097710D01*
X61226500Y-90903836D01*
X61226500Y-90706164D01*
X61265063Y-90512290D01*
X61340709Y-90329664D01*
X61450530Y-90165306D01*
X61590306Y-90025530D01*
X61754664Y-89915709D01*
X61937290Y-89840063D01*
X62103575Y-89806988D01*
X62131163Y-89801500D01*
X62328837Y-89801500D01*
X62356425Y-89806988D01*
G37*
G36*
X86608228Y-89986703D02*
G01*
X86763100Y-90050853D01*
X86902481Y-90143985D01*
X87021015Y-90262519D01*
X87114147Y-90401900D01*
X87178297Y-90556772D01*
X87211000Y-90721184D01*
X87211000Y-90888816D01*
X87178297Y-91053228D01*
X87114147Y-91208100D01*
X87021015Y-91347481D01*
X86902481Y-91466015D01*
X86763100Y-91559147D01*
X86608228Y-91623297D01*
X86443816Y-91656000D01*
X86276184Y-91656000D01*
X86111772Y-91623297D01*
X85956900Y-91559147D01*
X85817519Y-91466015D01*
X85698985Y-91347481D01*
X85605853Y-91208100D01*
X85541703Y-91053228D01*
X85509000Y-90888816D01*
X85509000Y-90721184D01*
X85541703Y-90556772D01*
X85605853Y-90401900D01*
X85698985Y-90262519D01*
X85817519Y-90143985D01*
X85956900Y-90050853D01*
X86111772Y-89986703D01*
X86276184Y-89954000D01*
X86443816Y-89954000D01*
X86608228Y-89986703D01*
G37*
G36*
X79591000Y-91656000D02*
G01*
X77889000Y-91656000D01*
X77889000Y-89954000D01*
X79591000Y-89954000D01*
X79591000Y-91656000D01*
G37*
G36*
X124708228Y-89986703D02*
G01*
X124863100Y-90050853D01*
X125002481Y-90143985D01*
X125121015Y-90262519D01*
X125214147Y-90401900D01*
X125278297Y-90556772D01*
X125311000Y-90721184D01*
X125311000Y-90888816D01*
X125278297Y-91053228D01*
X125214147Y-91208100D01*
X125121015Y-91347481D01*
X125002481Y-91466015D01*
X124863100Y-91559147D01*
X124708228Y-91623297D01*
X124543816Y-91656000D01*
X124376184Y-91656000D01*
X124211772Y-91623297D01*
X124056900Y-91559147D01*
X123917519Y-91466015D01*
X123798985Y-91347481D01*
X123705853Y-91208100D01*
X123641703Y-91053228D01*
X123609000Y-90888816D01*
X123609000Y-90721184D01*
X123641703Y-90556772D01*
X123705853Y-90401900D01*
X123798985Y-90262519D01*
X123917519Y-90143985D01*
X124056900Y-90050853D01*
X124211772Y-89986703D01*
X124376184Y-89954000D01*
X124543816Y-89954000D01*
X124708228Y-89986703D01*
G37*
G36*
X117691000Y-91656000D02*
G01*
X115989000Y-91656000D01*
X115989000Y-89954000D01*
X117691000Y-89954000D01*
X117691000Y-91656000D01*
G37*
G36*
X143379313Y-87381771D02*
G01*
X143504359Y-87406644D01*
X143693882Y-87485147D01*
X143864448Y-87599116D01*
X144009502Y-87744170D01*
X144123471Y-87914736D01*
X144123472Y-87914738D01*
X144201974Y-88104259D01*
X144234881Y-88269692D01*
X144241994Y-88305455D01*
X144241994Y-88510593D01*
X144201974Y-88711789D01*
X144123471Y-88901312D01*
X144009502Y-89071878D01*
X143864448Y-89216932D01*
X143693882Y-89330901D01*
X143693881Y-89330902D01*
X143693880Y-89330902D01*
X143504359Y-89409404D01*
X143303164Y-89449424D01*
X143098024Y-89449424D01*
X142896829Y-89409404D01*
X142707308Y-89330902D01*
X142707307Y-89330902D01*
X142707306Y-89330901D01*
X142536740Y-89216932D01*
X142391686Y-89071878D01*
X142277717Y-88901312D01*
X142199214Y-88711789D01*
X142159194Y-88510593D01*
X142159194Y-88305455D01*
X142166308Y-88269692D01*
X142199214Y-88104259D01*
X142277716Y-87914738D01*
X142277717Y-87914736D01*
X142391686Y-87744170D01*
X142536740Y-87599116D01*
X142707306Y-87485147D01*
X142896829Y-87406644D01*
X143021875Y-87381771D01*
X143098024Y-87366624D01*
X143303164Y-87366624D01*
X143379313Y-87381771D01*
G37*
G36*
X84823500Y-88633500D02*
G01*
X82816500Y-88633500D01*
X82816500Y-86626500D01*
X84823500Y-86626500D01*
X84823500Y-88633500D01*
G37*
G36*
X81397795Y-86630271D02*
G01*
X81572710Y-86665063D01*
X81755336Y-86740709D01*
X81919694Y-86850530D01*
X82059470Y-86990306D01*
X82169291Y-87154664D01*
X82244937Y-87337290D01*
X82283500Y-87531164D01*
X82283500Y-87728836D01*
X82244937Y-87922710D01*
X82169291Y-88105336D01*
X82059470Y-88269694D01*
X81919694Y-88409470D01*
X81755336Y-88519291D01*
X81572710Y-88594937D01*
X81406425Y-88628012D01*
X81378837Y-88633500D01*
X81181163Y-88633500D01*
X81153575Y-88628012D01*
X80987290Y-88594937D01*
X80804664Y-88519291D01*
X80640306Y-88409470D01*
X80500530Y-88269694D01*
X80390709Y-88105336D01*
X80315063Y-87922710D01*
X80276500Y-87728836D01*
X80276500Y-87531164D01*
X80315063Y-87337290D01*
X80390709Y-87154664D01*
X80500530Y-86990306D01*
X80640306Y-86850530D01*
X80804664Y-86740709D01*
X80987290Y-86665063D01*
X81162205Y-86630271D01*
X81181163Y-86626500D01*
X81378837Y-86626500D01*
X81397795Y-86630271D01*
G37*
G36*
X119497795Y-86630271D02*
G01*
X119672710Y-86665063D01*
X119855336Y-86740709D01*
X120019694Y-86850530D01*
X120159470Y-86990306D01*
X120269291Y-87154664D01*
X120344937Y-87337290D01*
X120383500Y-87531164D01*
X120383500Y-87728836D01*
X120344937Y-87922710D01*
X120269291Y-88105336D01*
X120159470Y-88269694D01*
X120019694Y-88409470D01*
X119855336Y-88519291D01*
X119672710Y-88594937D01*
X119506425Y-88628012D01*
X119478837Y-88633500D01*
X119281163Y-88633500D01*
X119253575Y-88628012D01*
X119087290Y-88594937D01*
X118904664Y-88519291D01*
X118740306Y-88409470D01*
X118600530Y-88269694D01*
X118490709Y-88105336D01*
X118415063Y-87922710D01*
X118376500Y-87728836D01*
X118376500Y-87531164D01*
X118415063Y-87337290D01*
X118490709Y-87154664D01*
X118600530Y-86990306D01*
X118740306Y-86850530D01*
X118904664Y-86740709D01*
X119087290Y-86665063D01*
X119262205Y-86630271D01*
X119281163Y-86626500D01*
X119478837Y-86626500D01*
X119497795Y-86630271D01*
G37*
G36*
X122923500Y-88633500D02*
G01*
X120916500Y-88633500D01*
X120916500Y-86626500D01*
X122923500Y-86626500D01*
X122923500Y-88633500D01*
G37*
G36*
X98641000Y-88481000D02*
G01*
X96939000Y-88481000D01*
X96939000Y-86779000D01*
X98641000Y-86779000D01*
X98641000Y-88481000D01*
G37*
G36*
X105658228Y-86811703D02*
G01*
X105813100Y-86875853D01*
X105952481Y-86968985D01*
X106071015Y-87087519D01*
X106164147Y-87226900D01*
X106228297Y-87381772D01*
X106261000Y-87546184D01*
X106261000Y-87713816D01*
X106228297Y-87878228D01*
X106164147Y-88033100D01*
X106071015Y-88172481D01*
X105952481Y-88291015D01*
X105813100Y-88384147D01*
X105658228Y-88448297D01*
X105493816Y-88481000D01*
X105326184Y-88481000D01*
X105161772Y-88448297D01*
X105006900Y-88384147D01*
X104867519Y-88291015D01*
X104748985Y-88172481D01*
X104655853Y-88033100D01*
X104591703Y-87878228D01*
X104559000Y-87713816D01*
X104559000Y-87546184D01*
X104591703Y-87381772D01*
X104655853Y-87226900D01*
X104748985Y-87087519D01*
X104867519Y-86968985D01*
X105006900Y-86875853D01*
X105161772Y-86811703D01*
X105326184Y-86779000D01*
X105493816Y-86779000D01*
X105658228Y-86811703D01*
G37*
G36*
X142629766Y-84930334D02*
G01*
X142804241Y-84965039D01*
X142993764Y-85043542D01*
X143164330Y-85157511D01*
X143309384Y-85302565D01*
X143423353Y-85473131D01*
X143501856Y-85662654D01*
X143541876Y-85863850D01*
X143541876Y-86068988D01*
X143501856Y-86270184D01*
X143423353Y-86459707D01*
X143309384Y-86630273D01*
X143164330Y-86775327D01*
X142993764Y-86889296D01*
X142993763Y-86889297D01*
X142993762Y-86889297D01*
X142804241Y-86967799D01*
X142603046Y-87007819D01*
X142397906Y-87007819D01*
X142196711Y-86967799D01*
X142007190Y-86889297D01*
X142007189Y-86889297D01*
X142007188Y-86889296D01*
X141836622Y-86775327D01*
X141691568Y-86630273D01*
X141577599Y-86459707D01*
X141499096Y-86270184D01*
X141459076Y-86068988D01*
X141459076Y-85863850D01*
X141499096Y-85662654D01*
X141577599Y-85473131D01*
X141691568Y-85302565D01*
X141836622Y-85157511D01*
X142007188Y-85043542D01*
X142196711Y-84965039D01*
X142371186Y-84930334D01*
X142397906Y-84925019D01*
X142603046Y-84925019D01*
X142629766Y-84930334D01*
G37*
G36*
X100456425Y-83456988D02*
G01*
X100622710Y-83490063D01*
X100805336Y-83565709D01*
X100969694Y-83675530D01*
X101109470Y-83815306D01*
X101219291Y-83979664D01*
X101294937Y-84162290D01*
X101333500Y-84356164D01*
X101333500Y-84553836D01*
X101294937Y-84747710D01*
X101219291Y-84930336D01*
X101109470Y-85094694D01*
X100969694Y-85234470D01*
X100805336Y-85344291D01*
X100622710Y-85419937D01*
X100456425Y-85453012D01*
X100428837Y-85458500D01*
X100231163Y-85458500D01*
X100203575Y-85453012D01*
X100037290Y-85419937D01*
X99854664Y-85344291D01*
X99690306Y-85234470D01*
X99550530Y-85094694D01*
X99440709Y-84930336D01*
X99365063Y-84747710D01*
X99326500Y-84553836D01*
X99326500Y-84356164D01*
X99365063Y-84162290D01*
X99440709Y-83979664D01*
X99550530Y-83815306D01*
X99690306Y-83675530D01*
X99854664Y-83565709D01*
X100037290Y-83490063D01*
X100203575Y-83456988D01*
X100231163Y-83451500D01*
X100428837Y-83451500D01*
X100456425Y-83456988D01*
G37*
G36*
X103873500Y-85458500D02*
G01*
X101866500Y-85458500D01*
X101866500Y-83451500D01*
X103873500Y-83451500D01*
X103873500Y-85458500D01*
G37*
G36*
X142104122Y-82523434D02*
G01*
X142291053Y-82600863D01*
X142293645Y-82601937D01*
X142464211Y-82715906D01*
X142609265Y-82860960D01*
X142692490Y-82985515D01*
X142723235Y-83031528D01*
X142801737Y-83221049D01*
X142841757Y-83422244D01*
X142841757Y-83627384D01*
X142801737Y-83828579D01*
X142742720Y-83971060D01*
X142723234Y-84018102D01*
X142609265Y-84188668D01*
X142464211Y-84333722D01*
X142293645Y-84447691D01*
X142293644Y-84447692D01*
X142293643Y-84447692D01*
X142104122Y-84526194D01*
X141902927Y-84566214D01*
X141697787Y-84566214D01*
X141496592Y-84526194D01*
X141307071Y-84447692D01*
X141307070Y-84447692D01*
X141307069Y-84447691D01*
X141136503Y-84333722D01*
X140991449Y-84188668D01*
X140877480Y-84018102D01*
X140857995Y-83971060D01*
X140798977Y-83828579D01*
X140758957Y-83627384D01*
X140758957Y-83422244D01*
X140798977Y-83221049D01*
X140877479Y-83031528D01*
X140908224Y-82985515D01*
X140991449Y-82860960D01*
X141136503Y-82715906D01*
X141307069Y-82601937D01*
X141309662Y-82600863D01*
X141496592Y-82523434D01*
X141697787Y-82483414D01*
X141902927Y-82483414D01*
X142104122Y-82523434D01*
G37*
G36*
X60973563Y-79593946D02*
G01*
X60977228Y-79594000D01*
X61063515Y-79594000D01*
X61068498Y-79594991D01*
X61089213Y-79597338D01*
X61092650Y-79597439D01*
X61094283Y-79597487D01*
X61178355Y-79616789D01*
X61181925Y-79617553D01*
X61266567Y-79634389D01*
X61271259Y-79636333D01*
X61291122Y-79642678D01*
X61296062Y-79643812D01*
X61374746Y-79679141D01*
X61378111Y-79680593D01*
X61423570Y-79699423D01*
X61457833Y-79713615D01*
X61457837Y-79713617D01*
X61462055Y-79716435D01*
X61480296Y-79726533D01*
X61484927Y-79728612D01*
X61555232Y-79778631D01*
X61558225Y-79780694D01*
X61629971Y-79828633D01*
X61633565Y-79832227D01*
X61649474Y-79845678D01*
X61653620Y-79848628D01*
X61712833Y-79911420D01*
X61715335Y-79913997D01*
X61776365Y-79975027D01*
X61779185Y-79979247D01*
X61779185Y-79979248D01*
X61792170Y-79995552D01*
X61795657Y-79999249D01*
X61827350Y-80049832D01*
X61841450Y-80072336D01*
X61843441Y-80075412D01*
X61891383Y-80147163D01*
X61893325Y-80151851D01*
X61902888Y-80170391D01*
X61905579Y-80174685D01*
X61913368Y-80195168D01*
X61936246Y-80255332D01*
X61937596Y-80258731D01*
X61970610Y-80338432D01*
X61971599Y-80343407D01*
X61977359Y-80363446D01*
X61979165Y-80368196D01*
X61993521Y-80453350D01*
X61994169Y-80456872D01*
X62011000Y-80541486D01*
X62011000Y-80604497D01*
X62011296Y-80613085D01*
X62026004Y-80826365D01*
X62043343Y-81077791D01*
X62045449Y-81093577D01*
X62051000Y-81121484D01*
X62051000Y-81184515D01*
X62051296Y-81193115D01*
X62052061Y-81204205D01*
X62051054Y-81238529D01*
X62051000Y-81242194D01*
X62051000Y-81328514D01*
X62050007Y-81333505D01*
X62047660Y-81354225D01*
X62047512Y-81359281D01*
X62028684Y-81441291D01*
X62025569Y-81465596D01*
X62026960Y-81488211D01*
X62034891Y-81539890D01*
X62035836Y-81545255D01*
X62042051Y-81576495D01*
X62051000Y-81621486D01*
X62051000Y-81635321D01*
X62052445Y-81654275D01*
X62054534Y-81667884D01*
X62051120Y-81745305D01*
X62051000Y-81750774D01*
X62051000Y-81828514D01*
X62048299Y-81842092D01*
X62046021Y-81860949D01*
X62045414Y-81874713D01*
X62026964Y-81949967D01*
X62025781Y-81955301D01*
X62010611Y-82031562D01*
X62005312Y-82044356D01*
X61999395Y-82062422D01*
X61996118Y-82075787D01*
X61963341Y-82145998D01*
X61961139Y-82151000D01*
X61939941Y-82202176D01*
X61931384Y-82222835D01*
X61925551Y-82231564D01*
X61923693Y-82234345D01*
X61914362Y-82250915D01*
X61908542Y-82263381D01*
X61897386Y-82278582D01*
X61862719Y-82325818D01*
X61859559Y-82330329D01*
X61816365Y-82394973D01*
X61765586Y-82445752D01*
X61760936Y-82450662D01*
X60528202Y-83824565D01*
X60517307Y-83838598D01*
X60506367Y-83854971D01*
X60455740Y-83905598D01*
X60451100Y-83910496D01*
X60437796Y-83925324D01*
X60437791Y-83925329D01*
X60418741Y-83942770D01*
X60414761Y-83946577D01*
X60359971Y-84001367D01*
X60348531Y-84009011D01*
X60333569Y-84020748D01*
X60323362Y-84030092D01*
X60256890Y-84070389D01*
X60252264Y-84073334D01*
X60187835Y-84116384D01*
X60187834Y-84116385D01*
X60187833Y-84116385D01*
X60175115Y-84121653D01*
X60158151Y-84130246D01*
X60146325Y-84137415D01*
X60073297Y-84163959D01*
X60068163Y-84165954D01*
X59996565Y-84195611D01*
X59983056Y-84198298D01*
X59964745Y-84203415D01*
X59951753Y-84208137D01*
X59951750Y-84208138D01*
X59874931Y-84219927D01*
X59869543Y-84220877D01*
X59793514Y-84236000D01*
X59779738Y-84236000D01*
X59760776Y-84237447D01*
X59747120Y-84239543D01*
X59747116Y-84239543D01*
X59669508Y-84236121D01*
X59664023Y-84236000D01*
X59586483Y-84236000D01*
X59572964Y-84233311D01*
X59554093Y-84231031D01*
X59540289Y-84230422D01*
X59487621Y-84217510D01*
X59464889Y-84211937D01*
X59459513Y-84210744D01*
X59383437Y-84195611D01*
X59370695Y-84190333D01*
X59352621Y-84184413D01*
X59339217Y-84181127D01*
X59325611Y-84174775D01*
X59268883Y-84148293D01*
X59263854Y-84146079D01*
X59192164Y-84116384D01*
X59180688Y-84108716D01*
X59164131Y-84099391D01*
X59151621Y-84093551D01*
X59089055Y-84047634D01*
X59084568Y-84044490D01*
X59020029Y-84001367D01*
X59010264Y-83991602D01*
X58995833Y-83979217D01*
X58984717Y-83971059D01*
X58932344Y-83913854D01*
X58928536Y-83909874D01*
X58873634Y-83854972D01*
X58865962Y-83843490D01*
X58854225Y-83828529D01*
X58844918Y-83818363D01*
X58804722Y-83752057D01*
X58801764Y-83747412D01*
X58758617Y-83682837D01*
X58753326Y-83670064D01*
X58744734Y-83653102D01*
X58737593Y-83641322D01*
X58711118Y-83568483D01*
X58709123Y-83563348D01*
X58679389Y-83491564D01*
X58676691Y-83478001D01*
X58671573Y-83459686D01*
X58666872Y-83446753D01*
X58666871Y-83446749D01*
X58655113Y-83370132D01*
X58654163Y-83364742D01*
X58639000Y-83288514D01*
X58639000Y-83274679D01*
X58637554Y-83255718D01*
X58635466Y-83242115D01*
X58638879Y-83164733D01*
X58639000Y-83159226D01*
X58639000Y-83100999D01*
X58636598Y-83076613D01*
X58629485Y-83053164D01*
X58617934Y-83031553D01*
X58602389Y-83012611D01*
X58583447Y-82997066D01*
X58561836Y-82985515D01*
X58538387Y-82978402D01*
X58514001Y-82976000D01*
X58396484Y-82976000D01*
X58193436Y-82935611D01*
X58002167Y-82856385D01*
X58002166Y-82856385D01*
X58002165Y-82856384D01*
X57830027Y-82741365D01*
X57683635Y-82594973D01*
X57568616Y-82422835D01*
X57540458Y-82354855D01*
X57489389Y-82231564D01*
X57449000Y-82028516D01*
X57449000Y-81821484D01*
X57489389Y-81618436D01*
X57568615Y-81427167D01*
X57574450Y-81418435D01*
X57683635Y-81255027D01*
X57830027Y-81108635D01*
X58002165Y-80993616D01*
X58004067Y-80992828D01*
X58193436Y-80914389D01*
X58396484Y-80874000D01*
X58603516Y-80874000D01*
X58806564Y-80914389D01*
X58995933Y-80992828D01*
X58997835Y-80993616D01*
X59169973Y-81108635D01*
X59316365Y-81255027D01*
X59425551Y-81418435D01*
X59431385Y-81427167D01*
X59489276Y-81566927D01*
X59500827Y-81588538D01*
X59516373Y-81607480D01*
X59535315Y-81623025D01*
X59556925Y-81634576D01*
X59580374Y-81641689D01*
X59604760Y-81644091D01*
X59629146Y-81641689D01*
X59652595Y-81634576D01*
X59674206Y-81623025D01*
X59697798Y-81602570D01*
X59917039Y-81358221D01*
X59931537Y-81338466D01*
X59941903Y-81316263D01*
X59947738Y-81292463D01*
X59949000Y-81274743D01*
X59949000Y-81265503D01*
X59948704Y-81256903D01*
X59948575Y-81255027D01*
X59931410Y-81006127D01*
X59916657Y-80792209D01*
X59914551Y-80776423D01*
X59909000Y-80748516D01*
X59909000Y-80685485D01*
X59908704Y-80676885D01*
X59907939Y-80665795D01*
X59908946Y-80631471D01*
X59909000Y-80627806D01*
X59909000Y-80541486D01*
X59909993Y-80536495D01*
X59912340Y-80515775D01*
X59912488Y-80510721D01*
X59912488Y-80510718D01*
X59931782Y-80426682D01*
X59932545Y-80423115D01*
X59949389Y-80338436D01*
X59951335Y-80333738D01*
X59957682Y-80313869D01*
X59958814Y-80308937D01*
X59994124Y-80230296D01*
X59995576Y-80226931D01*
X60028616Y-80147165D01*
X60031442Y-80142935D01*
X60041538Y-80124694D01*
X60043612Y-80120074D01*
X60093586Y-80049832D01*
X60095666Y-80046815D01*
X60143631Y-79975031D01*
X60147233Y-79971429D01*
X60160689Y-79955514D01*
X60163629Y-79951381D01*
X60226385Y-79892201D01*
X60228963Y-79889699D01*
X60290027Y-79828635D01*
X60294260Y-79825807D01*
X60310560Y-79812824D01*
X60314250Y-79809344D01*
X60387322Y-79763560D01*
X60390373Y-79761585D01*
X60462163Y-79713617D01*
X60462168Y-79713615D01*
X60464268Y-79712745D01*
X60466865Y-79711669D01*
X60485392Y-79702112D01*
X60489684Y-79699423D01*
X60570285Y-79668773D01*
X60573691Y-79667420D01*
X60653434Y-79634390D01*
X60658419Y-79633398D01*
X60678456Y-79627639D01*
X60683197Y-79625836D01*
X60702978Y-79622501D01*
X60768244Y-79611497D01*
X60771848Y-79610835D01*
X60856484Y-79594000D01*
X60861562Y-79594000D01*
X60882344Y-79592260D01*
X60887344Y-79591417D01*
X60973563Y-79593946D01*
G37*
G36*
X66117656Y-79592260D02*
G01*
X66138438Y-79594000D01*
X66143516Y-79594000D01*
X66228152Y-79610835D01*
X66231756Y-79611497D01*
X66316804Y-79625836D01*
X66321550Y-79627641D01*
X66341581Y-79633398D01*
X66346568Y-79634390D01*
X66426294Y-79667413D01*
X66429699Y-79668766D01*
X66510314Y-79699421D01*
X66514610Y-79702113D01*
X66533141Y-79711671D01*
X66537835Y-79713615D01*
X66609603Y-79761569D01*
X66612679Y-79763560D01*
X66636703Y-79778613D01*
X66685750Y-79809344D01*
X66689443Y-79812827D01*
X66705743Y-79825809D01*
X66709973Y-79828635D01*
X66771030Y-79889692D01*
X66773622Y-79892208D01*
X66836371Y-79951381D01*
X66839311Y-79955514D01*
X66852767Y-79971429D01*
X66856369Y-79975031D01*
X66904334Y-80046815D01*
X66906414Y-80049832D01*
X66956388Y-80120074D01*
X66958462Y-80124694D01*
X66968558Y-80142935D01*
X66971384Y-80147165D01*
X67004424Y-80226931D01*
X67005876Y-80230296D01*
X67041186Y-80308937D01*
X67042318Y-80313869D01*
X67048665Y-80333738D01*
X67050611Y-80338436D01*
X67067455Y-80423115D01*
X67068215Y-80426667D01*
X67087512Y-80510717D01*
X67087512Y-80510721D01*
X67087660Y-80515775D01*
X67090007Y-80536495D01*
X67091000Y-80541486D01*
X67091000Y-80627806D01*
X67091054Y-80631471D01*
X67092061Y-80665795D01*
X67091296Y-80676885D01*
X67091000Y-80685485D01*
X67091000Y-80748516D01*
X67085449Y-80776423D01*
X67083343Y-80792209D01*
X67068590Y-81006127D01*
X67051426Y-81255027D01*
X67051296Y-81256903D01*
X67051000Y-81265503D01*
X67051000Y-81328514D01*
X67034169Y-81413128D01*
X67033521Y-81416650D01*
X67026664Y-81457323D01*
X67024980Y-81481757D01*
X67027328Y-81502478D01*
X67051000Y-81621484D01*
X67051000Y-81649090D01*
X67053402Y-81673476D01*
X67060515Y-81696925D01*
X67072066Y-81718536D01*
X67082961Y-81732568D01*
X67210501Y-81874714D01*
X67359981Y-82041311D01*
X67370280Y-82052790D01*
X67388353Y-82069337D01*
X67409308Y-82082040D01*
X67432338Y-82090411D01*
X67456558Y-82094128D01*
X67481039Y-82093049D01*
X67504838Y-82087214D01*
X67527042Y-82076848D01*
X67546796Y-82062350D01*
X67563343Y-82044277D01*
X67576046Y-82023322D01*
X67584417Y-82000292D01*
X67588134Y-81976072D01*
X67587055Y-81951591D01*
X67584725Y-81939563D01*
X67552639Y-81808688D01*
X67548853Y-81722835D01*
X67546121Y-81660895D01*
X67568561Y-81514678D01*
X67619097Y-81375643D01*
X67644646Y-81333498D01*
X67695786Y-81249139D01*
X67795681Y-81140026D01*
X67914944Y-81052499D01*
X67931177Y-81044921D01*
X68048988Y-80989922D01*
X68048990Y-80989921D01*
X68192669Y-80954696D01*
X68272059Y-80951195D01*
X68340462Y-80948178D01*
X68486679Y-80970618D01*
X68609699Y-81015333D01*
X68625714Y-81021154D01*
X68752218Y-81097843D01*
X68752219Y-81097844D01*
X68801362Y-81142835D01*
X68833992Y-81172709D01*
X68962796Y-81316263D01*
X69283961Y-81674205D01*
X69349560Y-81763589D01*
X69379870Y-81828516D01*
X69412137Y-81897632D01*
X69447361Y-82041311D01*
X69449385Y-82087214D01*
X69453879Y-82189106D01*
X69431439Y-82335319D01*
X69431438Y-82335323D01*
X69380903Y-82474358D01*
X69380902Y-82474360D01*
X69304213Y-82600863D01*
X69204319Y-82709974D01*
X69085058Y-82797501D01*
X69017917Y-82828845D01*
X68951010Y-82860080D01*
X68807331Y-82895304D01*
X68729680Y-82898728D01*
X68659537Y-82901822D01*
X68513323Y-82879382D01*
X68513320Y-82879381D01*
X68374285Y-82828846D01*
X68374283Y-82828845D01*
X68354999Y-82817155D01*
X68332901Y-82806567D01*
X68309161Y-82800494D01*
X68284693Y-82799168D01*
X68260436Y-82802642D01*
X68237323Y-82810781D01*
X68216242Y-82823273D01*
X68198004Y-82839638D01*
X68183308Y-82859246D01*
X68172720Y-82881344D01*
X68166647Y-82905084D01*
X68165321Y-82929552D01*
X68168795Y-82953809D01*
X68176932Y-82976914D01*
X68236134Y-83103729D01*
X68273704Y-83256975D01*
X68278456Y-83364742D01*
X68280655Y-83414608D01*
X68256721Y-83570562D01*
X68202821Y-83718853D01*
X68185508Y-83747412D01*
X68121025Y-83853780D01*
X68014479Y-83970156D01*
X68014475Y-83970159D01*
X68014474Y-83970160D01*
X67887274Y-84063513D01*
X67744303Y-84130258D01*
X67694531Y-84142460D01*
X67591057Y-84167828D01*
X67433427Y-84174779D01*
X67433424Y-84174779D01*
X67277470Y-84150845D01*
X67129179Y-84096945D01*
X67042652Y-84044490D01*
X66994252Y-84015149D01*
X66979196Y-84001365D01*
X66907036Y-83935301D01*
X65888228Y-82799821D01*
X65870155Y-82783274D01*
X65849200Y-82770571D01*
X65819576Y-82760702D01*
X65693436Y-82735611D01*
X65502167Y-82656385D01*
X65502166Y-82656385D01*
X65502165Y-82656384D01*
X65330027Y-82541365D01*
X65183635Y-82394973D01*
X65068616Y-82222835D01*
X65060059Y-82202176D01*
X64989389Y-82031564D01*
X64949000Y-81828516D01*
X64949000Y-81621484D01*
X64973287Y-81499386D01*
X64975689Y-81475000D01*
X64973286Y-81450606D01*
X64972544Y-81446877D01*
X64971778Y-81443301D01*
X64952488Y-81359282D01*
X64952340Y-81354221D01*
X64949993Y-81333505D01*
X64949000Y-81328514D01*
X64949000Y-81242194D01*
X64948946Y-81238529D01*
X64947939Y-81204205D01*
X64948704Y-81193115D01*
X64949000Y-81184515D01*
X64949000Y-81121484D01*
X64954551Y-81093577D01*
X64956657Y-81077791D01*
X64976148Y-80795159D01*
X64988704Y-80613085D01*
X64989000Y-80604497D01*
X64989000Y-80541486D01*
X65005831Y-80456872D01*
X65006483Y-80453325D01*
X65020836Y-80368195D01*
X65022640Y-80363452D01*
X65028401Y-80343407D01*
X65029391Y-80338432D01*
X65062401Y-80258738D01*
X65063754Y-80255332D01*
X65063757Y-80255325D01*
X65094421Y-80174685D01*
X65097114Y-80170387D01*
X65106676Y-80151849D01*
X65108617Y-80147162D01*
X65156549Y-80075427D01*
X65158540Y-80072351D01*
X65161821Y-80067115D01*
X65204343Y-79999249D01*
X65207826Y-79995556D01*
X65220814Y-79979247D01*
X65223631Y-79975031D01*
X65284649Y-79914013D01*
X65287183Y-79911403D01*
X65346380Y-79848628D01*
X65350516Y-79845685D01*
X65366438Y-79832224D01*
X65370028Y-79828634D01*
X65441766Y-79780700D01*
X65444736Y-79778652D01*
X65515073Y-79728611D01*
X65519713Y-79726528D01*
X65537945Y-79716435D01*
X65542163Y-79713617D01*
X65542168Y-79713615D01*
X65576430Y-79699423D01*
X65621872Y-79680600D01*
X65625237Y-79679148D01*
X65703934Y-79643813D01*
X65708878Y-79642678D01*
X65708883Y-79642677D01*
X65728746Y-79636331D01*
X65733433Y-79634389D01*
X65818061Y-79617556D01*
X65821612Y-79616796D01*
X65905717Y-79597487D01*
X65907198Y-79597444D01*
X65910787Y-79597338D01*
X65931502Y-79594991D01*
X65936485Y-79594000D01*
X66022772Y-79594000D01*
X66026437Y-79593946D01*
X66112656Y-79591417D01*
X66117656Y-79592260D01*
G37*
G36*
X141404003Y-80081829D02*
G01*
X141573047Y-80151849D01*
X141593526Y-80160332D01*
X141764092Y-80274301D01*
X141909146Y-80419355D01*
X142023115Y-80589921D01*
X142023116Y-80589923D01*
X142101618Y-80779444D01*
X142141638Y-80980639D01*
X142141638Y-81185779D01*
X142101618Y-81386974D01*
X142029509Y-81561062D01*
X142023115Y-81576497D01*
X141909146Y-81747063D01*
X141764092Y-81892117D01*
X141593526Y-82006086D01*
X141593525Y-82006087D01*
X141593524Y-82006087D01*
X141404003Y-82084589D01*
X141202808Y-82124609D01*
X140997668Y-82124609D01*
X140796473Y-82084589D01*
X140606952Y-82006087D01*
X140606951Y-82006087D01*
X140606950Y-82006086D01*
X140436384Y-81892117D01*
X140291330Y-81747063D01*
X140177361Y-81576497D01*
X140170968Y-81561062D01*
X140098858Y-81386974D01*
X140058838Y-81185779D01*
X140058838Y-80980639D01*
X140098858Y-80779444D01*
X140177360Y-80589923D01*
X140177361Y-80589921D01*
X140291330Y-80419355D01*
X140436384Y-80274301D01*
X140606950Y-80160332D01*
X140627430Y-80151849D01*
X140796473Y-80081829D01*
X140997668Y-80041809D01*
X141202808Y-80041809D01*
X141404003Y-80081829D01*
G37*
G36*
X80023563Y-76418946D02*
G01*
X80027228Y-76419000D01*
X80113515Y-76419000D01*
X80118498Y-76419991D01*
X80139213Y-76422338D01*
X80142650Y-76422439D01*
X80144283Y-76422487D01*
X80228355Y-76441789D01*
X80231925Y-76442553D01*
X80316567Y-76459389D01*
X80321259Y-76461333D01*
X80341122Y-76467678D01*
X80346062Y-76468812D01*
X80424746Y-76504141D01*
X80428111Y-76505593D01*
X80473570Y-76524423D01*
X80507833Y-76538615D01*
X80507837Y-76538617D01*
X80512055Y-76541435D01*
X80530296Y-76551533D01*
X80534927Y-76553612D01*
X80605232Y-76603631D01*
X80608225Y-76605694D01*
X80679971Y-76653633D01*
X80683565Y-76657227D01*
X80699474Y-76670678D01*
X80703620Y-76673628D01*
X80762833Y-76736420D01*
X80765335Y-76738997D01*
X80826365Y-76800027D01*
X80829185Y-76804247D01*
X80829185Y-76804248D01*
X80842170Y-76820552D01*
X80845657Y-76824249D01*
X80877350Y-76874832D01*
X80891450Y-76897336D01*
X80893441Y-76900412D01*
X80941383Y-76972163D01*
X80943325Y-76976851D01*
X80952888Y-76995391D01*
X80955579Y-76999685D01*
X80963368Y-77020168D01*
X80986246Y-77080332D01*
X80987596Y-77083731D01*
X81020610Y-77163432D01*
X81021599Y-77168407D01*
X81027359Y-77188446D01*
X81029165Y-77193196D01*
X81043521Y-77278350D01*
X81044169Y-77281872D01*
X81061000Y-77366486D01*
X81061000Y-77429497D01*
X81061296Y-77438085D01*
X81076004Y-77651365D01*
X81093343Y-77902791D01*
X81095449Y-77918577D01*
X81101000Y-77946484D01*
X81101000Y-78009515D01*
X81101296Y-78018115D01*
X81102061Y-78029205D01*
X81101054Y-78063529D01*
X81101000Y-78067194D01*
X81101000Y-78153514D01*
X81100007Y-78158505D01*
X81097660Y-78179225D01*
X81097512Y-78184281D01*
X81078684Y-78266291D01*
X81075569Y-78290596D01*
X81076960Y-78313211D01*
X81084891Y-78364890D01*
X81085836Y-78370255D01*
X81094446Y-78413538D01*
X81101000Y-78446486D01*
X81101000Y-78460321D01*
X81102445Y-78479275D01*
X81104534Y-78492884D01*
X81101120Y-78570305D01*
X81101000Y-78575774D01*
X81101000Y-78653514D01*
X81098299Y-78667092D01*
X81096021Y-78685949D01*
X81095414Y-78699713D01*
X81076964Y-78774967D01*
X81075781Y-78780301D01*
X81060611Y-78856562D01*
X81055312Y-78869356D01*
X81049395Y-78887422D01*
X81046118Y-78900787D01*
X81013341Y-78970998D01*
X81011139Y-78976000D01*
X80989941Y-79027176D01*
X80981384Y-79047835D01*
X80975551Y-79056564D01*
X80973693Y-79059345D01*
X80964362Y-79075915D01*
X80958542Y-79088381D01*
X80947386Y-79103582D01*
X80912719Y-79150818D01*
X80909559Y-79155329D01*
X80866365Y-79219973D01*
X80815586Y-79270752D01*
X80810936Y-79275662D01*
X79578202Y-80649565D01*
X79567307Y-80663598D01*
X79556367Y-80679971D01*
X79505740Y-80730598D01*
X79501100Y-80735496D01*
X79487796Y-80750324D01*
X79487791Y-80750329D01*
X79468741Y-80767770D01*
X79464761Y-80771577D01*
X79409971Y-80826367D01*
X79398531Y-80834011D01*
X79383569Y-80845748D01*
X79373362Y-80855092D01*
X79306890Y-80895389D01*
X79302264Y-80898334D01*
X79237835Y-80941384D01*
X79237834Y-80941385D01*
X79237833Y-80941385D01*
X79225115Y-80946653D01*
X79208151Y-80955246D01*
X79196325Y-80962415D01*
X79123297Y-80988959D01*
X79118163Y-80990954D01*
X79046565Y-81020611D01*
X79033056Y-81023298D01*
X79014745Y-81028415D01*
X79001753Y-81033137D01*
X79001750Y-81033138D01*
X78924931Y-81044927D01*
X78919543Y-81045877D01*
X78843514Y-81061000D01*
X78829738Y-81061000D01*
X78810776Y-81062447D01*
X78797120Y-81064543D01*
X78797116Y-81064543D01*
X78719508Y-81061121D01*
X78714023Y-81061000D01*
X78636483Y-81061000D01*
X78622964Y-81058311D01*
X78604093Y-81056031D01*
X78590289Y-81055422D01*
X78537621Y-81042510D01*
X78514889Y-81036937D01*
X78509513Y-81035744D01*
X78433437Y-81020611D01*
X78420695Y-81015333D01*
X78402621Y-81009413D01*
X78389217Y-81006127D01*
X78375611Y-80999775D01*
X78318883Y-80973293D01*
X78313854Y-80971079D01*
X78242164Y-80941384D01*
X78230688Y-80933716D01*
X78214131Y-80924391D01*
X78201621Y-80918551D01*
X78139055Y-80872634D01*
X78134568Y-80869490D01*
X78070029Y-80826367D01*
X78060264Y-80816602D01*
X78045833Y-80804217D01*
X78034717Y-80796059D01*
X77982344Y-80738854D01*
X77978536Y-80734874D01*
X77923634Y-80679972D01*
X77915962Y-80668490D01*
X77904225Y-80653529D01*
X77894918Y-80643363D01*
X77854722Y-80577057D01*
X77851764Y-80572412D01*
X77808617Y-80507837D01*
X77803326Y-80495064D01*
X77794734Y-80478102D01*
X77787593Y-80466322D01*
X77761118Y-80393483D01*
X77759123Y-80388348D01*
X77729389Y-80316564D01*
X77726691Y-80303001D01*
X77721573Y-80284686D01*
X77716872Y-80271753D01*
X77716871Y-80271749D01*
X77705113Y-80195132D01*
X77704163Y-80189742D01*
X77689000Y-80113514D01*
X77689000Y-80099679D01*
X77687554Y-80080718D01*
X77686740Y-80075412D01*
X77685466Y-80067115D01*
X77688879Y-79989711D01*
X77689000Y-79984226D01*
X77689000Y-79925999D01*
X77686598Y-79901613D01*
X77679485Y-79878164D01*
X77667934Y-79856553D01*
X77652389Y-79837611D01*
X77633447Y-79822066D01*
X77611836Y-79810515D01*
X77588387Y-79803402D01*
X77564001Y-79801000D01*
X77446484Y-79801000D01*
X77243436Y-79760611D01*
X77052167Y-79681385D01*
X77052166Y-79681385D01*
X77052165Y-79681384D01*
X76880027Y-79566365D01*
X76733635Y-79419973D01*
X76618616Y-79247835D01*
X76590458Y-79179855D01*
X76539389Y-79056564D01*
X76499000Y-78853516D01*
X76499000Y-78646484D01*
X76539389Y-78443436D01*
X76618615Y-78252167D01*
X76624450Y-78243435D01*
X76733635Y-78080027D01*
X76880027Y-77933635D01*
X77052165Y-77818616D01*
X77054067Y-77817828D01*
X77243436Y-77739389D01*
X77446484Y-77699000D01*
X77653516Y-77699000D01*
X77856564Y-77739389D01*
X78045933Y-77817828D01*
X78047835Y-77818616D01*
X78219973Y-77933635D01*
X78366365Y-78080027D01*
X78475551Y-78243435D01*
X78481385Y-78252167D01*
X78539276Y-78391927D01*
X78550827Y-78413538D01*
X78566373Y-78432480D01*
X78585315Y-78448025D01*
X78606925Y-78459576D01*
X78630374Y-78466689D01*
X78654760Y-78469091D01*
X78679146Y-78466689D01*
X78702595Y-78459576D01*
X78724206Y-78448025D01*
X78747798Y-78427570D01*
X78967039Y-78183221D01*
X78981537Y-78163466D01*
X78991903Y-78141263D01*
X78997738Y-78117463D01*
X78999000Y-78099743D01*
X78999000Y-78090503D01*
X78998704Y-78081903D01*
X78998575Y-78080027D01*
X78981410Y-77831127D01*
X78966657Y-77617209D01*
X78964551Y-77601423D01*
X78959000Y-77573516D01*
X78959000Y-77510485D01*
X78958704Y-77501885D01*
X78957939Y-77490795D01*
X78958946Y-77456471D01*
X78959000Y-77452806D01*
X78959000Y-77366486D01*
X78959993Y-77361495D01*
X78962340Y-77340775D01*
X78962488Y-77335721D01*
X78962488Y-77335718D01*
X78981782Y-77251682D01*
X78982545Y-77248115D01*
X78999389Y-77163436D01*
X79001335Y-77158738D01*
X79007682Y-77138869D01*
X79008814Y-77133937D01*
X79044124Y-77055296D01*
X79045576Y-77051931D01*
X79078616Y-76972165D01*
X79081442Y-76967935D01*
X79091538Y-76949694D01*
X79093612Y-76945074D01*
X79143586Y-76874832D01*
X79145666Y-76871815D01*
X79193631Y-76800031D01*
X79197233Y-76796429D01*
X79210689Y-76780514D01*
X79213629Y-76776381D01*
X79276385Y-76717201D01*
X79278963Y-76714699D01*
X79340027Y-76653635D01*
X79344260Y-76650807D01*
X79360560Y-76637824D01*
X79364250Y-76634344D01*
X79437322Y-76588560D01*
X79440373Y-76586585D01*
X79512163Y-76538617D01*
X79512168Y-76538615D01*
X79514268Y-76537745D01*
X79516865Y-76536669D01*
X79535392Y-76527112D01*
X79539684Y-76524423D01*
X79620285Y-76493773D01*
X79623691Y-76492420D01*
X79703434Y-76459390D01*
X79708419Y-76458398D01*
X79728456Y-76452639D01*
X79733197Y-76450836D01*
X79752978Y-76447501D01*
X79818244Y-76436497D01*
X79821848Y-76435835D01*
X79906484Y-76419000D01*
X79911562Y-76419000D01*
X79932344Y-76417260D01*
X79937344Y-76416417D01*
X80023563Y-76418946D01*
G37*
G36*
X118123563Y-76418946D02*
G01*
X118127228Y-76419000D01*
X118213515Y-76419000D01*
X118218498Y-76419991D01*
X118239213Y-76422338D01*
X118242650Y-76422439D01*
X118244283Y-76422487D01*
X118328355Y-76441789D01*
X118331925Y-76442553D01*
X118416567Y-76459389D01*
X118421259Y-76461333D01*
X118441122Y-76467678D01*
X118446062Y-76468812D01*
X118524746Y-76504141D01*
X118528111Y-76505593D01*
X118573570Y-76524423D01*
X118607833Y-76538615D01*
X118607837Y-76538617D01*
X118612055Y-76541435D01*
X118630296Y-76551533D01*
X118634927Y-76553612D01*
X118705232Y-76603631D01*
X118708225Y-76605694D01*
X118779971Y-76653633D01*
X118783565Y-76657227D01*
X118799474Y-76670678D01*
X118803620Y-76673628D01*
X118862833Y-76736420D01*
X118865335Y-76738997D01*
X118926365Y-76800027D01*
X118929185Y-76804247D01*
X118929185Y-76804248D01*
X118942170Y-76820552D01*
X118945657Y-76824249D01*
X118977350Y-76874832D01*
X118991450Y-76897336D01*
X118993441Y-76900412D01*
X119041383Y-76972163D01*
X119043325Y-76976851D01*
X119052888Y-76995391D01*
X119055579Y-76999685D01*
X119063368Y-77020168D01*
X119086246Y-77080332D01*
X119087596Y-77083731D01*
X119120610Y-77163432D01*
X119121599Y-77168407D01*
X119127359Y-77188446D01*
X119129165Y-77193196D01*
X119143521Y-77278350D01*
X119144169Y-77281872D01*
X119161000Y-77366486D01*
X119161000Y-77429497D01*
X119161296Y-77438085D01*
X119176004Y-77651365D01*
X119193343Y-77902791D01*
X119195449Y-77918577D01*
X119201000Y-77946484D01*
X119201000Y-78009515D01*
X119201296Y-78018115D01*
X119202061Y-78029205D01*
X119201054Y-78063529D01*
X119201000Y-78067194D01*
X119201000Y-78153514D01*
X119200007Y-78158505D01*
X119197660Y-78179225D01*
X119197512Y-78184281D01*
X119178684Y-78266291D01*
X119175569Y-78290596D01*
X119176960Y-78313211D01*
X119184891Y-78364890D01*
X119185836Y-78370255D01*
X119194446Y-78413538D01*
X119201000Y-78446486D01*
X119201000Y-78460321D01*
X119202445Y-78479275D01*
X119204534Y-78492884D01*
X119201120Y-78570305D01*
X119201000Y-78575774D01*
X119201000Y-78653514D01*
X119198299Y-78667092D01*
X119196021Y-78685949D01*
X119195414Y-78699713D01*
X119176964Y-78774967D01*
X119175781Y-78780301D01*
X119160611Y-78856562D01*
X119155312Y-78869356D01*
X119149395Y-78887422D01*
X119146118Y-78900787D01*
X119113341Y-78970998D01*
X119111139Y-78976000D01*
X119089941Y-79027176D01*
X119081384Y-79047835D01*
X119075551Y-79056564D01*
X119073693Y-79059345D01*
X119064362Y-79075915D01*
X119058542Y-79088381D01*
X119047386Y-79103582D01*
X119012719Y-79150818D01*
X119009559Y-79155329D01*
X118966365Y-79219973D01*
X118915586Y-79270752D01*
X118910936Y-79275662D01*
X117678202Y-80649565D01*
X117667307Y-80663598D01*
X117656367Y-80679971D01*
X117605740Y-80730598D01*
X117601100Y-80735496D01*
X117587796Y-80750324D01*
X117587791Y-80750329D01*
X117568741Y-80767770D01*
X117564761Y-80771577D01*
X117509971Y-80826367D01*
X117498531Y-80834011D01*
X117483569Y-80845748D01*
X117473362Y-80855092D01*
X117406890Y-80895389D01*
X117402264Y-80898334D01*
X117337835Y-80941384D01*
X117337834Y-80941385D01*
X117337833Y-80941385D01*
X117325115Y-80946653D01*
X117308151Y-80955246D01*
X117296325Y-80962415D01*
X117223297Y-80988959D01*
X117218163Y-80990954D01*
X117146565Y-81020611D01*
X117133056Y-81023298D01*
X117114745Y-81028415D01*
X117101753Y-81033137D01*
X117101750Y-81033138D01*
X117024931Y-81044927D01*
X117019543Y-81045877D01*
X116943514Y-81061000D01*
X116929738Y-81061000D01*
X116910776Y-81062447D01*
X116897120Y-81064543D01*
X116897116Y-81064543D01*
X116819508Y-81061121D01*
X116814023Y-81061000D01*
X116736483Y-81061000D01*
X116722964Y-81058311D01*
X116704093Y-81056031D01*
X116690289Y-81055422D01*
X116637621Y-81042510D01*
X116614889Y-81036937D01*
X116609513Y-81035744D01*
X116533437Y-81020611D01*
X116520695Y-81015333D01*
X116502621Y-81009413D01*
X116489217Y-81006127D01*
X116475611Y-80999775D01*
X116418883Y-80973293D01*
X116413854Y-80971079D01*
X116342164Y-80941384D01*
X116330688Y-80933716D01*
X116314131Y-80924391D01*
X116301621Y-80918551D01*
X116239055Y-80872634D01*
X116234568Y-80869490D01*
X116170029Y-80826367D01*
X116160264Y-80816602D01*
X116145833Y-80804217D01*
X116134717Y-80796059D01*
X116082344Y-80738854D01*
X116078536Y-80734874D01*
X116023634Y-80679972D01*
X116015962Y-80668490D01*
X116004225Y-80653529D01*
X115994918Y-80643363D01*
X115954722Y-80577057D01*
X115951764Y-80572412D01*
X115908617Y-80507837D01*
X115903326Y-80495064D01*
X115894734Y-80478102D01*
X115887593Y-80466322D01*
X115861118Y-80393483D01*
X115859123Y-80388348D01*
X115829389Y-80316564D01*
X115826691Y-80303001D01*
X115821573Y-80284686D01*
X115816872Y-80271753D01*
X115816871Y-80271749D01*
X115805113Y-80195132D01*
X115804163Y-80189742D01*
X115789000Y-80113514D01*
X115789000Y-80099679D01*
X115787554Y-80080718D01*
X115786740Y-80075412D01*
X115785466Y-80067115D01*
X115788879Y-79989711D01*
X115789000Y-79984226D01*
X115789000Y-79925999D01*
X115786598Y-79901613D01*
X115779485Y-79878164D01*
X115767934Y-79856553D01*
X115752389Y-79837611D01*
X115733447Y-79822066D01*
X115711836Y-79810515D01*
X115688387Y-79803402D01*
X115664001Y-79801000D01*
X115546484Y-79801000D01*
X115343436Y-79760611D01*
X115152167Y-79681385D01*
X115152166Y-79681385D01*
X115152165Y-79681384D01*
X114980027Y-79566365D01*
X114833635Y-79419973D01*
X114718616Y-79247835D01*
X114690458Y-79179855D01*
X114639389Y-79056564D01*
X114599000Y-78853516D01*
X114599000Y-78646484D01*
X114639389Y-78443436D01*
X114718615Y-78252167D01*
X114724450Y-78243435D01*
X114833635Y-78080027D01*
X114980027Y-77933635D01*
X115152165Y-77818616D01*
X115154067Y-77817828D01*
X115343436Y-77739389D01*
X115546484Y-77699000D01*
X115753516Y-77699000D01*
X115956564Y-77739389D01*
X116145933Y-77817828D01*
X116147835Y-77818616D01*
X116319973Y-77933635D01*
X116466365Y-78080027D01*
X116575551Y-78243435D01*
X116581385Y-78252167D01*
X116639276Y-78391927D01*
X116650827Y-78413538D01*
X116666373Y-78432480D01*
X116685315Y-78448025D01*
X116706925Y-78459576D01*
X116730374Y-78466689D01*
X116754760Y-78469091D01*
X116779146Y-78466689D01*
X116802595Y-78459576D01*
X116824206Y-78448025D01*
X116847798Y-78427570D01*
X117067039Y-78183221D01*
X117081537Y-78163466D01*
X117091903Y-78141263D01*
X117097738Y-78117463D01*
X117099000Y-78099743D01*
X117099000Y-78090503D01*
X117098704Y-78081903D01*
X117098575Y-78080027D01*
X117081410Y-77831127D01*
X117066657Y-77617209D01*
X117064551Y-77601423D01*
X117059000Y-77573516D01*
X117059000Y-77510485D01*
X117058704Y-77501885D01*
X117057939Y-77490795D01*
X117058946Y-77456471D01*
X117059000Y-77452806D01*
X117059000Y-77366486D01*
X117059993Y-77361495D01*
X117062340Y-77340775D01*
X117062488Y-77335721D01*
X117062488Y-77335718D01*
X117081782Y-77251682D01*
X117082545Y-77248115D01*
X117099389Y-77163436D01*
X117101335Y-77158738D01*
X117107682Y-77138869D01*
X117108814Y-77133937D01*
X117144124Y-77055296D01*
X117145576Y-77051931D01*
X117178616Y-76972165D01*
X117181442Y-76967935D01*
X117191538Y-76949694D01*
X117193612Y-76945074D01*
X117243586Y-76874832D01*
X117245666Y-76871815D01*
X117293631Y-76800031D01*
X117297233Y-76796429D01*
X117310689Y-76780514D01*
X117313629Y-76776381D01*
X117376385Y-76717201D01*
X117378963Y-76714699D01*
X117440027Y-76653635D01*
X117444260Y-76650807D01*
X117460560Y-76637824D01*
X117464250Y-76634344D01*
X117537322Y-76588560D01*
X117540373Y-76586585D01*
X117612163Y-76538617D01*
X117612168Y-76538615D01*
X117614268Y-76537745D01*
X117616865Y-76536669D01*
X117635392Y-76527112D01*
X117639684Y-76524423D01*
X117720285Y-76493773D01*
X117723691Y-76492420D01*
X117803434Y-76459390D01*
X117808419Y-76458398D01*
X117828456Y-76452639D01*
X117833197Y-76450836D01*
X117852978Y-76447501D01*
X117918244Y-76436497D01*
X117921848Y-76435835D01*
X118006484Y-76419000D01*
X118011562Y-76419000D01*
X118032344Y-76417260D01*
X118037344Y-76416417D01*
X118123563Y-76418946D01*
G37*
G36*
X123267656Y-76417260D02*
G01*
X123288438Y-76419000D01*
X123293516Y-76419000D01*
X123378152Y-76435835D01*
X123381756Y-76436497D01*
X123466804Y-76450836D01*
X123471550Y-76452641D01*
X123491581Y-76458398D01*
X123496568Y-76459390D01*
X123576294Y-76492413D01*
X123579699Y-76493766D01*
X123660314Y-76524421D01*
X123664610Y-76527113D01*
X123683141Y-76536671D01*
X123687835Y-76538615D01*
X123759603Y-76586569D01*
X123762679Y-76588560D01*
X123786703Y-76603613D01*
X123835750Y-76634344D01*
X123839443Y-76637827D01*
X123855743Y-76650809D01*
X123859973Y-76653635D01*
X123921030Y-76714692D01*
X123923622Y-76717208D01*
X123986371Y-76776381D01*
X123989311Y-76780514D01*
X124002767Y-76796429D01*
X124006369Y-76800031D01*
X124054334Y-76871815D01*
X124056414Y-76874832D01*
X124106388Y-76945074D01*
X124108462Y-76949694D01*
X124118558Y-76967935D01*
X124121384Y-76972165D01*
X124154424Y-77051931D01*
X124155876Y-77055296D01*
X124191186Y-77133937D01*
X124192318Y-77138869D01*
X124198665Y-77158738D01*
X124200611Y-77163436D01*
X124217455Y-77248115D01*
X124218215Y-77251667D01*
X124237512Y-77335717D01*
X124237512Y-77335721D01*
X124237660Y-77340775D01*
X124240007Y-77361495D01*
X124241000Y-77366486D01*
X124241000Y-77452806D01*
X124241054Y-77456471D01*
X124242061Y-77490795D01*
X124241296Y-77501885D01*
X124241000Y-77510485D01*
X124241000Y-77573516D01*
X124235449Y-77601423D01*
X124233343Y-77617209D01*
X124218590Y-77831127D01*
X124201426Y-78080027D01*
X124201296Y-78081903D01*
X124201000Y-78090503D01*
X124201000Y-78153514D01*
X124184169Y-78238128D01*
X124183521Y-78241650D01*
X124176664Y-78282323D01*
X124174980Y-78306757D01*
X124177328Y-78327478D01*
X124201000Y-78446484D01*
X124201000Y-78474090D01*
X124203402Y-78498476D01*
X124210515Y-78521925D01*
X124222066Y-78543536D01*
X124232961Y-78557568D01*
X124360501Y-78699714D01*
X124509981Y-78866311D01*
X124520280Y-78877790D01*
X124538353Y-78894337D01*
X124559308Y-78907040D01*
X124582338Y-78915411D01*
X124606558Y-78919128D01*
X124631039Y-78918049D01*
X124654838Y-78912214D01*
X124677042Y-78901848D01*
X124696796Y-78887350D01*
X124713343Y-78869277D01*
X124726046Y-78848322D01*
X124734417Y-78825292D01*
X124738134Y-78801072D01*
X124737055Y-78776591D01*
X124734725Y-78764563D01*
X124702639Y-78633688D01*
X124698853Y-78547835D01*
X124696121Y-78485895D01*
X124718561Y-78339678D01*
X124769097Y-78200643D01*
X124794646Y-78158498D01*
X124845786Y-78074139D01*
X124945681Y-77965026D01*
X125064944Y-77877499D01*
X125081177Y-77869921D01*
X125198988Y-77814922D01*
X125198990Y-77814921D01*
X125342669Y-77779696D01*
X125422059Y-77776195D01*
X125490462Y-77773178D01*
X125636679Y-77795618D01*
X125759699Y-77840333D01*
X125775714Y-77846154D01*
X125902218Y-77922843D01*
X125902219Y-77922844D01*
X125962193Y-77977751D01*
X125983992Y-77997709D01*
X126112796Y-78141263D01*
X126433961Y-78499205D01*
X126499560Y-78588589D01*
X126529870Y-78653516D01*
X126562137Y-78722632D01*
X126597361Y-78866311D01*
X126599385Y-78912214D01*
X126603879Y-79014106D01*
X126581439Y-79160319D01*
X126581438Y-79160323D01*
X126530903Y-79299358D01*
X126530902Y-79299360D01*
X126454213Y-79425863D01*
X126354319Y-79534974D01*
X126235058Y-79622501D01*
X126138839Y-79667420D01*
X126101010Y-79685080D01*
X125957331Y-79720304D01*
X125879680Y-79723728D01*
X125809537Y-79726822D01*
X125663323Y-79704382D01*
X125663320Y-79704381D01*
X125524285Y-79653846D01*
X125524283Y-79653845D01*
X125504999Y-79642155D01*
X125482901Y-79631567D01*
X125459161Y-79625494D01*
X125434693Y-79624168D01*
X125410436Y-79627642D01*
X125387323Y-79635781D01*
X125366242Y-79648273D01*
X125348004Y-79664638D01*
X125333308Y-79684246D01*
X125322720Y-79706344D01*
X125316647Y-79730084D01*
X125315321Y-79754552D01*
X125318795Y-79778809D01*
X125326932Y-79801914D01*
X125386134Y-79928729D01*
X125423704Y-80081975D01*
X125430418Y-80234241D01*
X125430655Y-80239608D01*
X125406721Y-80395562D01*
X125352821Y-80543853D01*
X125301927Y-80627806D01*
X125271025Y-80678780D01*
X125164479Y-80795156D01*
X125164475Y-80795159D01*
X125164474Y-80795160D01*
X125037274Y-80888513D01*
X124894303Y-80955258D01*
X124844531Y-80967460D01*
X124741057Y-80992828D01*
X124583427Y-80999779D01*
X124583424Y-80999779D01*
X124427470Y-80975845D01*
X124279179Y-80921945D01*
X124209837Y-80879908D01*
X124144252Y-80840149D01*
X124129196Y-80826365D01*
X124057036Y-80760301D01*
X123038228Y-79624821D01*
X123020155Y-79608274D01*
X122999200Y-79595571D01*
X122969576Y-79585702D01*
X122843436Y-79560611D01*
X122652167Y-79481385D01*
X122652166Y-79481385D01*
X122652165Y-79481384D01*
X122480027Y-79366365D01*
X122333635Y-79219973D01*
X122218616Y-79047835D01*
X122210059Y-79027176D01*
X122139389Y-78856564D01*
X122099000Y-78653516D01*
X122099000Y-78446484D01*
X122123287Y-78324386D01*
X122125689Y-78300000D01*
X122123286Y-78275606D01*
X122122544Y-78271877D01*
X122121778Y-78268301D01*
X122102488Y-78184282D01*
X122102340Y-78179221D01*
X122099993Y-78158505D01*
X122099000Y-78153514D01*
X122099000Y-78067194D01*
X122098946Y-78063529D01*
X122097939Y-78029205D01*
X122098704Y-78018115D01*
X122099000Y-78009515D01*
X122099000Y-77946484D01*
X122104551Y-77918577D01*
X122106657Y-77902791D01*
X122124680Y-77641449D01*
X122138704Y-77438085D01*
X122139000Y-77429497D01*
X122139000Y-77366486D01*
X122155831Y-77281872D01*
X122156483Y-77278325D01*
X122170836Y-77193195D01*
X122172640Y-77188452D01*
X122178401Y-77168407D01*
X122179391Y-77163432D01*
X122212401Y-77083738D01*
X122213754Y-77080332D01*
X122213757Y-77080325D01*
X122244421Y-76999685D01*
X122247114Y-76995387D01*
X122256676Y-76976849D01*
X122258617Y-76972162D01*
X122306549Y-76900427D01*
X122308540Y-76897351D01*
X122311821Y-76892115D01*
X122354343Y-76824249D01*
X122357826Y-76820556D01*
X122370814Y-76804247D01*
X122373631Y-76800031D01*
X122434649Y-76739013D01*
X122437183Y-76736403D01*
X122496380Y-76673628D01*
X122500516Y-76670685D01*
X122516438Y-76657224D01*
X122520028Y-76653634D01*
X122591766Y-76605700D01*
X122594736Y-76603652D01*
X122665073Y-76553611D01*
X122669713Y-76551528D01*
X122687945Y-76541435D01*
X122692163Y-76538617D01*
X122692168Y-76538615D01*
X122726430Y-76524423D01*
X122771872Y-76505600D01*
X122775237Y-76504148D01*
X122853934Y-76468813D01*
X122858878Y-76467678D01*
X122858883Y-76467677D01*
X122878746Y-76461331D01*
X122883433Y-76459389D01*
X122968061Y-76442556D01*
X122971612Y-76441796D01*
X123055717Y-76422487D01*
X123057198Y-76422444D01*
X123060787Y-76422338D01*
X123081502Y-76419991D01*
X123086485Y-76419000D01*
X123172772Y-76419000D01*
X123176437Y-76418946D01*
X123262656Y-76416417D01*
X123267656Y-76417260D01*
G37*
G36*
X85167656Y-76417260D02*
G01*
X85188438Y-76419000D01*
X85193516Y-76419000D01*
X85278152Y-76435835D01*
X85281756Y-76436497D01*
X85366804Y-76450836D01*
X85371550Y-76452641D01*
X85391581Y-76458398D01*
X85396568Y-76459390D01*
X85476294Y-76492413D01*
X85479699Y-76493766D01*
X85560314Y-76524421D01*
X85564610Y-76527113D01*
X85583141Y-76536671D01*
X85587835Y-76538615D01*
X85659603Y-76586569D01*
X85662679Y-76588560D01*
X85686703Y-76603613D01*
X85735750Y-76634344D01*
X85739443Y-76637827D01*
X85755743Y-76650809D01*
X85759973Y-76653635D01*
X85821030Y-76714692D01*
X85823622Y-76717208D01*
X85886371Y-76776381D01*
X85889311Y-76780514D01*
X85902767Y-76796429D01*
X85906369Y-76800031D01*
X85954334Y-76871815D01*
X85956414Y-76874832D01*
X86006388Y-76945074D01*
X86008462Y-76949694D01*
X86018558Y-76967935D01*
X86021384Y-76972165D01*
X86054424Y-77051931D01*
X86055876Y-77055296D01*
X86091186Y-77133937D01*
X86092318Y-77138869D01*
X86098665Y-77158738D01*
X86100611Y-77163436D01*
X86117455Y-77248115D01*
X86118215Y-77251667D01*
X86137512Y-77335717D01*
X86137512Y-77335721D01*
X86137660Y-77340775D01*
X86140007Y-77361495D01*
X86141000Y-77366486D01*
X86141000Y-77452806D01*
X86141054Y-77456471D01*
X86142061Y-77490795D01*
X86141296Y-77501885D01*
X86141000Y-77510485D01*
X86141000Y-77573516D01*
X86135449Y-77601423D01*
X86133343Y-77617209D01*
X86118590Y-77831127D01*
X86101426Y-78080027D01*
X86101296Y-78081903D01*
X86101000Y-78090503D01*
X86101000Y-78153514D01*
X86084169Y-78238128D01*
X86083521Y-78241650D01*
X86076664Y-78282323D01*
X86074980Y-78306757D01*
X86077328Y-78327478D01*
X86101000Y-78446484D01*
X86101000Y-78474090D01*
X86103402Y-78498476D01*
X86110515Y-78521925D01*
X86122066Y-78543536D01*
X86132961Y-78557568D01*
X86260501Y-78699714D01*
X86409981Y-78866311D01*
X86420280Y-78877790D01*
X86438353Y-78894337D01*
X86459308Y-78907040D01*
X86482338Y-78915411D01*
X86506558Y-78919128D01*
X86531039Y-78918049D01*
X86554838Y-78912214D01*
X86577042Y-78901848D01*
X86596796Y-78887350D01*
X86613343Y-78869277D01*
X86626046Y-78848322D01*
X86634417Y-78825292D01*
X86638134Y-78801072D01*
X86637055Y-78776591D01*
X86634725Y-78764563D01*
X86602639Y-78633688D01*
X86598853Y-78547835D01*
X86596121Y-78485895D01*
X86618561Y-78339678D01*
X86669097Y-78200643D01*
X86694646Y-78158498D01*
X86745786Y-78074139D01*
X86845681Y-77965026D01*
X86964944Y-77877499D01*
X86981177Y-77869921D01*
X87098988Y-77814922D01*
X87098990Y-77814921D01*
X87242669Y-77779696D01*
X87322059Y-77776195D01*
X87390462Y-77773178D01*
X87536679Y-77795618D01*
X87659699Y-77840333D01*
X87675714Y-77846154D01*
X87802218Y-77922843D01*
X87802219Y-77922844D01*
X87862193Y-77977751D01*
X87883992Y-77997709D01*
X88012796Y-78141263D01*
X88333961Y-78499205D01*
X88399560Y-78588589D01*
X88429870Y-78653516D01*
X88462137Y-78722632D01*
X88497361Y-78866311D01*
X88499385Y-78912214D01*
X88503879Y-79014106D01*
X88481439Y-79160319D01*
X88481438Y-79160323D01*
X88430903Y-79299358D01*
X88430902Y-79299360D01*
X88354213Y-79425863D01*
X88254319Y-79534974D01*
X88135058Y-79622501D01*
X88038839Y-79667420D01*
X88001010Y-79685080D01*
X87857331Y-79720304D01*
X87779680Y-79723728D01*
X87709537Y-79726822D01*
X87563323Y-79704382D01*
X87563320Y-79704381D01*
X87424285Y-79653846D01*
X87424283Y-79653845D01*
X87404999Y-79642155D01*
X87382901Y-79631567D01*
X87359161Y-79625494D01*
X87334693Y-79624168D01*
X87310436Y-79627642D01*
X87287323Y-79635781D01*
X87266242Y-79648273D01*
X87248004Y-79664638D01*
X87233308Y-79684246D01*
X87222720Y-79706344D01*
X87216647Y-79730084D01*
X87215321Y-79754552D01*
X87218795Y-79778809D01*
X87226932Y-79801914D01*
X87286134Y-79928729D01*
X87323704Y-80081975D01*
X87330418Y-80234241D01*
X87330655Y-80239608D01*
X87306721Y-80395562D01*
X87252821Y-80543853D01*
X87201927Y-80627806D01*
X87171025Y-80678780D01*
X87064479Y-80795156D01*
X87064475Y-80795159D01*
X87064474Y-80795160D01*
X86937274Y-80888513D01*
X86794303Y-80955258D01*
X86744531Y-80967460D01*
X86641057Y-80992828D01*
X86483427Y-80999779D01*
X86483424Y-80999779D01*
X86327470Y-80975845D01*
X86179179Y-80921945D01*
X86109837Y-80879908D01*
X86044252Y-80840149D01*
X86029196Y-80826365D01*
X85957036Y-80760301D01*
X84938228Y-79624821D01*
X84920155Y-79608274D01*
X84899200Y-79595571D01*
X84869576Y-79585702D01*
X84743436Y-79560611D01*
X84552167Y-79481385D01*
X84552166Y-79481385D01*
X84552165Y-79481384D01*
X84380027Y-79366365D01*
X84233635Y-79219973D01*
X84118616Y-79047835D01*
X84110059Y-79027176D01*
X84039389Y-78856564D01*
X83999000Y-78653516D01*
X83999000Y-78446484D01*
X84023287Y-78324386D01*
X84025689Y-78300000D01*
X84023286Y-78275606D01*
X84022544Y-78271877D01*
X84021778Y-78268301D01*
X84002488Y-78184282D01*
X84002340Y-78179221D01*
X83999993Y-78158505D01*
X83999000Y-78153514D01*
X83999000Y-78067194D01*
X83998946Y-78063529D01*
X83997939Y-78029205D01*
X83998704Y-78018115D01*
X83999000Y-78009515D01*
X83999000Y-77946484D01*
X84004551Y-77918577D01*
X84006657Y-77902791D01*
X84024680Y-77641449D01*
X84038704Y-77438085D01*
X84039000Y-77429497D01*
X84039000Y-77366486D01*
X84055831Y-77281872D01*
X84056483Y-77278325D01*
X84070836Y-77193195D01*
X84072640Y-77188452D01*
X84078401Y-77168407D01*
X84079391Y-77163432D01*
X84112401Y-77083738D01*
X84113754Y-77080332D01*
X84113757Y-77080325D01*
X84144421Y-76999685D01*
X84147114Y-76995387D01*
X84156676Y-76976849D01*
X84158617Y-76972162D01*
X84206549Y-76900427D01*
X84208540Y-76897351D01*
X84211821Y-76892115D01*
X84254343Y-76824249D01*
X84257826Y-76820556D01*
X84270814Y-76804247D01*
X84273631Y-76800031D01*
X84334649Y-76739013D01*
X84337183Y-76736403D01*
X84396380Y-76673628D01*
X84400516Y-76670685D01*
X84416438Y-76657224D01*
X84420028Y-76653634D01*
X84491766Y-76605700D01*
X84494736Y-76603652D01*
X84565073Y-76553611D01*
X84569713Y-76551528D01*
X84587945Y-76541435D01*
X84592163Y-76538617D01*
X84592168Y-76538615D01*
X84626430Y-76524423D01*
X84671872Y-76505600D01*
X84675237Y-76504148D01*
X84753934Y-76468813D01*
X84758878Y-76467678D01*
X84758883Y-76467677D01*
X84778746Y-76461331D01*
X84783433Y-76459389D01*
X84868061Y-76442556D01*
X84871612Y-76441796D01*
X84955717Y-76422487D01*
X84957198Y-76422444D01*
X84960787Y-76422338D01*
X84981502Y-76419991D01*
X84986485Y-76419000D01*
X85072772Y-76419000D01*
X85076437Y-76418946D01*
X85162656Y-76416417D01*
X85167656Y-76417260D01*
G37*
G36*
X63806564Y-78814389D02*
G01*
X63982901Y-78887430D01*
X63997835Y-78893616D01*
X64169973Y-79008635D01*
X64316365Y-79155027D01*
X64416881Y-79305459D01*
X64431385Y-79327167D01*
X64510611Y-79518436D01*
X64551000Y-79721484D01*
X64551000Y-79928516D01*
X64510611Y-80131564D01*
X64437141Y-80308937D01*
X64431384Y-80322835D01*
X64316365Y-80494973D01*
X64169973Y-80641365D01*
X63997835Y-80756384D01*
X63997834Y-80756385D01*
X63997833Y-80756385D01*
X63806564Y-80835611D01*
X63603516Y-80876000D01*
X63396484Y-80876000D01*
X63193436Y-80835611D01*
X63002167Y-80756385D01*
X63002166Y-80756385D01*
X63002165Y-80756384D01*
X62830027Y-80641365D01*
X62683635Y-80494973D01*
X62568616Y-80322835D01*
X62562859Y-80308937D01*
X62489389Y-80131564D01*
X62449000Y-79928516D01*
X62449000Y-79721484D01*
X62489389Y-79518436D01*
X62568615Y-79327167D01*
X62583120Y-79305459D01*
X62683635Y-79155027D01*
X62830027Y-79008635D01*
X63002165Y-78893616D01*
X63017099Y-78887430D01*
X63193436Y-78814389D01*
X63396484Y-78774000D01*
X63603516Y-78774000D01*
X63806564Y-78814389D01*
G37*
G36*
X140703884Y-77640225D02*
G01*
X140845780Y-77699000D01*
X140893407Y-77718728D01*
X141063973Y-77832697D01*
X141209027Y-77977751D01*
X141322996Y-78148317D01*
X141322997Y-78148319D01*
X141401499Y-78337840D01*
X141441519Y-78539035D01*
X141441519Y-78744175D01*
X141401499Y-78945370D01*
X141335966Y-79103582D01*
X141322996Y-79134893D01*
X141209027Y-79305459D01*
X141063973Y-79450513D01*
X140893407Y-79564482D01*
X140893406Y-79564483D01*
X140893405Y-79564483D01*
X140703884Y-79642985D01*
X140502689Y-79683005D01*
X140297549Y-79683005D01*
X140096354Y-79642985D01*
X139906833Y-79564483D01*
X139906832Y-79564483D01*
X139906831Y-79564482D01*
X139736265Y-79450513D01*
X139591211Y-79305459D01*
X139477242Y-79134893D01*
X139464273Y-79103582D01*
X139398739Y-78945370D01*
X139358719Y-78744175D01*
X139358719Y-78539035D01*
X139398739Y-78337840D01*
X139477241Y-78148319D01*
X139477242Y-78148317D01*
X139591211Y-77977751D01*
X139736265Y-77832697D01*
X139906831Y-77718728D01*
X139954459Y-77699000D01*
X140096354Y-77640225D01*
X140297549Y-77600205D01*
X140502689Y-77600205D01*
X140703884Y-77640225D01*
G37*
G36*
X99073563Y-73243946D02*
G01*
X99077228Y-73244000D01*
X99163515Y-73244000D01*
X99168498Y-73244991D01*
X99189213Y-73247338D01*
X99192650Y-73247439D01*
X99194283Y-73247487D01*
X99278355Y-73266789D01*
X99281925Y-73267553D01*
X99366567Y-73284389D01*
X99371259Y-73286333D01*
X99391122Y-73292678D01*
X99396062Y-73293812D01*
X99474746Y-73329141D01*
X99478111Y-73330593D01*
X99523570Y-73349423D01*
X99557833Y-73363615D01*
X99557837Y-73363617D01*
X99562055Y-73366435D01*
X99580296Y-73376533D01*
X99584927Y-73378612D01*
X99655232Y-73428631D01*
X99658225Y-73430694D01*
X99729971Y-73478633D01*
X99733565Y-73482227D01*
X99749474Y-73495678D01*
X99753620Y-73498628D01*
X99812833Y-73561420D01*
X99815335Y-73563997D01*
X99876365Y-73625027D01*
X99879185Y-73629247D01*
X99879185Y-73629248D01*
X99892170Y-73645552D01*
X99895657Y-73649249D01*
X99927350Y-73699832D01*
X99941450Y-73722336D01*
X99943441Y-73725412D01*
X99991383Y-73797163D01*
X99993325Y-73801851D01*
X100002888Y-73820391D01*
X100005579Y-73824685D01*
X100005579Y-73824686D01*
X100036246Y-73905332D01*
X100037596Y-73908731D01*
X100070610Y-73988432D01*
X100071599Y-73993407D01*
X100077359Y-74013446D01*
X100079165Y-74018196D01*
X100093521Y-74103350D01*
X100094169Y-74106872D01*
X100111000Y-74191486D01*
X100111000Y-74254497D01*
X100111296Y-74263085D01*
X100123648Y-74442209D01*
X100143343Y-74727791D01*
X100145449Y-74743577D01*
X100151000Y-74771484D01*
X100151000Y-74834515D01*
X100151296Y-74843115D01*
X100152061Y-74854205D01*
X100151054Y-74888529D01*
X100151000Y-74892194D01*
X100151000Y-74978514D01*
X100150007Y-74983505D01*
X100147660Y-75004225D01*
X100147512Y-75009281D01*
X100128684Y-75091291D01*
X100125569Y-75115596D01*
X100126960Y-75138211D01*
X100134891Y-75189890D01*
X100135836Y-75195255D01*
X100144446Y-75238538D01*
X100151000Y-75271486D01*
X100151000Y-75285321D01*
X100152445Y-75304275D01*
X100154534Y-75317884D01*
X100151120Y-75395305D01*
X100151000Y-75400774D01*
X100151000Y-75478514D01*
X100148299Y-75492092D01*
X100146021Y-75510949D01*
X100145414Y-75524713D01*
X100126964Y-75599967D01*
X100125781Y-75605301D01*
X100110611Y-75681562D01*
X100105312Y-75694356D01*
X100099395Y-75712422D01*
X100096118Y-75725787D01*
X100063341Y-75795998D01*
X100061139Y-75801000D01*
X100039941Y-75852176D01*
X100031384Y-75872835D01*
X100025551Y-75881564D01*
X100023693Y-75884345D01*
X100014362Y-75900915D01*
X100008542Y-75913381D01*
X99997386Y-75928582D01*
X99962719Y-75975818D01*
X99959559Y-75980329D01*
X99916365Y-76044973D01*
X99865586Y-76095752D01*
X99860936Y-76100662D01*
X98628202Y-77474565D01*
X98617307Y-77488598D01*
X98606367Y-77504971D01*
X98555740Y-77555598D01*
X98551100Y-77560496D01*
X98537796Y-77575324D01*
X98537791Y-77575329D01*
X98518741Y-77592770D01*
X98514761Y-77596577D01*
X98459971Y-77651367D01*
X98448531Y-77659011D01*
X98433569Y-77670748D01*
X98423362Y-77680092D01*
X98356890Y-77720389D01*
X98352264Y-77723334D01*
X98287835Y-77766384D01*
X98287834Y-77766385D01*
X98287833Y-77766385D01*
X98275115Y-77771653D01*
X98258151Y-77780246D01*
X98246325Y-77787415D01*
X98173297Y-77813959D01*
X98168163Y-77815954D01*
X98096565Y-77845611D01*
X98083056Y-77848298D01*
X98064745Y-77853415D01*
X98051753Y-77858137D01*
X98051750Y-77858138D01*
X97974931Y-77869927D01*
X97969543Y-77870877D01*
X97893514Y-77886000D01*
X97879738Y-77886000D01*
X97860776Y-77887447D01*
X97847120Y-77889543D01*
X97847116Y-77889543D01*
X97769508Y-77886121D01*
X97764023Y-77886000D01*
X97686483Y-77886000D01*
X97672964Y-77883311D01*
X97654093Y-77881031D01*
X97640289Y-77880422D01*
X97587621Y-77867510D01*
X97564889Y-77861937D01*
X97559513Y-77860744D01*
X97483437Y-77845611D01*
X97470695Y-77840333D01*
X97452621Y-77834413D01*
X97439217Y-77831127D01*
X97425611Y-77824775D01*
X97368883Y-77798293D01*
X97363854Y-77796079D01*
X97292164Y-77766384D01*
X97280688Y-77758716D01*
X97264131Y-77749391D01*
X97251621Y-77743551D01*
X97189055Y-77697634D01*
X97184568Y-77694490D01*
X97120029Y-77651367D01*
X97110264Y-77641602D01*
X97095833Y-77629217D01*
X97084717Y-77621059D01*
X97032344Y-77563854D01*
X97028536Y-77559874D01*
X96973634Y-77504972D01*
X96965962Y-77493490D01*
X96954225Y-77478529D01*
X96944918Y-77468363D01*
X96904722Y-77402057D01*
X96901764Y-77397412D01*
X96858617Y-77332837D01*
X96853326Y-77320064D01*
X96844734Y-77303102D01*
X96837593Y-77291322D01*
X96811118Y-77218483D01*
X96809123Y-77213348D01*
X96779389Y-77141564D01*
X96776691Y-77128001D01*
X96771573Y-77109686D01*
X96766872Y-77096753D01*
X96766871Y-77096749D01*
X96755113Y-77020132D01*
X96754163Y-77014742D01*
X96753003Y-77008908D01*
X96739000Y-76938514D01*
X96739000Y-76924679D01*
X96737554Y-76905718D01*
X96736740Y-76900412D01*
X96735466Y-76892115D01*
X96738879Y-76814711D01*
X96739000Y-76809226D01*
X96739000Y-76750999D01*
X96736598Y-76726613D01*
X96729485Y-76703164D01*
X96717934Y-76681553D01*
X96702389Y-76662611D01*
X96683447Y-76647066D01*
X96661836Y-76635515D01*
X96638387Y-76628402D01*
X96614001Y-76626000D01*
X96496484Y-76626000D01*
X96293436Y-76585611D01*
X96102167Y-76506385D01*
X96102166Y-76506385D01*
X96102165Y-76506384D01*
X95930027Y-76391365D01*
X95783635Y-76244973D01*
X95668616Y-76072835D01*
X95640458Y-76004855D01*
X95589389Y-75881564D01*
X95549000Y-75678516D01*
X95549000Y-75471484D01*
X95589389Y-75268436D01*
X95668615Y-75077167D01*
X95674450Y-75068435D01*
X95783635Y-74905027D01*
X95930027Y-74758635D01*
X96102165Y-74643616D01*
X96111083Y-74639922D01*
X96293436Y-74564389D01*
X96496484Y-74524000D01*
X96703516Y-74524000D01*
X96906564Y-74564389D01*
X97088917Y-74639922D01*
X97097835Y-74643616D01*
X97269973Y-74758635D01*
X97416365Y-74905027D01*
X97525551Y-75068435D01*
X97531385Y-75077167D01*
X97589276Y-75216927D01*
X97600827Y-75238538D01*
X97616373Y-75257480D01*
X97635315Y-75273025D01*
X97656925Y-75284576D01*
X97680374Y-75291689D01*
X97704760Y-75294091D01*
X97729146Y-75291689D01*
X97752595Y-75284576D01*
X97774206Y-75273025D01*
X97797798Y-75252570D01*
X98017039Y-75008221D01*
X98031537Y-74988466D01*
X98041903Y-74966263D01*
X98047738Y-74942463D01*
X98049000Y-74924743D01*
X98049000Y-74915503D01*
X98048704Y-74906903D01*
X98048575Y-74905027D01*
X98022298Y-74524000D01*
X98016657Y-74442209D01*
X98014551Y-74426423D01*
X98009000Y-74398516D01*
X98009000Y-74335485D01*
X98008704Y-74326885D01*
X98007939Y-74315795D01*
X98008946Y-74281471D01*
X98009000Y-74277806D01*
X98009000Y-74191486D01*
X98009993Y-74186495D01*
X98012340Y-74165775D01*
X98012488Y-74160721D01*
X98012488Y-74160718D01*
X98031782Y-74076682D01*
X98032545Y-74073115D01*
X98049389Y-73988436D01*
X98051335Y-73983738D01*
X98057682Y-73963869D01*
X98058814Y-73958937D01*
X98094124Y-73880296D01*
X98095576Y-73876931D01*
X98128616Y-73797165D01*
X98131442Y-73792935D01*
X98141538Y-73774694D01*
X98143612Y-73770074D01*
X98193586Y-73699832D01*
X98195666Y-73696815D01*
X98243631Y-73625031D01*
X98247233Y-73621429D01*
X98260689Y-73605514D01*
X98263629Y-73601381D01*
X98326385Y-73542201D01*
X98328963Y-73539699D01*
X98390027Y-73478635D01*
X98394260Y-73475807D01*
X98410560Y-73462824D01*
X98414250Y-73459344D01*
X98487322Y-73413560D01*
X98490373Y-73411585D01*
X98562163Y-73363617D01*
X98562168Y-73363615D01*
X98564268Y-73362745D01*
X98566865Y-73361669D01*
X98585392Y-73352112D01*
X98589684Y-73349423D01*
X98670285Y-73318773D01*
X98673691Y-73317420D01*
X98753434Y-73284390D01*
X98758419Y-73283398D01*
X98778456Y-73277639D01*
X98783197Y-73275836D01*
X98802634Y-73272559D01*
X98868244Y-73261497D01*
X98871848Y-73260835D01*
X98956484Y-73244000D01*
X98961562Y-73244000D01*
X98982344Y-73242260D01*
X98987344Y-73241417D01*
X99073563Y-73243946D01*
G37*
G36*
X104217656Y-73242260D02*
G01*
X104238438Y-73244000D01*
X104243516Y-73244000D01*
X104328152Y-73260835D01*
X104331756Y-73261497D01*
X104416804Y-73275836D01*
X104421550Y-73277641D01*
X104441581Y-73283398D01*
X104446568Y-73284390D01*
X104526294Y-73317413D01*
X104529699Y-73318766D01*
X104610314Y-73349421D01*
X104614610Y-73352113D01*
X104633141Y-73361671D01*
X104637835Y-73363615D01*
X104709603Y-73411569D01*
X104712679Y-73413560D01*
X104736703Y-73428613D01*
X104785750Y-73459344D01*
X104789443Y-73462827D01*
X104805743Y-73475809D01*
X104809973Y-73478635D01*
X104871030Y-73539692D01*
X104873622Y-73542208D01*
X104936371Y-73601381D01*
X104939311Y-73605514D01*
X104952767Y-73621429D01*
X104956369Y-73625031D01*
X105004334Y-73696815D01*
X105006414Y-73699832D01*
X105056388Y-73770074D01*
X105058462Y-73774694D01*
X105068558Y-73792935D01*
X105071384Y-73797165D01*
X105104424Y-73876931D01*
X105105876Y-73880296D01*
X105141186Y-73958937D01*
X105142318Y-73963869D01*
X105148665Y-73983738D01*
X105150611Y-73988436D01*
X105167455Y-74073115D01*
X105168215Y-74076667D01*
X105187512Y-74160717D01*
X105187512Y-74160721D01*
X105187660Y-74165775D01*
X105190007Y-74186495D01*
X105191000Y-74191486D01*
X105191000Y-74277806D01*
X105191054Y-74281471D01*
X105192061Y-74315795D01*
X105191296Y-74326885D01*
X105191000Y-74335485D01*
X105191000Y-74398516D01*
X105185449Y-74426423D01*
X105183343Y-74442209D01*
X105177702Y-74524000D01*
X105151426Y-74905027D01*
X105151296Y-74906903D01*
X105151000Y-74915503D01*
X105151000Y-74978514D01*
X105134169Y-75063128D01*
X105133521Y-75066650D01*
X105126664Y-75107323D01*
X105124980Y-75131757D01*
X105127328Y-75152478D01*
X105151000Y-75271484D01*
X105151000Y-75299090D01*
X105153402Y-75323476D01*
X105160515Y-75346925D01*
X105172066Y-75368536D01*
X105182961Y-75382568D01*
X105310501Y-75524714D01*
X105459981Y-75691311D01*
X105470280Y-75702790D01*
X105488353Y-75719337D01*
X105509308Y-75732040D01*
X105532338Y-75740411D01*
X105556558Y-75744128D01*
X105581039Y-75743049D01*
X105604838Y-75737214D01*
X105627042Y-75726848D01*
X105646796Y-75712350D01*
X105663343Y-75694277D01*
X105676046Y-75673322D01*
X105684417Y-75650292D01*
X105688134Y-75626072D01*
X105687055Y-75601591D01*
X105684725Y-75589563D01*
X105652639Y-75458688D01*
X105648853Y-75372835D01*
X105646121Y-75310895D01*
X105668561Y-75164678D01*
X105719097Y-75025643D01*
X105744646Y-74983498D01*
X105795786Y-74899139D01*
X105895681Y-74790026D01*
X106014944Y-74702499D01*
X106148990Y-74639921D01*
X106292669Y-74604696D01*
X106372059Y-74601195D01*
X106440462Y-74598178D01*
X106586679Y-74620618D01*
X106725714Y-74671154D01*
X106852218Y-74747843D01*
X106852219Y-74747844D01*
X106901362Y-74792835D01*
X106933992Y-74822709D01*
X107062796Y-74966263D01*
X107383961Y-75324205D01*
X107449560Y-75413589D01*
X107479870Y-75478516D01*
X107512137Y-75547632D01*
X107547361Y-75691311D01*
X107549385Y-75737214D01*
X107553879Y-75839106D01*
X107531439Y-75985319D01*
X107531438Y-75985323D01*
X107480903Y-76124358D01*
X107480902Y-76124360D01*
X107404213Y-76250863D01*
X107304319Y-76359974D01*
X107185058Y-76447501D01*
X107088839Y-76492420D01*
X107051010Y-76510080D01*
X106907331Y-76545304D01*
X106829680Y-76548728D01*
X106759537Y-76551822D01*
X106613323Y-76529382D01*
X106613320Y-76529381D01*
X106474285Y-76478846D01*
X106474283Y-76478845D01*
X106454999Y-76467155D01*
X106432901Y-76456567D01*
X106409161Y-76450494D01*
X106384693Y-76449168D01*
X106360436Y-76452642D01*
X106337323Y-76460781D01*
X106316242Y-76473273D01*
X106298004Y-76489638D01*
X106283308Y-76509246D01*
X106272720Y-76531344D01*
X106266647Y-76555084D01*
X106265321Y-76579552D01*
X106268795Y-76603809D01*
X106276932Y-76626914D01*
X106336134Y-76753729D01*
X106373704Y-76906975D01*
X106380418Y-77059241D01*
X106380655Y-77064608D01*
X106356721Y-77220562D01*
X106302821Y-77368853D01*
X106251927Y-77452806D01*
X106221025Y-77503780D01*
X106114479Y-77620156D01*
X106114475Y-77620159D01*
X106114474Y-77620160D01*
X105987274Y-77713513D01*
X105844303Y-77780258D01*
X105794531Y-77792460D01*
X105691057Y-77817828D01*
X105533427Y-77824779D01*
X105533424Y-77824779D01*
X105377470Y-77800845D01*
X105229179Y-77746945D01*
X105159837Y-77704908D01*
X105094252Y-77665149D01*
X105079196Y-77651365D01*
X105007036Y-77585301D01*
X103988228Y-76449821D01*
X103970155Y-76433274D01*
X103949200Y-76420571D01*
X103919576Y-76410702D01*
X103793436Y-76385611D01*
X103602167Y-76306385D01*
X103602166Y-76306385D01*
X103602165Y-76306384D01*
X103430027Y-76191365D01*
X103283635Y-76044973D01*
X103168616Y-75872835D01*
X103160059Y-75852176D01*
X103089389Y-75681564D01*
X103049000Y-75478516D01*
X103049000Y-75271484D01*
X103073287Y-75149386D01*
X103075689Y-75125000D01*
X103073286Y-75100606D01*
X103072544Y-75096877D01*
X103071778Y-75093301D01*
X103052488Y-75009282D01*
X103052340Y-75004221D01*
X103049993Y-74983505D01*
X103049000Y-74978514D01*
X103049000Y-74892194D01*
X103048946Y-74888529D01*
X103047939Y-74854205D01*
X103048704Y-74843115D01*
X103049000Y-74834515D01*
X103049000Y-74771484D01*
X103054551Y-74743577D01*
X103056657Y-74727791D01*
X103076352Y-74442209D01*
X103088704Y-74263085D01*
X103089000Y-74254497D01*
X103089000Y-74191486D01*
X103105831Y-74106872D01*
X103106483Y-74103325D01*
X103120836Y-74018195D01*
X103122640Y-74013452D01*
X103128401Y-73993407D01*
X103129391Y-73988432D01*
X103162401Y-73908738D01*
X103163754Y-73905332D01*
X103163757Y-73905325D01*
X103194421Y-73824685D01*
X103197114Y-73820387D01*
X103206676Y-73801849D01*
X103208617Y-73797162D01*
X103256549Y-73725427D01*
X103258540Y-73722351D01*
X103258549Y-73722336D01*
X103304343Y-73649249D01*
X103307826Y-73645556D01*
X103320814Y-73629247D01*
X103323631Y-73625031D01*
X103384649Y-73564013D01*
X103387183Y-73561403D01*
X103446380Y-73498628D01*
X103450516Y-73495685D01*
X103466438Y-73482224D01*
X103470028Y-73478634D01*
X103541766Y-73430700D01*
X103544736Y-73428652D01*
X103615073Y-73378611D01*
X103619713Y-73376528D01*
X103637945Y-73366435D01*
X103642163Y-73363617D01*
X103642168Y-73363615D01*
X103676430Y-73349423D01*
X103721872Y-73330600D01*
X103725237Y-73329148D01*
X103803934Y-73293813D01*
X103808878Y-73292678D01*
X103808883Y-73292677D01*
X103828746Y-73286331D01*
X103833433Y-73284389D01*
X103918061Y-73267556D01*
X103921612Y-73266796D01*
X104005717Y-73247487D01*
X104007198Y-73247444D01*
X104010787Y-73247338D01*
X104031502Y-73244991D01*
X104036485Y-73244000D01*
X104122772Y-73244000D01*
X104126437Y-73243946D01*
X104212656Y-73241417D01*
X104217656Y-73242260D01*
G37*
G36*
X120956564Y-75639389D02*
G01*
X121132901Y-75712430D01*
X121147835Y-75718616D01*
X121319973Y-75833635D01*
X121466365Y-75980027D01*
X121509761Y-76044973D01*
X121581385Y-76152167D01*
X121660611Y-76343436D01*
X121701000Y-76546484D01*
X121701000Y-76753516D01*
X121660611Y-76956564D01*
X121587141Y-77133937D01*
X121581384Y-77147835D01*
X121466365Y-77319973D01*
X121319973Y-77466365D01*
X121147835Y-77581384D01*
X121147834Y-77581385D01*
X121147833Y-77581385D01*
X120956564Y-77660611D01*
X120753516Y-77701000D01*
X120546484Y-77701000D01*
X120343436Y-77660611D01*
X120152167Y-77581385D01*
X120152166Y-77581385D01*
X120152165Y-77581384D01*
X119980027Y-77466365D01*
X119833635Y-77319973D01*
X119718616Y-77147835D01*
X119712859Y-77133937D01*
X119639389Y-76956564D01*
X119599000Y-76753516D01*
X119599000Y-76546484D01*
X119639389Y-76343436D01*
X119718615Y-76152167D01*
X119790240Y-76044973D01*
X119833635Y-75980027D01*
X119980027Y-75833635D01*
X120152165Y-75718616D01*
X120167099Y-75712430D01*
X120343436Y-75639389D01*
X120546484Y-75599000D01*
X120753516Y-75599000D01*
X120956564Y-75639389D01*
G37*
G36*
X82856564Y-75639389D02*
G01*
X83032901Y-75712430D01*
X83047835Y-75718616D01*
X83219973Y-75833635D01*
X83366365Y-75980027D01*
X83409761Y-76044973D01*
X83481385Y-76152167D01*
X83560611Y-76343436D01*
X83601000Y-76546484D01*
X83601000Y-76753516D01*
X83560611Y-76956564D01*
X83487141Y-77133937D01*
X83481384Y-77147835D01*
X83366365Y-77319973D01*
X83219973Y-77466365D01*
X83047835Y-77581384D01*
X83047834Y-77581385D01*
X83047833Y-77581385D01*
X82856564Y-77660611D01*
X82653516Y-77701000D01*
X82446484Y-77701000D01*
X82243436Y-77660611D01*
X82052167Y-77581385D01*
X82052166Y-77581385D01*
X82052165Y-77581384D01*
X81880027Y-77466365D01*
X81733635Y-77319973D01*
X81618616Y-77147835D01*
X81612859Y-77133937D01*
X81539389Y-76956564D01*
X81499000Y-76753516D01*
X81499000Y-76546484D01*
X81539389Y-76343436D01*
X81618615Y-76152167D01*
X81690240Y-76044973D01*
X81733635Y-75980027D01*
X81880027Y-75833635D01*
X82052165Y-75718616D01*
X82067099Y-75712430D01*
X82243436Y-75639389D01*
X82446484Y-75599000D01*
X82653516Y-75599000D01*
X82856564Y-75639389D01*
G37*
G36*
X140003765Y-75198620D02*
G01*
X140179675Y-75271484D01*
X140193288Y-75277123D01*
X140363854Y-75391092D01*
X140508908Y-75536146D01*
X140606074Y-75681565D01*
X140622878Y-75706714D01*
X140701380Y-75896235D01*
X140741400Y-76097430D01*
X140741400Y-76302570D01*
X140701380Y-76503765D01*
X140631021Y-76673628D01*
X140622877Y-76693288D01*
X140508908Y-76863854D01*
X140363854Y-77008908D01*
X140193288Y-77122877D01*
X140193287Y-77122878D01*
X140193286Y-77122878D01*
X140003765Y-77201380D01*
X139802570Y-77241400D01*
X139597430Y-77241400D01*
X139396235Y-77201380D01*
X139206714Y-77122878D01*
X139206713Y-77122878D01*
X139206712Y-77122877D01*
X139036146Y-77008908D01*
X138891092Y-76863854D01*
X138777123Y-76693288D01*
X138768980Y-76673628D01*
X138698620Y-76503765D01*
X138658600Y-76302570D01*
X138658600Y-76097430D01*
X138698620Y-75896235D01*
X138777122Y-75706714D01*
X138793926Y-75681565D01*
X138891092Y-75536146D01*
X139036146Y-75391092D01*
X139206712Y-75277123D01*
X139220326Y-75271484D01*
X139396235Y-75198620D01*
X139597430Y-75158600D01*
X139802570Y-75158600D01*
X140003765Y-75198620D01*
G37*
G36*
X101906564Y-72464389D02*
G01*
X102097833Y-72543615D01*
X102097835Y-72543616D01*
X102269973Y-72658635D01*
X102416365Y-72805027D01*
X102531385Y-72977167D01*
X102610611Y-73168436D01*
X102651000Y-73371484D01*
X102651000Y-73578516D01*
X102610611Y-73781564D01*
X102557937Y-73908731D01*
X102531384Y-73972835D01*
X102416365Y-74144973D01*
X102269973Y-74291365D01*
X102097835Y-74406384D01*
X102097834Y-74406385D01*
X102097833Y-74406385D01*
X101906564Y-74485611D01*
X101703516Y-74526000D01*
X101496484Y-74526000D01*
X101293436Y-74485611D01*
X101102167Y-74406385D01*
X101102166Y-74406385D01*
X101102165Y-74406384D01*
X100930027Y-74291365D01*
X100783635Y-74144973D01*
X100668616Y-73972835D01*
X100642063Y-73908731D01*
X100589389Y-73781564D01*
X100549000Y-73578516D01*
X100549000Y-73371484D01*
X100589389Y-73168436D01*
X100668615Y-72977167D01*
X100783635Y-72805027D01*
X100930027Y-72658635D01*
X101102165Y-72543616D01*
X101102167Y-72543615D01*
X101293436Y-72464389D01*
X101496484Y-72424000D01*
X101703516Y-72424000D01*
X101906564Y-72464389D01*
G37*
M02*
