G04 #@! TF.GenerationSoftware,KiCad,Pcbnew,(5.1.5)-3*
G04 #@! TF.CreationDate,2020-09-15T11:54:06+03:00*
G04 #@! TF.ProjectId,reset,72657365-742e-46b6-9963-61645f706362,rev?*
G04 #@! TF.SameCoordinates,Original*
G04 #@! TF.FileFunction,Copper,L2,Bot*
G04 #@! TF.FilePolarity,Positive*
%FSLAX46Y46*%
G04 Gerber Fmt 4.6, Leading zero omitted, Abs format (unit mm)*
G04 Created by KiCad (PCBNEW (5.1.5)-3) date 2020-09-15 11:54:06*
%MOMM*%
%LPD*%
G04 APERTURE LIST*
%ADD10C,1.879600*%
%ADD11C,2.000000*%
%ADD12C,1.500000*%
%ADD13C,2.000000*%
%ADD14R,1.905000X1.905000*%
%ADD15C,1.905000*%
%ADD16C,1.400000*%
%ADD17R,1.600000X1.600000*%
%ADD18O,1.600000X1.600000*%
%ADD19C,0.250000*%
%ADD20C,0.254000*%
G04 APERTURE END LIST*
D10*
X147401308Y-103057652D03*
X146701189Y-100616047D03*
X146001070Y-98174442D03*
X145300951Y-95732838D03*
X144600832Y-93291233D03*
X143900713Y-90849628D03*
X143200594Y-88408024D03*
X142500476Y-85966419D03*
X141800357Y-83524814D03*
X141100238Y-81083209D03*
X140400119Y-78641605D03*
X139700000Y-76200000D03*
D11*
X132675000Y-116150000D03*
X132715000Y-115570000D03*
X127675000Y-116650000D03*
X126365000Y-118110000D03*
D12*
X134151954Y-118296082D02*
X132508046Y-116463918D01*
D13*
X126365005Y-118110004D02*
X127674995Y-116649996D01*
D11*
X132675000Y-116650000D03*
D12*
X133818042Y-117923922D02*
X134151958Y-118296078D01*
D13*
X127635001Y-115570000D02*
X127674999Y-116150000D01*
D11*
X127675000Y-116150000D03*
X127635000Y-115570000D03*
D14*
X131445000Y-125730000D03*
D15*
X128905000Y-125730000D03*
D13*
X132714999Y-115570000D02*
X132675001Y-116150000D01*
D11*
X130175000Y-114750000D03*
X125175000Y-116850000D03*
D16*
X135375350Y-117073293D02*
X134974650Y-116626707D01*
D11*
X123150000Y-78050000D03*
X123190000Y-77470000D03*
X118150000Y-78550000D03*
X116840000Y-80010000D03*
D12*
X124626954Y-80196082D02*
X122983046Y-78363918D01*
D13*
X116840005Y-80010004D02*
X118149995Y-78549996D01*
D11*
X123150000Y-78550000D03*
D12*
X124293042Y-79823922D02*
X124626958Y-80196078D01*
D13*
X118110001Y-77470000D02*
X118149999Y-78050000D01*
D11*
X118150000Y-78050000D03*
X118110000Y-77470000D03*
D14*
X121920000Y-87630000D03*
D15*
X119380000Y-87630000D03*
D13*
X123189999Y-77470000D02*
X123150001Y-78050000D01*
D11*
X120650000Y-76650000D03*
X115650000Y-78750000D03*
D16*
X125850350Y-78973293D02*
X125449650Y-78526707D01*
D11*
X104100000Y-74875000D03*
X104140000Y-74295000D03*
X99100000Y-75375000D03*
X97790000Y-76835000D03*
D12*
X105576954Y-77021082D02*
X103933046Y-75188918D01*
D13*
X97790005Y-76835004D02*
X99099995Y-75374996D01*
D11*
X104100000Y-75375000D03*
D12*
X105243042Y-76648922D02*
X105576958Y-77021078D01*
D13*
X99060001Y-74295000D02*
X99099999Y-74875000D01*
D11*
X99100000Y-74875000D03*
X99060000Y-74295000D03*
D14*
X102870000Y-84455000D03*
D15*
X100330000Y-84455000D03*
D13*
X104139999Y-74295000D02*
X104100001Y-74875000D01*
D11*
X101600000Y-73475000D03*
X96600000Y-75575000D03*
D16*
X106800350Y-75798293D02*
X106399650Y-75351707D01*
D11*
X85050000Y-78050000D03*
X85090000Y-77470000D03*
X80050000Y-78550000D03*
X78740000Y-80010000D03*
D12*
X86526954Y-80196082D02*
X84883046Y-78363918D01*
D13*
X78740005Y-80010004D02*
X80049995Y-78549996D01*
D11*
X85050000Y-78550000D03*
D12*
X86193042Y-79823922D02*
X86526958Y-80196078D01*
D13*
X80010001Y-77470000D02*
X80049999Y-78050000D01*
D11*
X80050000Y-78050000D03*
X80010000Y-77470000D03*
D14*
X83820000Y-87630000D03*
D15*
X81280000Y-87630000D03*
D13*
X85089999Y-77470000D02*
X85050001Y-78050000D01*
D11*
X82550000Y-76650000D03*
X77550000Y-78750000D03*
D16*
X87750350Y-78973293D02*
X87349650Y-78526707D01*
D11*
X66000000Y-81225000D03*
X66040000Y-80645000D03*
X61000000Y-81725000D03*
X59690000Y-83185000D03*
D12*
X67476954Y-83371082D02*
X65833046Y-81538918D01*
D13*
X59690005Y-83185004D02*
X60999995Y-81724996D01*
D11*
X66000000Y-81725000D03*
D12*
X67143042Y-82998922D02*
X67476958Y-83371078D01*
D13*
X60960001Y-80645000D02*
X60999999Y-81225000D01*
D11*
X61000000Y-81225000D03*
X60960000Y-80645000D03*
D14*
X64770000Y-90805000D03*
D15*
X62230000Y-90805000D03*
D13*
X66039999Y-80645000D02*
X66000001Y-81225000D01*
D11*
X63500000Y-79825000D03*
X58500000Y-81925000D03*
D16*
X68700350Y-82148293D02*
X68299650Y-81701707D01*
D17*
X126365000Y-128905000D03*
D18*
X133985000Y-128905000D03*
D17*
X116840000Y-90805000D03*
D18*
X124460000Y-90805000D03*
D17*
X97790000Y-87630000D03*
D18*
X105410000Y-87630000D03*
D17*
X78740000Y-90805000D03*
D18*
X86360000Y-90805000D03*
D17*
X59690000Y-93980000D03*
D18*
X67310000Y-93980000D03*
D19*
X59690000Y-93980000D02*
X59690000Y-92930000D01*
X59765001Y-92854999D02*
X69705001Y-92854999D01*
X59690000Y-92930000D02*
X59765001Y-92854999D01*
X71755000Y-90805000D02*
X78740000Y-90805000D01*
X69705001Y-92854999D02*
X71755000Y-90805000D01*
X96740000Y-87630000D02*
X97790000Y-87630000D01*
X86310002Y-87630000D02*
X96740000Y-87630000D01*
X83135002Y-90805000D02*
X86310002Y-87630000D01*
X78740000Y-90805000D02*
X83135002Y-90805000D01*
X113589999Y-86504999D02*
X116840000Y-89755000D01*
X103310003Y-86504999D02*
X113589999Y-86504999D01*
X102185002Y-87630000D02*
X103310003Y-86504999D01*
X116840000Y-89755000D02*
X116840000Y-90805000D01*
X97790000Y-87630000D02*
X102185002Y-87630000D01*
X146416565Y-103159183D02*
X147655840Y-103159183D01*
X130244183Y-103159183D02*
X146416565Y-103159183D01*
X117890000Y-90805000D02*
X130244183Y-103159183D01*
X116840000Y-90805000D02*
X117890000Y-90805000D01*
X125315000Y-128905000D02*
X126365000Y-128905000D01*
X136904815Y-103159183D02*
X123499999Y-116563999D01*
X123499999Y-127089999D02*
X125315000Y-128905000D01*
X123499999Y-116563999D02*
X123499999Y-127089999D01*
X147655840Y-103159183D02*
X136904815Y-103159183D01*
X113952503Y-85732501D02*
X126495975Y-98275973D01*
X73168820Y-85732501D02*
X113952503Y-85732501D01*
X68500000Y-81925000D02*
X69361319Y-81925000D01*
X126495975Y-98275973D02*
X146255602Y-98275973D01*
X69361319Y-81925000D02*
X73168820Y-85732501D01*
X68500000Y-81925000D02*
X68500000Y-79295000D01*
X68500000Y-79295000D02*
X67310000Y-78105000D01*
X61000000Y-79190787D02*
X61000000Y-79810787D01*
X61000000Y-79810787D02*
X61000000Y-81225000D01*
X62085787Y-78105000D02*
X61000000Y-79190787D01*
X67310000Y-78105000D02*
X62085787Y-78105000D01*
X92838818Y-83177499D02*
X110482499Y-83177499D01*
X87550000Y-78750000D02*
X88411319Y-78750000D01*
X88411319Y-78750000D02*
X92838818Y-83177499D01*
X110482499Y-83177499D02*
X112395000Y-85090000D01*
X114949298Y-85090000D02*
X125744298Y-95885000D01*
X112395000Y-85090000D02*
X114949298Y-85090000D01*
X125794930Y-95834368D02*
X145555483Y-95834368D01*
X125744298Y-95885000D02*
X125794930Y-95834368D01*
X81135787Y-74930000D02*
X80030000Y-76035787D01*
X87630000Y-77470000D02*
X85090000Y-74930000D01*
X87550000Y-78750000D02*
X87550000Y-77857362D01*
X87550000Y-77857362D02*
X87630000Y-77777362D01*
X80030000Y-76474006D02*
X80030000Y-77760000D01*
X80030000Y-76035787D02*
X80030000Y-76474006D01*
X87630000Y-77777362D02*
X87630000Y-77470000D01*
X85090000Y-74930000D02*
X81135787Y-74930000D01*
X117213497Y-86352499D02*
X127627499Y-86352499D01*
X106600000Y-75575000D02*
X106600000Y-75739002D01*
X106600000Y-75739002D02*
X117213497Y-86352499D01*
X134667764Y-93392764D02*
X144855364Y-93392764D01*
X127627499Y-86352499D02*
X134667764Y-93392764D01*
X106600000Y-74682362D02*
X106680000Y-74602362D01*
X106600000Y-75575000D02*
X106600000Y-74682362D01*
X106680000Y-74602362D02*
X103832638Y-71755000D01*
X99100000Y-73460787D02*
X99100000Y-74875000D01*
X99100000Y-72840787D02*
X99100000Y-73460787D01*
X100185787Y-71755000D02*
X99100000Y-72840787D01*
X103832638Y-71755000D02*
X100185787Y-71755000D01*
X125650000Y-78750000D02*
X125650000Y-79642638D01*
X136958521Y-90951159D02*
X144155245Y-90951159D01*
X125650000Y-79642638D02*
X136958521Y-90951159D01*
X118130000Y-76474006D02*
X118130000Y-77760000D01*
X125650000Y-78750000D02*
X125650000Y-77857362D01*
X119235787Y-74930000D02*
X118130000Y-76035787D01*
X122722638Y-74930000D02*
X119235787Y-74930000D01*
X125650000Y-77857362D02*
X122722638Y-74930000D01*
X118130000Y-76035787D02*
X118130000Y-76474006D01*
X127675000Y-116150000D02*
X127675000Y-114340000D01*
X127675000Y-114340000D02*
X129620000Y-112395000D01*
X129620000Y-112395000D02*
X132715000Y-112395000D01*
X135175000Y-114855000D02*
X135175000Y-116850000D01*
X132715000Y-112395000D02*
X135175000Y-114855000D01*
D20*
G36*
X129414076Y-72403116D02*
G01*
X139475535Y-74638997D01*
X139240648Y-74685718D01*
X138954052Y-74804430D01*
X138696123Y-74976773D01*
X138476773Y-75196123D01*
X138304430Y-75454052D01*
X138185718Y-75740648D01*
X138125200Y-76044896D01*
X138125200Y-76355104D01*
X138185718Y-76659352D01*
X138304430Y-76945948D01*
X138476773Y-77203877D01*
X138696123Y-77423227D01*
X138954052Y-77595570D01*
X139150649Y-77677003D01*
X139004549Y-77895657D01*
X138885837Y-78182253D01*
X138825319Y-78486501D01*
X138825319Y-78796709D01*
X138885837Y-79100957D01*
X139004549Y-79387553D01*
X139176892Y-79645482D01*
X139396242Y-79864832D01*
X139654171Y-80037175D01*
X139850768Y-80118608D01*
X139704668Y-80337261D01*
X139585956Y-80623857D01*
X139525438Y-80928105D01*
X139525438Y-81238313D01*
X139585956Y-81542561D01*
X139704668Y-81829157D01*
X139877011Y-82087086D01*
X140096361Y-82306436D01*
X140354290Y-82478779D01*
X140550887Y-82560212D01*
X140404787Y-82778866D01*
X140286075Y-83065462D01*
X140225557Y-83369710D01*
X140225557Y-83679918D01*
X140286075Y-83984166D01*
X140404787Y-84270762D01*
X140577130Y-84528691D01*
X140796480Y-84748041D01*
X141054409Y-84920384D01*
X141251006Y-85001817D01*
X141104906Y-85220471D01*
X140986194Y-85507067D01*
X140925676Y-85811315D01*
X140925676Y-86121523D01*
X140986194Y-86425771D01*
X141104906Y-86712367D01*
X141277249Y-86970296D01*
X141496599Y-87189646D01*
X141754528Y-87361989D01*
X141951124Y-87443422D01*
X141805024Y-87662076D01*
X141686312Y-87948672D01*
X141625794Y-88252920D01*
X141625794Y-88563128D01*
X141686312Y-88867376D01*
X141805024Y-89153972D01*
X141977367Y-89411901D01*
X142196717Y-89631251D01*
X142454646Y-89803594D01*
X142651243Y-89885027D01*
X142505143Y-90103680D01*
X142468908Y-90191159D01*
X137273323Y-90191159D01*
X126893285Y-79811122D01*
X126923798Y-79777793D01*
X127060122Y-79552917D01*
X127149955Y-79305763D01*
X127189846Y-79045835D01*
X127178260Y-78783119D01*
X127115644Y-78527710D01*
X127004402Y-78289427D01*
X126887800Y-78130547D01*
X126399508Y-77586338D01*
X126335631Y-77527857D01*
X126321999Y-77502354D01*
X126284974Y-77433085D01*
X126213799Y-77346359D01*
X126190001Y-77317361D01*
X126161003Y-77293563D01*
X123286442Y-74419003D01*
X123262639Y-74389999D01*
X123146914Y-74295026D01*
X123014885Y-74224454D01*
X122871624Y-74180997D01*
X122759971Y-74170000D01*
X122759960Y-74170000D01*
X122722638Y-74166324D01*
X122685316Y-74170000D01*
X119273110Y-74170000D01*
X119235787Y-74166324D01*
X119198464Y-74170000D01*
X119198454Y-74170000D01*
X119086801Y-74180997D01*
X118947325Y-74223306D01*
X118943540Y-74224454D01*
X118811510Y-74295026D01*
X118761874Y-74335762D01*
X118695786Y-74389999D01*
X118671988Y-74418997D01*
X117619002Y-75471983D01*
X117589999Y-75495786D01*
X117536866Y-75560529D01*
X117495026Y-75611511D01*
X117434363Y-75725003D01*
X117424454Y-75743541D01*
X117380997Y-75886802D01*
X117370000Y-75998455D01*
X117370000Y-75998465D01*
X117369395Y-76004611D01*
X117357874Y-76011830D01*
X117335537Y-76021082D01*
X117221551Y-76097245D01*
X117105431Y-76170002D01*
X117087849Y-76186582D01*
X117067748Y-76200013D01*
X116970815Y-76296946D01*
X116871116Y-76390963D01*
X116857106Y-76410655D01*
X116840013Y-76427748D01*
X116763848Y-76541736D01*
X116684411Y-76653392D01*
X116674514Y-76675435D01*
X116661082Y-76695537D01*
X116608616Y-76822201D01*
X116552491Y-76947201D01*
X116547084Y-76970751D01*
X116537832Y-76993088D01*
X116511085Y-77127556D01*
X116480425Y-77261102D01*
X116479717Y-77285255D01*
X116475000Y-77308967D01*
X116475000Y-77334850D01*
X116424463Y-77301082D01*
X116126912Y-77177832D01*
X115811033Y-77115000D01*
X115488967Y-77115000D01*
X115173088Y-77177832D01*
X114875537Y-77301082D01*
X114607748Y-77480013D01*
X114380013Y-77707748D01*
X114201082Y-77975537D01*
X114077832Y-78273088D01*
X114015000Y-78588967D01*
X114015000Y-78911033D01*
X114077832Y-79226912D01*
X114201082Y-79524463D01*
X114380013Y-79792252D01*
X114607748Y-80019987D01*
X114875537Y-80198918D01*
X115173088Y-80322168D01*
X115235682Y-80334619D01*
X115248354Y-80417191D01*
X115260744Y-80451279D01*
X115267832Y-80486912D01*
X115315704Y-80602484D01*
X115358375Y-80719882D01*
X115377182Y-80750905D01*
X115391082Y-80784463D01*
X115460566Y-80888453D01*
X115525335Y-80995294D01*
X115543376Y-81015000D01*
X115418816Y-81015000D01*
X115167448Y-81065000D01*
X115003740Y-81065000D01*
X114716842Y-81122068D01*
X114446589Y-81234010D01*
X114203368Y-81396525D01*
X113996525Y-81603368D01*
X113834010Y-81846589D01*
X113818891Y-81883090D01*
X108091053Y-76155254D01*
X108099955Y-76130763D01*
X108139846Y-75870835D01*
X108128260Y-75608119D01*
X108065644Y-75352710D01*
X107954402Y-75114427D01*
X107837800Y-74955547D01*
X107434153Y-74505676D01*
X107429002Y-74453376D01*
X107385546Y-74310115D01*
X107314974Y-74178085D01*
X107243799Y-74091359D01*
X107220001Y-74062361D01*
X107191003Y-74038563D01*
X104396442Y-71244003D01*
X104372639Y-71214999D01*
X104256914Y-71120026D01*
X104124885Y-71049454D01*
X103981624Y-71005997D01*
X103869971Y-70995000D01*
X103869960Y-70995000D01*
X103832638Y-70991324D01*
X103795316Y-70995000D01*
X100223112Y-70995000D01*
X100185787Y-70991324D01*
X100148462Y-70995000D01*
X100148454Y-70995000D01*
X100036801Y-71005997D01*
X99893540Y-71049454D01*
X99761511Y-71120026D01*
X99645786Y-71214999D01*
X99621988Y-71243997D01*
X98589002Y-72276983D01*
X98559999Y-72300786D01*
X98511818Y-72359495D01*
X98465026Y-72416511D01*
X98441489Y-72460546D01*
X98394454Y-72548541D01*
X98350997Y-72691802D01*
X98340000Y-72803455D01*
X98340000Y-72803465D01*
X98338352Y-72820197D01*
X98328350Y-72824000D01*
X98307874Y-72836830D01*
X98285537Y-72846082D01*
X98171551Y-72922245D01*
X98055431Y-72995002D01*
X98037849Y-73011582D01*
X98017748Y-73025013D01*
X97920815Y-73121946D01*
X97821116Y-73215963D01*
X97807106Y-73235655D01*
X97790013Y-73252748D01*
X97713848Y-73366736D01*
X97634411Y-73478392D01*
X97624514Y-73500435D01*
X97611082Y-73520537D01*
X97558616Y-73647201D01*
X97502491Y-73772201D01*
X97497084Y-73795751D01*
X97487832Y-73818088D01*
X97461085Y-73952556D01*
X97430425Y-74086102D01*
X97429717Y-74110255D01*
X97425000Y-74133967D01*
X97425000Y-74159850D01*
X97374463Y-74126082D01*
X97076912Y-74002832D01*
X96761033Y-73940000D01*
X96438967Y-73940000D01*
X96123088Y-74002832D01*
X95825537Y-74126082D01*
X95557748Y-74305013D01*
X95330013Y-74532748D01*
X95151082Y-74800537D01*
X95027832Y-75098088D01*
X94965000Y-75413967D01*
X94965000Y-75736033D01*
X95027832Y-76051912D01*
X95151082Y-76349463D01*
X95330013Y-76617252D01*
X95557748Y-76844987D01*
X95825537Y-77023918D01*
X96123088Y-77147168D01*
X96185682Y-77159619D01*
X96198354Y-77242191D01*
X96210744Y-77276279D01*
X96217832Y-77311912D01*
X96265704Y-77427484D01*
X96308375Y-77544882D01*
X96327182Y-77575905D01*
X96341082Y-77609463D01*
X96410566Y-77713453D01*
X96475335Y-77820294D01*
X96493376Y-77840000D01*
X96368816Y-77840000D01*
X96117448Y-77890000D01*
X95953740Y-77890000D01*
X95666842Y-77947068D01*
X95396589Y-78059010D01*
X95153368Y-78221525D01*
X94946525Y-78428368D01*
X94784010Y-78671589D01*
X94672068Y-78941842D01*
X94615000Y-79228740D01*
X94615000Y-79521260D01*
X94672068Y-79808158D01*
X94784010Y-80078411D01*
X94946525Y-80321632D01*
X95153368Y-80528475D01*
X95396589Y-80690990D01*
X95666842Y-80802932D01*
X95953740Y-80860000D01*
X96117448Y-80860000D01*
X96368816Y-80910000D01*
X96671184Y-80910000D01*
X96967743Y-80851011D01*
X97247095Y-80735299D01*
X97498505Y-80567312D01*
X97712312Y-80353505D01*
X97880299Y-80102095D01*
X97996011Y-79822743D01*
X98055000Y-79526184D01*
X98055000Y-79223816D01*
X98033570Y-79116076D01*
X98971100Y-79116076D01*
X98971100Y-79633924D01*
X99072127Y-80141822D01*
X99270299Y-80620251D01*
X99558000Y-81050826D01*
X99924174Y-81417000D01*
X100354749Y-81704701D01*
X100833178Y-81902873D01*
X101341076Y-82003900D01*
X101858924Y-82003900D01*
X102366822Y-81902873D01*
X102845251Y-81704701D01*
X103275826Y-81417000D01*
X103642000Y-81050826D01*
X103929701Y-80620251D01*
X104127873Y-80141822D01*
X104228900Y-79633924D01*
X104228900Y-79116076D01*
X104127873Y-78608178D01*
X103929701Y-78129749D01*
X103642000Y-77699174D01*
X103275826Y-77333000D01*
X102845251Y-77045299D01*
X102366822Y-76847127D01*
X101858924Y-76746100D01*
X101341076Y-76746100D01*
X100833178Y-76847127D01*
X100354749Y-77045299D01*
X99924174Y-77333000D01*
X99558000Y-77699174D01*
X99270299Y-78129749D01*
X99072127Y-78608178D01*
X98971100Y-79116076D01*
X98033570Y-79116076D01*
X97996011Y-78927257D01*
X97880299Y-78647905D01*
X97761656Y-78470343D01*
X97878851Y-78475511D01*
X97914760Y-78470000D01*
X97951033Y-78470000D01*
X98073540Y-78445632D01*
X98197192Y-78426655D01*
X98231336Y-78414244D01*
X98266912Y-78407168D01*
X98382299Y-78359373D01*
X98499883Y-78316634D01*
X98530955Y-78297797D01*
X98564463Y-78283918D01*
X98668298Y-78214538D01*
X98775295Y-78149674D01*
X98802097Y-78125136D01*
X98832252Y-78104987D01*
X98920555Y-78016684D01*
X98953312Y-77986694D01*
X98977474Y-77959765D01*
X99059987Y-77877252D01*
X99084717Y-77840241D01*
X100287323Y-76499916D01*
X100369987Y-76417252D01*
X100439511Y-76313202D01*
X100513387Y-76212540D01*
X100528727Y-76179682D01*
X100548918Y-76149463D01*
X100596808Y-76033847D01*
X100649626Y-75920707D01*
X100658260Y-75885488D01*
X100672168Y-75851912D01*
X100696581Y-75729182D01*
X100726313Y-75607904D01*
X100727911Y-75571673D01*
X100735000Y-75536033D01*
X100735000Y-75410914D01*
X100740502Y-75286149D01*
X100735000Y-75250299D01*
X100735000Y-75213967D01*
X100718620Y-75131617D01*
X100729575Y-75083898D01*
X100730283Y-75059745D01*
X100735000Y-75036033D01*
X100735000Y-74898936D01*
X100736022Y-74864106D01*
X100825537Y-74923918D01*
X101123088Y-75047168D01*
X101438967Y-75110000D01*
X101761033Y-75110000D01*
X102076912Y-75047168D01*
X102374463Y-74923918D01*
X102463978Y-74864106D01*
X102465000Y-74898936D01*
X102465000Y-75036033D01*
X102469717Y-75059745D01*
X102470425Y-75083898D01*
X102481380Y-75131617D01*
X102465000Y-75213967D01*
X102465000Y-75536033D01*
X102527832Y-75851912D01*
X102651082Y-76149463D01*
X102830013Y-76417252D01*
X103057748Y-76644987D01*
X103325537Y-76823918D01*
X103623088Y-76947168D01*
X103655670Y-76953649D01*
X104591520Y-77996671D01*
X104742320Y-78134732D01*
X104975620Y-78276163D01*
X105232029Y-78369361D01*
X105480354Y-78407471D01*
X105319701Y-78647905D01*
X105203989Y-78927257D01*
X105145000Y-79223816D01*
X105145000Y-79526184D01*
X105203989Y-79822743D01*
X105319701Y-80102095D01*
X105487688Y-80353505D01*
X105701495Y-80567312D01*
X105952905Y-80735299D01*
X106232257Y-80851011D01*
X106528816Y-80910000D01*
X106831184Y-80910000D01*
X107082552Y-80860000D01*
X107246260Y-80860000D01*
X107533158Y-80802932D01*
X107803411Y-80690990D01*
X108046632Y-80528475D01*
X108253475Y-80321632D01*
X108415990Y-80078411D01*
X108527932Y-79808158D01*
X108585000Y-79521260D01*
X108585000Y-79228740D01*
X108527932Y-78941842D01*
X108415990Y-78671589D01*
X108331828Y-78545631D01*
X114116195Y-84330000D01*
X112709802Y-84330000D01*
X111046303Y-82666502D01*
X111022500Y-82637498D01*
X110906775Y-82542525D01*
X110774746Y-82471953D01*
X110631485Y-82428496D01*
X110519832Y-82417499D01*
X110519821Y-82417499D01*
X110482499Y-82413823D01*
X110445177Y-82417499D01*
X93153620Y-82417499D01*
X88975123Y-78239003D01*
X88951320Y-78209999D01*
X88835595Y-78115026D01*
X88716992Y-78051631D01*
X88390000Y-77687193D01*
X88390000Y-77507322D01*
X88393676Y-77469999D01*
X88390000Y-77432676D01*
X88390000Y-77432668D01*
X88379003Y-77321015D01*
X88335546Y-77177753D01*
X88264974Y-77045724D01*
X88209257Y-76977832D01*
X88193799Y-76958996D01*
X88193795Y-76958992D01*
X88170001Y-76929999D01*
X88141008Y-76906205D01*
X85653804Y-74419003D01*
X85630001Y-74389999D01*
X85514276Y-74295026D01*
X85382247Y-74224454D01*
X85238986Y-74180997D01*
X85127333Y-74170000D01*
X85127322Y-74170000D01*
X85090000Y-74166324D01*
X85052678Y-74170000D01*
X81173110Y-74170000D01*
X81135787Y-74166324D01*
X81098464Y-74170000D01*
X81098454Y-74170000D01*
X80986801Y-74180997D01*
X80847325Y-74223306D01*
X80843540Y-74224454D01*
X80711510Y-74295026D01*
X80661874Y-74335762D01*
X80595786Y-74389999D01*
X80571988Y-74418997D01*
X79519002Y-75471983D01*
X79489999Y-75495786D01*
X79436866Y-75560529D01*
X79395026Y-75611511D01*
X79334363Y-75725003D01*
X79324454Y-75743541D01*
X79280997Y-75886802D01*
X79270000Y-75998455D01*
X79270000Y-75998465D01*
X79269395Y-76004611D01*
X79257874Y-76011830D01*
X79235537Y-76021082D01*
X79121551Y-76097245D01*
X79005431Y-76170002D01*
X78987849Y-76186582D01*
X78967748Y-76200013D01*
X78870815Y-76296946D01*
X78771116Y-76390963D01*
X78757106Y-76410655D01*
X78740013Y-76427748D01*
X78663848Y-76541736D01*
X78584411Y-76653392D01*
X78574514Y-76675435D01*
X78561082Y-76695537D01*
X78508616Y-76822201D01*
X78452491Y-76947201D01*
X78447084Y-76970751D01*
X78437832Y-76993088D01*
X78411085Y-77127556D01*
X78380425Y-77261102D01*
X78379717Y-77285255D01*
X78375000Y-77308967D01*
X78375000Y-77334850D01*
X78324463Y-77301082D01*
X78026912Y-77177832D01*
X77711033Y-77115000D01*
X77388967Y-77115000D01*
X77073088Y-77177832D01*
X76775537Y-77301082D01*
X76507748Y-77480013D01*
X76280013Y-77707748D01*
X76101082Y-77975537D01*
X75977832Y-78273088D01*
X75915000Y-78588967D01*
X75915000Y-78911033D01*
X75977832Y-79226912D01*
X76101082Y-79524463D01*
X76280013Y-79792252D01*
X76507748Y-80019987D01*
X76775537Y-80198918D01*
X77073088Y-80322168D01*
X77135682Y-80334619D01*
X77148354Y-80417191D01*
X77160744Y-80451279D01*
X77167832Y-80486912D01*
X77215704Y-80602484D01*
X77258375Y-80719882D01*
X77277182Y-80750905D01*
X77291082Y-80784463D01*
X77360566Y-80888453D01*
X77425335Y-80995294D01*
X77443376Y-81015000D01*
X77318816Y-81015000D01*
X77067448Y-81065000D01*
X76903740Y-81065000D01*
X76616842Y-81122068D01*
X76346589Y-81234010D01*
X76103368Y-81396525D01*
X75896525Y-81603368D01*
X75734010Y-81846589D01*
X75622068Y-82116842D01*
X75565000Y-82403740D01*
X75565000Y-82696260D01*
X75622068Y-82983158D01*
X75734010Y-83253411D01*
X75896525Y-83496632D01*
X76103368Y-83703475D01*
X76346589Y-83865990D01*
X76616842Y-83977932D01*
X76903740Y-84035000D01*
X77067448Y-84035000D01*
X77318816Y-84085000D01*
X77621184Y-84085000D01*
X77917743Y-84026011D01*
X78197095Y-83910299D01*
X78448505Y-83742312D01*
X78662312Y-83528505D01*
X78830299Y-83277095D01*
X78946011Y-82997743D01*
X79005000Y-82701184D01*
X79005000Y-82398816D01*
X78946011Y-82102257D01*
X78830299Y-81822905D01*
X78711656Y-81645343D01*
X78828851Y-81650511D01*
X78864760Y-81645000D01*
X78901033Y-81645000D01*
X79023540Y-81620632D01*
X79147192Y-81601655D01*
X79181336Y-81589244D01*
X79216912Y-81582168D01*
X79332299Y-81534373D01*
X79449883Y-81491634D01*
X79480955Y-81472797D01*
X79514463Y-81458918D01*
X79618298Y-81389538D01*
X79725295Y-81324674D01*
X79752097Y-81300136D01*
X79782252Y-81279987D01*
X79870555Y-81191684D01*
X79903312Y-81161694D01*
X79927474Y-81134765D01*
X80009987Y-81052252D01*
X80034717Y-81015241D01*
X81237323Y-79674916D01*
X81319987Y-79592252D01*
X81389511Y-79488202D01*
X81463387Y-79387540D01*
X81478727Y-79354682D01*
X81498918Y-79324463D01*
X81546808Y-79208847D01*
X81599626Y-79095707D01*
X81608260Y-79060488D01*
X81622168Y-79026912D01*
X81646581Y-78904182D01*
X81676313Y-78782904D01*
X81677911Y-78746673D01*
X81685000Y-78711033D01*
X81685000Y-78585914D01*
X81690502Y-78461149D01*
X81685000Y-78425299D01*
X81685000Y-78388967D01*
X81668620Y-78306617D01*
X81679575Y-78258898D01*
X81680283Y-78234745D01*
X81685000Y-78211033D01*
X81685000Y-78073936D01*
X81686022Y-78039106D01*
X81775537Y-78098918D01*
X82073088Y-78222168D01*
X82388967Y-78285000D01*
X82711033Y-78285000D01*
X83026912Y-78222168D01*
X83324463Y-78098918D01*
X83413978Y-78039106D01*
X83415000Y-78073936D01*
X83415000Y-78211033D01*
X83419717Y-78234745D01*
X83420425Y-78258898D01*
X83431380Y-78306617D01*
X83415000Y-78388967D01*
X83415000Y-78711033D01*
X83477832Y-79026912D01*
X83601082Y-79324463D01*
X83780013Y-79592252D01*
X84007748Y-79819987D01*
X84275537Y-79998918D01*
X84573088Y-80122168D01*
X84605670Y-80128649D01*
X85541520Y-81171671D01*
X85692320Y-81309732D01*
X85925620Y-81451163D01*
X86182029Y-81544361D01*
X86430354Y-81582471D01*
X86269701Y-81822905D01*
X86153989Y-82102257D01*
X86095000Y-82398816D01*
X86095000Y-82701184D01*
X86153989Y-82997743D01*
X86269701Y-83277095D01*
X86437688Y-83528505D01*
X86651495Y-83742312D01*
X86902905Y-83910299D01*
X87182257Y-84026011D01*
X87478816Y-84085000D01*
X87781184Y-84085000D01*
X88032552Y-84035000D01*
X88196260Y-84035000D01*
X88483158Y-83977932D01*
X88753411Y-83865990D01*
X88996632Y-83703475D01*
X89203475Y-83496632D01*
X89365990Y-83253411D01*
X89477932Y-82983158D01*
X89535000Y-82696260D01*
X89535000Y-82403740D01*
X89477932Y-82116842D01*
X89365990Y-81846589D01*
X89203475Y-81603368D01*
X88996632Y-81396525D01*
X88753411Y-81234010D01*
X88483158Y-81122068D01*
X88196260Y-81065000D01*
X88032552Y-81065000D01*
X87781184Y-81015000D01*
X87650132Y-81015000D01*
X87782038Y-80797412D01*
X87875237Y-80541004D01*
X87911845Y-80302468D01*
X87940524Y-80301203D01*
X88195933Y-80238587D01*
X88434217Y-80127346D01*
X88595498Y-80008981D01*
X92275018Y-83688501D01*
X92298817Y-83717500D01*
X92327815Y-83741298D01*
X92414541Y-83812473D01*
X92514664Y-83865990D01*
X92546571Y-83883045D01*
X92689832Y-83926502D01*
X92801485Y-83937499D01*
X92801494Y-83937499D01*
X92838817Y-83941175D01*
X92876140Y-83937499D01*
X98826058Y-83937499D01*
X98803507Y-83991943D01*
X98742500Y-84298645D01*
X98742500Y-84611355D01*
X98803507Y-84918057D01*
X98826058Y-84972501D01*
X83571212Y-84972501D01*
X83795251Y-84879701D01*
X84225826Y-84592000D01*
X84592000Y-84225826D01*
X84879701Y-83795251D01*
X85077873Y-83316822D01*
X85178900Y-82808924D01*
X85178900Y-82291076D01*
X85077873Y-81783178D01*
X84879701Y-81304749D01*
X84592000Y-80874174D01*
X84225826Y-80508000D01*
X83795251Y-80220299D01*
X83316822Y-80022127D01*
X82808924Y-79921100D01*
X82291076Y-79921100D01*
X81783178Y-80022127D01*
X81304749Y-80220299D01*
X80874174Y-80508000D01*
X80508000Y-80874174D01*
X80220299Y-81304749D01*
X80022127Y-81783178D01*
X79921100Y-82291076D01*
X79921100Y-82808924D01*
X80022127Y-83316822D01*
X80220299Y-83795251D01*
X80508000Y-84225826D01*
X80874174Y-84592000D01*
X81304749Y-84879701D01*
X81528788Y-84972501D01*
X73483622Y-84972501D01*
X69925123Y-81414003D01*
X69901320Y-81384999D01*
X69785595Y-81290026D01*
X69666992Y-81226631D01*
X69260000Y-80773031D01*
X69260000Y-79332322D01*
X69263676Y-79294999D01*
X69260000Y-79257676D01*
X69260000Y-79257667D01*
X69249003Y-79146014D01*
X69205546Y-79002753D01*
X69149843Y-78898541D01*
X69134974Y-78870723D01*
X69063799Y-78783997D01*
X69040001Y-78754999D01*
X69011003Y-78731201D01*
X67873804Y-77594003D01*
X67850001Y-77564999D01*
X67734276Y-77470026D01*
X67602247Y-77399454D01*
X67458986Y-77355997D01*
X67347333Y-77345000D01*
X67347322Y-77345000D01*
X67310000Y-77341324D01*
X67272678Y-77345000D01*
X62123112Y-77345000D01*
X62085787Y-77341324D01*
X62048462Y-77345000D01*
X62048454Y-77345000D01*
X61936801Y-77355997D01*
X61793540Y-77399454D01*
X61661511Y-77470026D01*
X61545786Y-77564999D01*
X61521988Y-77593997D01*
X60489002Y-78626983D01*
X60459999Y-78650786D01*
X60411180Y-78710273D01*
X60365026Y-78766511D01*
X60318260Y-78854003D01*
X60294454Y-78898541D01*
X60250997Y-79041802D01*
X60240000Y-79153455D01*
X60240000Y-79153465D01*
X60238352Y-79170197D01*
X60228350Y-79174000D01*
X60207874Y-79186830D01*
X60185537Y-79196082D01*
X60071551Y-79272245D01*
X59955431Y-79345002D01*
X59937849Y-79361582D01*
X59917748Y-79375013D01*
X59820815Y-79471946D01*
X59721116Y-79565963D01*
X59707106Y-79585655D01*
X59690013Y-79602748D01*
X59613848Y-79716736D01*
X59534411Y-79828392D01*
X59524514Y-79850435D01*
X59511082Y-79870537D01*
X59458616Y-79997201D01*
X59402491Y-80122201D01*
X59397084Y-80145751D01*
X59387832Y-80168088D01*
X59361085Y-80302556D01*
X59330425Y-80436102D01*
X59329717Y-80460255D01*
X59325000Y-80483967D01*
X59325000Y-80509850D01*
X59274463Y-80476082D01*
X58976912Y-80352832D01*
X58661033Y-80290000D01*
X58338967Y-80290000D01*
X58023088Y-80352832D01*
X57725537Y-80476082D01*
X57457748Y-80655013D01*
X57230013Y-80882748D01*
X57051082Y-81150537D01*
X56927832Y-81448088D01*
X56865000Y-81763967D01*
X56865000Y-82086033D01*
X56927832Y-82401912D01*
X57051082Y-82699463D01*
X57230013Y-82967252D01*
X57457748Y-83194987D01*
X57725537Y-83373918D01*
X58023088Y-83497168D01*
X58085682Y-83509619D01*
X58098354Y-83592191D01*
X58110744Y-83626279D01*
X58117832Y-83661912D01*
X58165704Y-83777484D01*
X58208375Y-83894882D01*
X58227182Y-83925905D01*
X58241082Y-83959463D01*
X58310566Y-84063453D01*
X58375335Y-84170294D01*
X58393376Y-84190000D01*
X58268816Y-84190000D01*
X58017448Y-84240000D01*
X57853740Y-84240000D01*
X57566842Y-84297068D01*
X57296589Y-84409010D01*
X57053368Y-84571525D01*
X56846525Y-84778368D01*
X56684010Y-85021589D01*
X56572068Y-85291842D01*
X56515000Y-85578740D01*
X56515000Y-85871260D01*
X56572068Y-86158158D01*
X56684010Y-86428411D01*
X56846525Y-86671632D01*
X57053368Y-86878475D01*
X57296589Y-87040990D01*
X57566842Y-87152932D01*
X57853740Y-87210000D01*
X58017448Y-87210000D01*
X58268816Y-87260000D01*
X58571184Y-87260000D01*
X58867743Y-87201011D01*
X59147095Y-87085299D01*
X59398505Y-86917312D01*
X59612312Y-86703505D01*
X59780299Y-86452095D01*
X59896011Y-86172743D01*
X59955000Y-85876184D01*
X59955000Y-85573816D01*
X59933570Y-85466076D01*
X60871100Y-85466076D01*
X60871100Y-85983924D01*
X60972127Y-86491822D01*
X61170299Y-86970251D01*
X61458000Y-87400826D01*
X61824174Y-87767000D01*
X62254749Y-88054701D01*
X62733178Y-88252873D01*
X63241076Y-88353900D01*
X63758924Y-88353900D01*
X64266822Y-88252873D01*
X64745251Y-88054701D01*
X65175826Y-87767000D01*
X65542000Y-87400826D01*
X65829701Y-86970251D01*
X66027873Y-86491822D01*
X66128900Y-85983924D01*
X66128900Y-85466076D01*
X66027873Y-84958178D01*
X65829701Y-84479749D01*
X65542000Y-84049174D01*
X65175826Y-83683000D01*
X64745251Y-83395299D01*
X64266822Y-83197127D01*
X63758924Y-83096100D01*
X63241076Y-83096100D01*
X62733178Y-83197127D01*
X62254749Y-83395299D01*
X61824174Y-83683000D01*
X61458000Y-84049174D01*
X61170299Y-84479749D01*
X60972127Y-84958178D01*
X60871100Y-85466076D01*
X59933570Y-85466076D01*
X59896011Y-85277257D01*
X59780299Y-84997905D01*
X59661656Y-84820343D01*
X59778851Y-84825511D01*
X59814760Y-84820000D01*
X59851033Y-84820000D01*
X59973540Y-84795632D01*
X60097192Y-84776655D01*
X60131336Y-84764244D01*
X60166912Y-84757168D01*
X60282299Y-84709373D01*
X60399883Y-84666634D01*
X60430955Y-84647797D01*
X60464463Y-84633918D01*
X60568298Y-84564538D01*
X60675295Y-84499674D01*
X60702097Y-84475136D01*
X60732252Y-84454987D01*
X60820555Y-84366684D01*
X60853312Y-84336694D01*
X60877474Y-84309765D01*
X60959987Y-84227252D01*
X60984717Y-84190241D01*
X62187323Y-82849916D01*
X62269987Y-82767252D01*
X62339511Y-82663202D01*
X62413387Y-82562540D01*
X62428727Y-82529682D01*
X62448918Y-82499463D01*
X62496808Y-82383847D01*
X62549626Y-82270707D01*
X62558260Y-82235488D01*
X62572168Y-82201912D01*
X62596581Y-82079182D01*
X62626313Y-81957904D01*
X62627911Y-81921673D01*
X62635000Y-81886033D01*
X62635000Y-81760914D01*
X62640502Y-81636149D01*
X62635000Y-81600299D01*
X62635000Y-81563967D01*
X62618620Y-81481617D01*
X62629575Y-81433898D01*
X62630283Y-81409745D01*
X62635000Y-81386033D01*
X62635000Y-81248936D01*
X62636022Y-81214106D01*
X62725537Y-81273918D01*
X63023088Y-81397168D01*
X63338967Y-81460000D01*
X63661033Y-81460000D01*
X63976912Y-81397168D01*
X64274463Y-81273918D01*
X64363978Y-81214106D01*
X64365000Y-81248936D01*
X64365000Y-81386033D01*
X64369717Y-81409745D01*
X64370425Y-81433898D01*
X64381380Y-81481617D01*
X64365000Y-81563967D01*
X64365000Y-81886033D01*
X64427832Y-82201912D01*
X64551082Y-82499463D01*
X64730013Y-82767252D01*
X64957748Y-82994987D01*
X65225537Y-83173918D01*
X65523088Y-83297168D01*
X65555670Y-83303649D01*
X66491520Y-84346671D01*
X66642320Y-84484732D01*
X66875620Y-84626163D01*
X67132029Y-84719361D01*
X67380354Y-84757471D01*
X67219701Y-84997905D01*
X67103989Y-85277257D01*
X67045000Y-85573816D01*
X67045000Y-85876184D01*
X67103989Y-86172743D01*
X67219701Y-86452095D01*
X67387688Y-86703505D01*
X67601495Y-86917312D01*
X67852905Y-87085299D01*
X68132257Y-87201011D01*
X68428816Y-87260000D01*
X68731184Y-87260000D01*
X68982552Y-87210000D01*
X69146260Y-87210000D01*
X69433158Y-87152932D01*
X69703411Y-87040990D01*
X69946632Y-86878475D01*
X70153475Y-86671632D01*
X70315990Y-86428411D01*
X70427932Y-86158158D01*
X70485000Y-85871260D01*
X70485000Y-85578740D01*
X70427932Y-85291842D01*
X70315990Y-85021589D01*
X70153475Y-84778368D01*
X69946632Y-84571525D01*
X69703411Y-84409010D01*
X69433158Y-84297068D01*
X69146260Y-84240000D01*
X68982552Y-84240000D01*
X68731184Y-84190000D01*
X68600132Y-84190000D01*
X68732038Y-83972412D01*
X68825237Y-83716004D01*
X68861845Y-83477468D01*
X68890524Y-83476203D01*
X69145933Y-83413587D01*
X69384217Y-83302346D01*
X69545498Y-83183981D01*
X72605020Y-86243503D01*
X72628819Y-86272502D01*
X72657817Y-86296300D01*
X72744544Y-86367475D01*
X72876573Y-86438047D01*
X73019834Y-86481504D01*
X73168820Y-86496178D01*
X73206153Y-86492501D01*
X80172435Y-86492501D01*
X80046908Y-86618028D01*
X79873176Y-86878037D01*
X79753507Y-87166943D01*
X79692500Y-87473645D01*
X79692500Y-87786355D01*
X79753507Y-88093057D01*
X79873176Y-88381963D01*
X80046908Y-88641972D01*
X80268028Y-88863092D01*
X80528037Y-89036824D01*
X80816943Y-89156493D01*
X81123645Y-89217500D01*
X81436355Y-89217500D01*
X81743057Y-89156493D01*
X82031963Y-89036824D01*
X82291972Y-88863092D01*
X82295549Y-88859515D01*
X82336963Y-88936994D01*
X82416315Y-89033685D01*
X82513006Y-89113037D01*
X82623320Y-89172002D01*
X82743018Y-89208312D01*
X82867500Y-89220572D01*
X83644629Y-89220572D01*
X82820201Y-90045000D01*
X80178072Y-90045000D01*
X80178072Y-90005000D01*
X80165812Y-89880518D01*
X80129502Y-89760820D01*
X80070537Y-89650506D01*
X79991185Y-89553815D01*
X79894494Y-89474463D01*
X79784180Y-89415498D01*
X79664482Y-89379188D01*
X79540000Y-89366928D01*
X77940000Y-89366928D01*
X77815518Y-89379188D01*
X77695820Y-89415498D01*
X77585506Y-89474463D01*
X77488815Y-89553815D01*
X77409463Y-89650506D01*
X77350498Y-89760820D01*
X77314188Y-89880518D01*
X77301928Y-90005000D01*
X77301928Y-90045000D01*
X71792322Y-90045000D01*
X71754999Y-90041324D01*
X71717676Y-90045000D01*
X71717667Y-90045000D01*
X71606014Y-90055997D01*
X71462753Y-90099454D01*
X71330724Y-90170026D01*
X71330722Y-90170027D01*
X71330723Y-90170027D01*
X71243996Y-90241201D01*
X71243992Y-90241205D01*
X71214999Y-90264999D01*
X71191205Y-90293992D01*
X69390200Y-92094999D01*
X66262121Y-92094999D01*
X66312002Y-92001680D01*
X66348312Y-91881982D01*
X66360572Y-91757500D01*
X66360572Y-89852500D01*
X66348312Y-89728018D01*
X66312002Y-89608320D01*
X66253037Y-89498006D01*
X66173685Y-89401315D01*
X66076994Y-89321963D01*
X65966680Y-89262998D01*
X65846982Y-89226688D01*
X65722500Y-89214428D01*
X63817500Y-89214428D01*
X63693018Y-89226688D01*
X63573320Y-89262998D01*
X63463006Y-89321963D01*
X63366315Y-89401315D01*
X63286963Y-89498006D01*
X63245549Y-89575485D01*
X63241972Y-89571908D01*
X62981963Y-89398176D01*
X62693057Y-89278507D01*
X62386355Y-89217500D01*
X62073645Y-89217500D01*
X61766943Y-89278507D01*
X61478037Y-89398176D01*
X61218028Y-89571908D01*
X60996908Y-89793028D01*
X60823176Y-90053037D01*
X60703507Y-90341943D01*
X60642500Y-90648645D01*
X60642500Y-90961355D01*
X60703507Y-91268057D01*
X60823176Y-91556963D01*
X60996908Y-91816972D01*
X61218028Y-92038092D01*
X61303196Y-92094999D01*
X59802323Y-92094999D01*
X59765000Y-92091323D01*
X59727678Y-92094999D01*
X59727668Y-92094999D01*
X59616015Y-92105996D01*
X59472754Y-92149453D01*
X59340725Y-92220025D01*
X59225000Y-92314998D01*
X59201201Y-92343997D01*
X59178996Y-92366203D01*
X59150000Y-92389999D01*
X59126202Y-92418997D01*
X59126201Y-92418998D01*
X59055026Y-92505724D01*
X59035674Y-92541928D01*
X58890000Y-92541928D01*
X58765518Y-92554188D01*
X58645820Y-92590498D01*
X58535506Y-92649463D01*
X58438815Y-92728815D01*
X58359463Y-92825506D01*
X58300498Y-92935820D01*
X58264188Y-93055518D01*
X58251928Y-93180000D01*
X58251928Y-94780000D01*
X58264188Y-94904482D01*
X58300498Y-95024180D01*
X58359463Y-95134494D01*
X58438815Y-95231185D01*
X58535506Y-95310537D01*
X58645820Y-95369502D01*
X58765518Y-95405812D01*
X58890000Y-95418072D01*
X60490000Y-95418072D01*
X60614482Y-95405812D01*
X60734180Y-95369502D01*
X60844494Y-95310537D01*
X60941185Y-95231185D01*
X61020537Y-95134494D01*
X61079502Y-95024180D01*
X61115812Y-94904482D01*
X61128072Y-94780000D01*
X61128072Y-93614999D01*
X65919491Y-93614999D01*
X65875000Y-93838665D01*
X65875000Y-94121335D01*
X65930147Y-94398574D01*
X66038320Y-94659727D01*
X66195363Y-94894759D01*
X66395241Y-95094637D01*
X66630273Y-95251680D01*
X66891426Y-95359853D01*
X67168665Y-95415000D01*
X67451335Y-95415000D01*
X67728574Y-95359853D01*
X67989727Y-95251680D01*
X68224759Y-95094637D01*
X68424637Y-94894759D01*
X68581680Y-94659727D01*
X68689853Y-94398574D01*
X68745000Y-94121335D01*
X68745000Y-93838665D01*
X68700509Y-93614999D01*
X69667679Y-93614999D01*
X69705001Y-93618675D01*
X69742323Y-93614999D01*
X69742334Y-93614999D01*
X69853987Y-93604002D01*
X69997248Y-93560545D01*
X70129277Y-93489973D01*
X70245002Y-93395000D01*
X70268805Y-93365997D01*
X72069803Y-91565000D01*
X77301928Y-91565000D01*
X77301928Y-91605000D01*
X77314188Y-91729482D01*
X77350498Y-91849180D01*
X77409463Y-91959494D01*
X77488815Y-92056185D01*
X77585506Y-92135537D01*
X77695820Y-92194502D01*
X77815518Y-92230812D01*
X77940000Y-92243072D01*
X79540000Y-92243072D01*
X79664482Y-92230812D01*
X79784180Y-92194502D01*
X79894494Y-92135537D01*
X79991185Y-92056185D01*
X80070537Y-91959494D01*
X80129502Y-91849180D01*
X80165812Y-91729482D01*
X80178072Y-91605000D01*
X80178072Y-91565000D01*
X83097680Y-91565000D01*
X83135002Y-91568676D01*
X83172324Y-91565000D01*
X83172335Y-91565000D01*
X83283988Y-91554003D01*
X83427249Y-91510546D01*
X83559278Y-91439974D01*
X83675003Y-91345001D01*
X83698806Y-91315997D01*
X84351138Y-90663665D01*
X84925000Y-90663665D01*
X84925000Y-90946335D01*
X84980147Y-91223574D01*
X85088320Y-91484727D01*
X85245363Y-91719759D01*
X85445241Y-91919637D01*
X85680273Y-92076680D01*
X85941426Y-92184853D01*
X86218665Y-92240000D01*
X86501335Y-92240000D01*
X86778574Y-92184853D01*
X87039727Y-92076680D01*
X87274759Y-91919637D01*
X87474637Y-91719759D01*
X87631680Y-91484727D01*
X87739853Y-91223574D01*
X87795000Y-90946335D01*
X87795000Y-90663665D01*
X87739853Y-90386426D01*
X87631680Y-90125273D01*
X87474637Y-89890241D01*
X87274759Y-89690363D01*
X87039727Y-89533320D01*
X86778574Y-89425147D01*
X86501335Y-89370000D01*
X86218665Y-89370000D01*
X85941426Y-89425147D01*
X85680273Y-89533320D01*
X85445241Y-89690363D01*
X85245363Y-89890241D01*
X85088320Y-90125273D01*
X84980147Y-90386426D01*
X84925000Y-90663665D01*
X84351138Y-90663665D01*
X86624804Y-88390000D01*
X96351928Y-88390000D01*
X96351928Y-88430000D01*
X96364188Y-88554482D01*
X96400498Y-88674180D01*
X96459463Y-88784494D01*
X96538815Y-88881185D01*
X96635506Y-88960537D01*
X96745820Y-89019502D01*
X96865518Y-89055812D01*
X96990000Y-89068072D01*
X98590000Y-89068072D01*
X98714482Y-89055812D01*
X98834180Y-89019502D01*
X98944494Y-88960537D01*
X99041185Y-88881185D01*
X99120537Y-88784494D01*
X99179502Y-88674180D01*
X99215812Y-88554482D01*
X99228072Y-88430000D01*
X99228072Y-88390000D01*
X102147680Y-88390000D01*
X102185002Y-88393676D01*
X102222324Y-88390000D01*
X102222335Y-88390000D01*
X102333988Y-88379003D01*
X102477249Y-88335546D01*
X102609278Y-88264974D01*
X102725003Y-88170001D01*
X102748806Y-88140998D01*
X103624805Y-87264999D01*
X104019491Y-87264999D01*
X103975000Y-87488665D01*
X103975000Y-87771335D01*
X104030147Y-88048574D01*
X104138320Y-88309727D01*
X104295363Y-88544759D01*
X104495241Y-88744637D01*
X104730273Y-88901680D01*
X104991426Y-89009853D01*
X105268665Y-89065000D01*
X105551335Y-89065000D01*
X105828574Y-89009853D01*
X106089727Y-88901680D01*
X106324759Y-88744637D01*
X106524637Y-88544759D01*
X106681680Y-88309727D01*
X106789853Y-88048574D01*
X106845000Y-87771335D01*
X106845000Y-87488665D01*
X106800509Y-87264999D01*
X113275198Y-87264999D01*
X115577635Y-89567438D01*
X115509463Y-89650506D01*
X115450498Y-89760820D01*
X115414188Y-89880518D01*
X115401928Y-90005000D01*
X115401928Y-91605000D01*
X115414188Y-91729482D01*
X115450498Y-91849180D01*
X115509463Y-91959494D01*
X115588815Y-92056185D01*
X115685506Y-92135537D01*
X115795820Y-92194502D01*
X115915518Y-92230812D01*
X116040000Y-92243072D01*
X117640000Y-92243072D01*
X117764482Y-92230812D01*
X117884180Y-92194502D01*
X117994494Y-92135537D01*
X118077563Y-92067364D01*
X129680384Y-103670186D01*
X129704182Y-103699184D01*
X129733180Y-103722982D01*
X129819906Y-103794157D01*
X129903726Y-103838960D01*
X129951936Y-103864729D01*
X130095197Y-103908186D01*
X130206850Y-103919183D01*
X130206859Y-103919183D01*
X130244182Y-103922859D01*
X130281505Y-103919183D01*
X135070013Y-103919183D01*
X122989002Y-116000195D01*
X122959998Y-116023998D01*
X122904870Y-116091173D01*
X122865025Y-116139723D01*
X122816478Y-116230547D01*
X122794453Y-116271753D01*
X122750996Y-116415014D01*
X122739999Y-116526667D01*
X122739999Y-116526677D01*
X122736323Y-116563999D01*
X122739999Y-116601321D01*
X122740000Y-127052667D01*
X122736323Y-127089999D01*
X122750997Y-127238984D01*
X122794453Y-127382245D01*
X122865025Y-127514275D01*
X122873948Y-127525147D01*
X122959999Y-127630000D01*
X122988997Y-127653798D01*
X124751201Y-129416003D01*
X124774999Y-129445001D01*
X124803997Y-129468799D01*
X124890723Y-129539974D01*
X124926928Y-129559326D01*
X124926928Y-129705000D01*
X124939188Y-129829482D01*
X124975498Y-129949180D01*
X125034463Y-130059494D01*
X125113815Y-130156185D01*
X125210506Y-130235537D01*
X125320820Y-130294502D01*
X125440518Y-130330812D01*
X125565000Y-130343072D01*
X127165000Y-130343072D01*
X127289482Y-130330812D01*
X127409180Y-130294502D01*
X127519494Y-130235537D01*
X127616185Y-130156185D01*
X127695537Y-130059494D01*
X127754502Y-129949180D01*
X127790812Y-129829482D01*
X127803072Y-129705000D01*
X127803072Y-128763665D01*
X132550000Y-128763665D01*
X132550000Y-129046335D01*
X132605147Y-129323574D01*
X132713320Y-129584727D01*
X132870363Y-129819759D01*
X133070241Y-130019637D01*
X133305273Y-130176680D01*
X133566426Y-130284853D01*
X133843665Y-130340000D01*
X134126335Y-130340000D01*
X134403574Y-130284853D01*
X134664727Y-130176680D01*
X134899759Y-130019637D01*
X135099637Y-129819759D01*
X135256680Y-129584727D01*
X135364853Y-129323574D01*
X135420000Y-129046335D01*
X135420000Y-128763665D01*
X135364853Y-128486426D01*
X135256680Y-128225273D01*
X135099637Y-127990241D01*
X134899759Y-127790363D01*
X134664727Y-127633320D01*
X134403574Y-127525147D01*
X134126335Y-127470000D01*
X133843665Y-127470000D01*
X133566426Y-127525147D01*
X133305273Y-127633320D01*
X133070241Y-127790363D01*
X132870363Y-127990241D01*
X132713320Y-128225273D01*
X132605147Y-128486426D01*
X132550000Y-128763665D01*
X127803072Y-128763665D01*
X127803072Y-128105000D01*
X127790812Y-127980518D01*
X127754502Y-127860820D01*
X127695537Y-127750506D01*
X127616185Y-127653815D01*
X127519494Y-127574463D01*
X127409180Y-127515498D01*
X127289482Y-127479188D01*
X127165000Y-127466928D01*
X125565000Y-127466928D01*
X125440518Y-127479188D01*
X125320820Y-127515498D01*
X125210506Y-127574463D01*
X125127437Y-127642636D01*
X124259999Y-126775198D01*
X124259999Y-125573645D01*
X127317500Y-125573645D01*
X127317500Y-125886355D01*
X127378507Y-126193057D01*
X127498176Y-126481963D01*
X127671908Y-126741972D01*
X127893028Y-126963092D01*
X128153037Y-127136824D01*
X128441943Y-127256493D01*
X128748645Y-127317500D01*
X129061355Y-127317500D01*
X129368057Y-127256493D01*
X129656963Y-127136824D01*
X129916972Y-126963092D01*
X129920549Y-126959515D01*
X129961963Y-127036994D01*
X130041315Y-127133685D01*
X130138006Y-127213037D01*
X130248320Y-127272002D01*
X130368018Y-127308312D01*
X130492500Y-127320572D01*
X132397500Y-127320572D01*
X132521982Y-127308312D01*
X132641680Y-127272002D01*
X132751994Y-127213037D01*
X132848685Y-127133685D01*
X132928037Y-127036994D01*
X132987002Y-126926680D01*
X133023312Y-126806982D01*
X133035572Y-126682500D01*
X133035572Y-124777500D01*
X133023312Y-124653018D01*
X132987002Y-124533320D01*
X132928037Y-124423006D01*
X132848685Y-124326315D01*
X132751994Y-124246963D01*
X132641680Y-124187998D01*
X132521982Y-124151688D01*
X132397500Y-124139428D01*
X130492500Y-124139428D01*
X130368018Y-124151688D01*
X130248320Y-124187998D01*
X130138006Y-124246963D01*
X130041315Y-124326315D01*
X129961963Y-124423006D01*
X129920549Y-124500485D01*
X129916972Y-124496908D01*
X129656963Y-124323176D01*
X129368057Y-124203507D01*
X129061355Y-124142500D01*
X128748645Y-124142500D01*
X128441943Y-124203507D01*
X128153037Y-124323176D01*
X127893028Y-124496908D01*
X127671908Y-124718028D01*
X127498176Y-124978037D01*
X127378507Y-125266943D01*
X127317500Y-125573645D01*
X124259999Y-125573645D01*
X124259999Y-122081544D01*
X124528740Y-122135000D01*
X124692448Y-122135000D01*
X124943816Y-122185000D01*
X125246184Y-122185000D01*
X125542743Y-122126011D01*
X125822095Y-122010299D01*
X126073505Y-121842312D01*
X126287312Y-121628505D01*
X126455299Y-121377095D01*
X126571011Y-121097743D01*
X126630000Y-120801184D01*
X126630000Y-120498816D01*
X126608570Y-120391076D01*
X127546100Y-120391076D01*
X127546100Y-120908924D01*
X127647127Y-121416822D01*
X127845299Y-121895251D01*
X128133000Y-122325826D01*
X128499174Y-122692000D01*
X128929749Y-122979701D01*
X129408178Y-123177873D01*
X129916076Y-123278900D01*
X130433924Y-123278900D01*
X130941822Y-123177873D01*
X131420251Y-122979701D01*
X131850826Y-122692000D01*
X132217000Y-122325826D01*
X132504701Y-121895251D01*
X132702873Y-121416822D01*
X132803900Y-120908924D01*
X132803900Y-120391076D01*
X132702873Y-119883178D01*
X132504701Y-119404749D01*
X132217000Y-118974174D01*
X131850826Y-118608000D01*
X131420251Y-118320299D01*
X130941822Y-118122127D01*
X130433924Y-118021100D01*
X129916076Y-118021100D01*
X129408178Y-118122127D01*
X128929749Y-118320299D01*
X128499174Y-118608000D01*
X128133000Y-118974174D01*
X127845299Y-119404749D01*
X127647127Y-119883178D01*
X127546100Y-120391076D01*
X126608570Y-120391076D01*
X126571011Y-120202257D01*
X126455299Y-119922905D01*
X126336656Y-119745343D01*
X126453851Y-119750511D01*
X126489760Y-119745000D01*
X126526033Y-119745000D01*
X126648540Y-119720632D01*
X126772192Y-119701655D01*
X126806336Y-119689244D01*
X126841912Y-119682168D01*
X126957299Y-119634373D01*
X127074883Y-119591634D01*
X127105955Y-119572797D01*
X127139463Y-119558918D01*
X127243298Y-119489538D01*
X127350295Y-119424674D01*
X127377097Y-119400136D01*
X127407252Y-119379987D01*
X127495555Y-119291684D01*
X127528312Y-119261694D01*
X127552474Y-119234765D01*
X127634987Y-119152252D01*
X127659717Y-119115241D01*
X128862323Y-117774916D01*
X128944987Y-117692252D01*
X129014511Y-117588202D01*
X129088387Y-117487540D01*
X129103727Y-117454682D01*
X129123918Y-117424463D01*
X129171808Y-117308847D01*
X129224626Y-117195707D01*
X129233260Y-117160488D01*
X129247168Y-117126912D01*
X129271581Y-117004182D01*
X129301313Y-116882904D01*
X129302911Y-116846673D01*
X129310000Y-116811033D01*
X129310000Y-116685914D01*
X129315502Y-116561149D01*
X129310000Y-116525299D01*
X129310000Y-116488967D01*
X129293620Y-116406617D01*
X129304575Y-116358898D01*
X129305283Y-116334745D01*
X129310000Y-116311033D01*
X129310000Y-116173936D01*
X129311022Y-116139106D01*
X129400537Y-116198918D01*
X129698088Y-116322168D01*
X130013967Y-116385000D01*
X130336033Y-116385000D01*
X130651912Y-116322168D01*
X130949463Y-116198918D01*
X131038978Y-116139106D01*
X131040000Y-116173936D01*
X131040000Y-116311033D01*
X131044717Y-116334745D01*
X131045425Y-116358898D01*
X131056380Y-116406617D01*
X131040000Y-116488967D01*
X131040000Y-116811033D01*
X131102832Y-117126912D01*
X131226082Y-117424463D01*
X131405013Y-117692252D01*
X131632748Y-117919987D01*
X131900537Y-118098918D01*
X132198088Y-118222168D01*
X132230670Y-118228649D01*
X133166520Y-119271671D01*
X133317320Y-119409732D01*
X133550620Y-119551163D01*
X133807029Y-119644361D01*
X134055354Y-119682471D01*
X133894701Y-119922905D01*
X133778989Y-120202257D01*
X133720000Y-120498816D01*
X133720000Y-120801184D01*
X133778989Y-121097743D01*
X133894701Y-121377095D01*
X134062688Y-121628505D01*
X134276495Y-121842312D01*
X134527905Y-122010299D01*
X134807257Y-122126011D01*
X135103816Y-122185000D01*
X135406184Y-122185000D01*
X135657552Y-122135000D01*
X135821260Y-122135000D01*
X136108158Y-122077932D01*
X136378411Y-121965990D01*
X136621632Y-121803475D01*
X136828475Y-121596632D01*
X136990990Y-121353411D01*
X137102932Y-121083158D01*
X137160000Y-120796260D01*
X137160000Y-120503740D01*
X137102932Y-120216842D01*
X136990990Y-119946589D01*
X136828475Y-119703368D01*
X136621632Y-119496525D01*
X136378411Y-119334010D01*
X136108158Y-119222068D01*
X135821260Y-119165000D01*
X135657552Y-119165000D01*
X135406184Y-119115000D01*
X135275132Y-119115000D01*
X135407038Y-118897412D01*
X135500237Y-118641004D01*
X135536845Y-118402468D01*
X135565524Y-118401203D01*
X135820933Y-118338587D01*
X136059217Y-118227346D01*
X136271221Y-118071755D01*
X136448798Y-117877793D01*
X136585122Y-117652917D01*
X136674955Y-117405763D01*
X136714846Y-117145835D01*
X136703260Y-116883119D01*
X136640644Y-116627710D01*
X136529402Y-116389427D01*
X136412800Y-116230547D01*
X135935000Y-115698031D01*
X135935000Y-114892322D01*
X135938676Y-114854999D01*
X135935000Y-114817676D01*
X135935000Y-114817667D01*
X135924003Y-114706014D01*
X135880546Y-114562753D01*
X135809974Y-114430724D01*
X135715001Y-114314999D01*
X135686004Y-114291202D01*
X133278804Y-111884003D01*
X133255001Y-111854999D01*
X133139276Y-111760026D01*
X133007247Y-111689454D01*
X132863986Y-111645997D01*
X132752333Y-111635000D01*
X132752322Y-111635000D01*
X132715000Y-111631324D01*
X132677678Y-111635000D01*
X129657322Y-111635000D01*
X129619999Y-111631324D01*
X129582676Y-111635000D01*
X129582667Y-111635000D01*
X129495183Y-111643617D01*
X137219617Y-103919183D01*
X146082968Y-103919183D01*
X146178081Y-104061529D01*
X146397431Y-104280879D01*
X146655360Y-104453222D01*
X146941956Y-104571934D01*
X147246204Y-104632452D01*
X147556412Y-104632452D01*
X147860660Y-104571934D01*
X148147256Y-104453222D01*
X148405185Y-104280879D01*
X148624535Y-104061529D01*
X148796878Y-103803600D01*
X148915590Y-103517004D01*
X148943689Y-103375738D01*
X149168796Y-104131453D01*
X140967298Y-129366835D01*
X140946410Y-129462003D01*
X140945637Y-129501222D01*
X140906091Y-129904545D01*
X140800220Y-130255206D01*
X140628257Y-130578623D01*
X140396748Y-130862482D01*
X140114514Y-131095965D01*
X139792304Y-131270184D01*
X139442385Y-131378502D01*
X139047557Y-131420000D01*
X121317278Y-131420000D01*
X120890529Y-131378157D01*
X120511077Y-131263594D01*
X120161114Y-131077515D01*
X119933642Y-130891993D01*
X108599127Y-101449108D01*
X108567475Y-101147958D01*
X108555449Y-101089371D01*
X108544238Y-101030601D01*
X108541574Y-101021779D01*
X108431633Y-100666615D01*
X108408449Y-100611464D01*
X108386044Y-100556008D01*
X108381717Y-100547872D01*
X108204885Y-100220827D01*
X108171469Y-100171285D01*
X108138680Y-100121178D01*
X108132855Y-100114037D01*
X107895866Y-99827568D01*
X107853451Y-99785448D01*
X107811569Y-99742679D01*
X107804468Y-99736805D01*
X107516351Y-99501822D01*
X107466540Y-99468728D01*
X107417168Y-99434922D01*
X107409062Y-99430539D01*
X107080790Y-99255994D01*
X107025489Y-99233201D01*
X106970504Y-99209634D01*
X106961700Y-99206909D01*
X106605778Y-99099449D01*
X106547078Y-99087826D01*
X106488584Y-99075393D01*
X106479422Y-99074430D01*
X106479420Y-99074430D01*
X106129801Y-99040150D01*
X106118021Y-99038251D01*
X54662563Y-95861989D01*
X54368795Y-95833185D01*
X54136774Y-95763133D01*
X53922778Y-95649350D01*
X53734961Y-95496169D01*
X53580471Y-95309424D01*
X53465198Y-95096231D01*
X53393528Y-94864701D01*
X53365000Y-94593276D01*
X53365000Y-76867277D01*
X53391815Y-76593796D01*
X53461867Y-76361774D01*
X53575650Y-76147778D01*
X53728832Y-75959959D01*
X53915577Y-75805470D01*
X54128769Y-75690199D01*
X54360300Y-75618528D01*
X54631069Y-75590069D01*
X54686525Y-75586349D01*
X73800481Y-72400691D01*
X73800494Y-72400688D01*
X92764627Y-69240000D01*
X110435379Y-69240000D01*
X129414076Y-72403116D01*
G37*
X129414076Y-72403116D02*
X139475535Y-74638997D01*
X139240648Y-74685718D01*
X138954052Y-74804430D01*
X138696123Y-74976773D01*
X138476773Y-75196123D01*
X138304430Y-75454052D01*
X138185718Y-75740648D01*
X138125200Y-76044896D01*
X138125200Y-76355104D01*
X138185718Y-76659352D01*
X138304430Y-76945948D01*
X138476773Y-77203877D01*
X138696123Y-77423227D01*
X138954052Y-77595570D01*
X139150649Y-77677003D01*
X139004549Y-77895657D01*
X138885837Y-78182253D01*
X138825319Y-78486501D01*
X138825319Y-78796709D01*
X138885837Y-79100957D01*
X139004549Y-79387553D01*
X139176892Y-79645482D01*
X139396242Y-79864832D01*
X139654171Y-80037175D01*
X139850768Y-80118608D01*
X139704668Y-80337261D01*
X139585956Y-80623857D01*
X139525438Y-80928105D01*
X139525438Y-81238313D01*
X139585956Y-81542561D01*
X139704668Y-81829157D01*
X139877011Y-82087086D01*
X140096361Y-82306436D01*
X140354290Y-82478779D01*
X140550887Y-82560212D01*
X140404787Y-82778866D01*
X140286075Y-83065462D01*
X140225557Y-83369710D01*
X140225557Y-83679918D01*
X140286075Y-83984166D01*
X140404787Y-84270762D01*
X140577130Y-84528691D01*
X140796480Y-84748041D01*
X141054409Y-84920384D01*
X141251006Y-85001817D01*
X141104906Y-85220471D01*
X140986194Y-85507067D01*
X140925676Y-85811315D01*
X140925676Y-86121523D01*
X140986194Y-86425771D01*
X141104906Y-86712367D01*
X141277249Y-86970296D01*
X141496599Y-87189646D01*
X141754528Y-87361989D01*
X141951124Y-87443422D01*
X141805024Y-87662076D01*
X141686312Y-87948672D01*
X141625794Y-88252920D01*
X141625794Y-88563128D01*
X141686312Y-88867376D01*
X141805024Y-89153972D01*
X141977367Y-89411901D01*
X142196717Y-89631251D01*
X142454646Y-89803594D01*
X142651243Y-89885027D01*
X142505143Y-90103680D01*
X142468908Y-90191159D01*
X137273323Y-90191159D01*
X126893285Y-79811122D01*
X126923798Y-79777793D01*
X127060122Y-79552917D01*
X127149955Y-79305763D01*
X127189846Y-79045835D01*
X127178260Y-78783119D01*
X127115644Y-78527710D01*
X127004402Y-78289427D01*
X126887800Y-78130547D01*
X126399508Y-77586338D01*
X126335631Y-77527857D01*
X126321999Y-77502354D01*
X126284974Y-77433085D01*
X126213799Y-77346359D01*
X126190001Y-77317361D01*
X126161003Y-77293563D01*
X123286442Y-74419003D01*
X123262639Y-74389999D01*
X123146914Y-74295026D01*
X123014885Y-74224454D01*
X122871624Y-74180997D01*
X122759971Y-74170000D01*
X122759960Y-74170000D01*
X122722638Y-74166324D01*
X122685316Y-74170000D01*
X119273110Y-74170000D01*
X119235787Y-74166324D01*
X119198464Y-74170000D01*
X119198454Y-74170000D01*
X119086801Y-74180997D01*
X118947325Y-74223306D01*
X118943540Y-74224454D01*
X118811510Y-74295026D01*
X118761874Y-74335762D01*
X118695786Y-74389999D01*
X118671988Y-74418997D01*
X117619002Y-75471983D01*
X117589999Y-75495786D01*
X117536866Y-75560529D01*
X117495026Y-75611511D01*
X117434363Y-75725003D01*
X117424454Y-75743541D01*
X117380997Y-75886802D01*
X117370000Y-75998455D01*
X117370000Y-75998465D01*
X117369395Y-76004611D01*
X117357874Y-76011830D01*
X117335537Y-76021082D01*
X117221551Y-76097245D01*
X117105431Y-76170002D01*
X117087849Y-76186582D01*
X117067748Y-76200013D01*
X116970815Y-76296946D01*
X116871116Y-76390963D01*
X116857106Y-76410655D01*
X116840013Y-76427748D01*
X116763848Y-76541736D01*
X116684411Y-76653392D01*
X116674514Y-76675435D01*
X116661082Y-76695537D01*
X116608616Y-76822201D01*
X116552491Y-76947201D01*
X116547084Y-76970751D01*
X116537832Y-76993088D01*
X116511085Y-77127556D01*
X116480425Y-77261102D01*
X116479717Y-77285255D01*
X116475000Y-77308967D01*
X116475000Y-77334850D01*
X116424463Y-77301082D01*
X116126912Y-77177832D01*
X115811033Y-77115000D01*
X115488967Y-77115000D01*
X115173088Y-77177832D01*
X114875537Y-77301082D01*
X114607748Y-77480013D01*
X114380013Y-77707748D01*
X114201082Y-77975537D01*
X114077832Y-78273088D01*
X114015000Y-78588967D01*
X114015000Y-78911033D01*
X114077832Y-79226912D01*
X114201082Y-79524463D01*
X114380013Y-79792252D01*
X114607748Y-80019987D01*
X114875537Y-80198918D01*
X115173088Y-80322168D01*
X115235682Y-80334619D01*
X115248354Y-80417191D01*
X115260744Y-80451279D01*
X115267832Y-80486912D01*
X115315704Y-80602484D01*
X115358375Y-80719882D01*
X115377182Y-80750905D01*
X115391082Y-80784463D01*
X115460566Y-80888453D01*
X115525335Y-80995294D01*
X115543376Y-81015000D01*
X115418816Y-81015000D01*
X115167448Y-81065000D01*
X115003740Y-81065000D01*
X114716842Y-81122068D01*
X114446589Y-81234010D01*
X114203368Y-81396525D01*
X113996525Y-81603368D01*
X113834010Y-81846589D01*
X113818891Y-81883090D01*
X108091053Y-76155254D01*
X108099955Y-76130763D01*
X108139846Y-75870835D01*
X108128260Y-75608119D01*
X108065644Y-75352710D01*
X107954402Y-75114427D01*
X107837800Y-74955547D01*
X107434153Y-74505676D01*
X107429002Y-74453376D01*
X107385546Y-74310115D01*
X107314974Y-74178085D01*
X107243799Y-74091359D01*
X107220001Y-74062361D01*
X107191003Y-74038563D01*
X104396442Y-71244003D01*
X104372639Y-71214999D01*
X104256914Y-71120026D01*
X104124885Y-71049454D01*
X103981624Y-71005997D01*
X103869971Y-70995000D01*
X103869960Y-70995000D01*
X103832638Y-70991324D01*
X103795316Y-70995000D01*
X100223112Y-70995000D01*
X100185787Y-70991324D01*
X100148462Y-70995000D01*
X100148454Y-70995000D01*
X100036801Y-71005997D01*
X99893540Y-71049454D01*
X99761511Y-71120026D01*
X99645786Y-71214999D01*
X99621988Y-71243997D01*
X98589002Y-72276983D01*
X98559999Y-72300786D01*
X98511818Y-72359495D01*
X98465026Y-72416511D01*
X98441489Y-72460546D01*
X98394454Y-72548541D01*
X98350997Y-72691802D01*
X98340000Y-72803455D01*
X98340000Y-72803465D01*
X98338352Y-72820197D01*
X98328350Y-72824000D01*
X98307874Y-72836830D01*
X98285537Y-72846082D01*
X98171551Y-72922245D01*
X98055431Y-72995002D01*
X98037849Y-73011582D01*
X98017748Y-73025013D01*
X97920815Y-73121946D01*
X97821116Y-73215963D01*
X97807106Y-73235655D01*
X97790013Y-73252748D01*
X97713848Y-73366736D01*
X97634411Y-73478392D01*
X97624514Y-73500435D01*
X97611082Y-73520537D01*
X97558616Y-73647201D01*
X97502491Y-73772201D01*
X97497084Y-73795751D01*
X97487832Y-73818088D01*
X97461085Y-73952556D01*
X97430425Y-74086102D01*
X97429717Y-74110255D01*
X97425000Y-74133967D01*
X97425000Y-74159850D01*
X97374463Y-74126082D01*
X97076912Y-74002832D01*
X96761033Y-73940000D01*
X96438967Y-73940000D01*
X96123088Y-74002832D01*
X95825537Y-74126082D01*
X95557748Y-74305013D01*
X95330013Y-74532748D01*
X95151082Y-74800537D01*
X95027832Y-75098088D01*
X94965000Y-75413967D01*
X94965000Y-75736033D01*
X95027832Y-76051912D01*
X95151082Y-76349463D01*
X95330013Y-76617252D01*
X95557748Y-76844987D01*
X95825537Y-77023918D01*
X96123088Y-77147168D01*
X96185682Y-77159619D01*
X96198354Y-77242191D01*
X96210744Y-77276279D01*
X96217832Y-77311912D01*
X96265704Y-77427484D01*
X96308375Y-77544882D01*
X96327182Y-77575905D01*
X96341082Y-77609463D01*
X96410566Y-77713453D01*
X96475335Y-77820294D01*
X96493376Y-77840000D01*
X96368816Y-77840000D01*
X96117448Y-77890000D01*
X95953740Y-77890000D01*
X95666842Y-77947068D01*
X95396589Y-78059010D01*
X95153368Y-78221525D01*
X94946525Y-78428368D01*
X94784010Y-78671589D01*
X94672068Y-78941842D01*
X94615000Y-79228740D01*
X94615000Y-79521260D01*
X94672068Y-79808158D01*
X94784010Y-80078411D01*
X94946525Y-80321632D01*
X95153368Y-80528475D01*
X95396589Y-80690990D01*
X95666842Y-80802932D01*
X95953740Y-80860000D01*
X96117448Y-80860000D01*
X96368816Y-80910000D01*
X96671184Y-80910000D01*
X96967743Y-80851011D01*
X97247095Y-80735299D01*
X97498505Y-80567312D01*
X97712312Y-80353505D01*
X97880299Y-80102095D01*
X97996011Y-79822743D01*
X98055000Y-79526184D01*
X98055000Y-79223816D01*
X98033570Y-79116076D01*
X98971100Y-79116076D01*
X98971100Y-79633924D01*
X99072127Y-80141822D01*
X99270299Y-80620251D01*
X99558000Y-81050826D01*
X99924174Y-81417000D01*
X100354749Y-81704701D01*
X100833178Y-81902873D01*
X101341076Y-82003900D01*
X101858924Y-82003900D01*
X102366822Y-81902873D01*
X102845251Y-81704701D01*
X103275826Y-81417000D01*
X103642000Y-81050826D01*
X103929701Y-80620251D01*
X104127873Y-80141822D01*
X104228900Y-79633924D01*
X104228900Y-79116076D01*
X104127873Y-78608178D01*
X103929701Y-78129749D01*
X103642000Y-77699174D01*
X103275826Y-77333000D01*
X102845251Y-77045299D01*
X102366822Y-76847127D01*
X101858924Y-76746100D01*
X101341076Y-76746100D01*
X100833178Y-76847127D01*
X100354749Y-77045299D01*
X99924174Y-77333000D01*
X99558000Y-77699174D01*
X99270299Y-78129749D01*
X99072127Y-78608178D01*
X98971100Y-79116076D01*
X98033570Y-79116076D01*
X97996011Y-78927257D01*
X97880299Y-78647905D01*
X97761656Y-78470343D01*
X97878851Y-78475511D01*
X97914760Y-78470000D01*
X97951033Y-78470000D01*
X98073540Y-78445632D01*
X98197192Y-78426655D01*
X98231336Y-78414244D01*
X98266912Y-78407168D01*
X98382299Y-78359373D01*
X98499883Y-78316634D01*
X98530955Y-78297797D01*
X98564463Y-78283918D01*
X98668298Y-78214538D01*
X98775295Y-78149674D01*
X98802097Y-78125136D01*
X98832252Y-78104987D01*
X98920555Y-78016684D01*
X98953312Y-77986694D01*
X98977474Y-77959765D01*
X99059987Y-77877252D01*
X99084717Y-77840241D01*
X100287323Y-76499916D01*
X100369987Y-76417252D01*
X100439511Y-76313202D01*
X100513387Y-76212540D01*
X100528727Y-76179682D01*
X100548918Y-76149463D01*
X100596808Y-76033847D01*
X100649626Y-75920707D01*
X100658260Y-75885488D01*
X100672168Y-75851912D01*
X100696581Y-75729182D01*
X100726313Y-75607904D01*
X100727911Y-75571673D01*
X100735000Y-75536033D01*
X100735000Y-75410914D01*
X100740502Y-75286149D01*
X100735000Y-75250299D01*
X100735000Y-75213967D01*
X100718620Y-75131617D01*
X100729575Y-75083898D01*
X100730283Y-75059745D01*
X100735000Y-75036033D01*
X100735000Y-74898936D01*
X100736022Y-74864106D01*
X100825537Y-74923918D01*
X101123088Y-75047168D01*
X101438967Y-75110000D01*
X101761033Y-75110000D01*
X102076912Y-75047168D01*
X102374463Y-74923918D01*
X102463978Y-74864106D01*
X102465000Y-74898936D01*
X102465000Y-75036033D01*
X102469717Y-75059745D01*
X102470425Y-75083898D01*
X102481380Y-75131617D01*
X102465000Y-75213967D01*
X102465000Y-75536033D01*
X102527832Y-75851912D01*
X102651082Y-76149463D01*
X102830013Y-76417252D01*
X103057748Y-76644987D01*
X103325537Y-76823918D01*
X103623088Y-76947168D01*
X103655670Y-76953649D01*
X104591520Y-77996671D01*
X104742320Y-78134732D01*
X104975620Y-78276163D01*
X105232029Y-78369361D01*
X105480354Y-78407471D01*
X105319701Y-78647905D01*
X105203989Y-78927257D01*
X105145000Y-79223816D01*
X105145000Y-79526184D01*
X105203989Y-79822743D01*
X105319701Y-80102095D01*
X105487688Y-80353505D01*
X105701495Y-80567312D01*
X105952905Y-80735299D01*
X106232257Y-80851011D01*
X106528816Y-80910000D01*
X106831184Y-80910000D01*
X107082552Y-80860000D01*
X107246260Y-80860000D01*
X107533158Y-80802932D01*
X107803411Y-80690990D01*
X108046632Y-80528475D01*
X108253475Y-80321632D01*
X108415990Y-80078411D01*
X108527932Y-79808158D01*
X108585000Y-79521260D01*
X108585000Y-79228740D01*
X108527932Y-78941842D01*
X108415990Y-78671589D01*
X108331828Y-78545631D01*
X114116195Y-84330000D01*
X112709802Y-84330000D01*
X111046303Y-82666502D01*
X111022500Y-82637498D01*
X110906775Y-82542525D01*
X110774746Y-82471953D01*
X110631485Y-82428496D01*
X110519832Y-82417499D01*
X110519821Y-82417499D01*
X110482499Y-82413823D01*
X110445177Y-82417499D01*
X93153620Y-82417499D01*
X88975123Y-78239003D01*
X88951320Y-78209999D01*
X88835595Y-78115026D01*
X88716992Y-78051631D01*
X88390000Y-77687193D01*
X88390000Y-77507322D01*
X88393676Y-77469999D01*
X88390000Y-77432676D01*
X88390000Y-77432668D01*
X88379003Y-77321015D01*
X88335546Y-77177753D01*
X88264974Y-77045724D01*
X88209257Y-76977832D01*
X88193799Y-76958996D01*
X88193795Y-76958992D01*
X88170001Y-76929999D01*
X88141008Y-76906205D01*
X85653804Y-74419003D01*
X85630001Y-74389999D01*
X85514276Y-74295026D01*
X85382247Y-74224454D01*
X85238986Y-74180997D01*
X85127333Y-74170000D01*
X85127322Y-74170000D01*
X85090000Y-74166324D01*
X85052678Y-74170000D01*
X81173110Y-74170000D01*
X81135787Y-74166324D01*
X81098464Y-74170000D01*
X81098454Y-74170000D01*
X80986801Y-74180997D01*
X80847325Y-74223306D01*
X80843540Y-74224454D01*
X80711510Y-74295026D01*
X80661874Y-74335762D01*
X80595786Y-74389999D01*
X80571988Y-74418997D01*
X79519002Y-75471983D01*
X79489999Y-75495786D01*
X79436866Y-75560529D01*
X79395026Y-75611511D01*
X79334363Y-75725003D01*
X79324454Y-75743541D01*
X79280997Y-75886802D01*
X79270000Y-75998455D01*
X79270000Y-75998465D01*
X79269395Y-76004611D01*
X79257874Y-76011830D01*
X79235537Y-76021082D01*
X79121551Y-76097245D01*
X79005431Y-76170002D01*
X78987849Y-76186582D01*
X78967748Y-76200013D01*
X78870815Y-76296946D01*
X78771116Y-76390963D01*
X78757106Y-76410655D01*
X78740013Y-76427748D01*
X78663848Y-76541736D01*
X78584411Y-76653392D01*
X78574514Y-76675435D01*
X78561082Y-76695537D01*
X78508616Y-76822201D01*
X78452491Y-76947201D01*
X78447084Y-76970751D01*
X78437832Y-76993088D01*
X78411085Y-77127556D01*
X78380425Y-77261102D01*
X78379717Y-77285255D01*
X78375000Y-77308967D01*
X78375000Y-77334850D01*
X78324463Y-77301082D01*
X78026912Y-77177832D01*
X77711033Y-77115000D01*
X77388967Y-77115000D01*
X77073088Y-77177832D01*
X76775537Y-77301082D01*
X76507748Y-77480013D01*
X76280013Y-77707748D01*
X76101082Y-77975537D01*
X75977832Y-78273088D01*
X75915000Y-78588967D01*
X75915000Y-78911033D01*
X75977832Y-79226912D01*
X76101082Y-79524463D01*
X76280013Y-79792252D01*
X76507748Y-80019987D01*
X76775537Y-80198918D01*
X77073088Y-80322168D01*
X77135682Y-80334619D01*
X77148354Y-80417191D01*
X77160744Y-80451279D01*
X77167832Y-80486912D01*
X77215704Y-80602484D01*
X77258375Y-80719882D01*
X77277182Y-80750905D01*
X77291082Y-80784463D01*
X77360566Y-80888453D01*
X77425335Y-80995294D01*
X77443376Y-81015000D01*
X77318816Y-81015000D01*
X77067448Y-81065000D01*
X76903740Y-81065000D01*
X76616842Y-81122068D01*
X76346589Y-81234010D01*
X76103368Y-81396525D01*
X75896525Y-81603368D01*
X75734010Y-81846589D01*
X75622068Y-82116842D01*
X75565000Y-82403740D01*
X75565000Y-82696260D01*
X75622068Y-82983158D01*
X75734010Y-83253411D01*
X75896525Y-83496632D01*
X76103368Y-83703475D01*
X76346589Y-83865990D01*
X76616842Y-83977932D01*
X76903740Y-84035000D01*
X77067448Y-84035000D01*
X77318816Y-84085000D01*
X77621184Y-84085000D01*
X77917743Y-84026011D01*
X78197095Y-83910299D01*
X78448505Y-83742312D01*
X78662312Y-83528505D01*
X78830299Y-83277095D01*
X78946011Y-82997743D01*
X79005000Y-82701184D01*
X79005000Y-82398816D01*
X78946011Y-82102257D01*
X78830299Y-81822905D01*
X78711656Y-81645343D01*
X78828851Y-81650511D01*
X78864760Y-81645000D01*
X78901033Y-81645000D01*
X79023540Y-81620632D01*
X79147192Y-81601655D01*
X79181336Y-81589244D01*
X79216912Y-81582168D01*
X79332299Y-81534373D01*
X79449883Y-81491634D01*
X79480955Y-81472797D01*
X79514463Y-81458918D01*
X79618298Y-81389538D01*
X79725295Y-81324674D01*
X79752097Y-81300136D01*
X79782252Y-81279987D01*
X79870555Y-81191684D01*
X79903312Y-81161694D01*
X79927474Y-81134765D01*
X80009987Y-81052252D01*
X80034717Y-81015241D01*
X81237323Y-79674916D01*
X81319987Y-79592252D01*
X81389511Y-79488202D01*
X81463387Y-79387540D01*
X81478727Y-79354682D01*
X81498918Y-79324463D01*
X81546808Y-79208847D01*
X81599626Y-79095707D01*
X81608260Y-79060488D01*
X81622168Y-79026912D01*
X81646581Y-78904182D01*
X81676313Y-78782904D01*
X81677911Y-78746673D01*
X81685000Y-78711033D01*
X81685000Y-78585914D01*
X81690502Y-78461149D01*
X81685000Y-78425299D01*
X81685000Y-78388967D01*
X81668620Y-78306617D01*
X81679575Y-78258898D01*
X81680283Y-78234745D01*
X81685000Y-78211033D01*
X81685000Y-78073936D01*
X81686022Y-78039106D01*
X81775537Y-78098918D01*
X82073088Y-78222168D01*
X82388967Y-78285000D01*
X82711033Y-78285000D01*
X83026912Y-78222168D01*
X83324463Y-78098918D01*
X83413978Y-78039106D01*
X83415000Y-78073936D01*
X83415000Y-78211033D01*
X83419717Y-78234745D01*
X83420425Y-78258898D01*
X83431380Y-78306617D01*
X83415000Y-78388967D01*
X83415000Y-78711033D01*
X83477832Y-79026912D01*
X83601082Y-79324463D01*
X83780013Y-79592252D01*
X84007748Y-79819987D01*
X84275537Y-79998918D01*
X84573088Y-80122168D01*
X84605670Y-80128649D01*
X85541520Y-81171671D01*
X85692320Y-81309732D01*
X85925620Y-81451163D01*
X86182029Y-81544361D01*
X86430354Y-81582471D01*
X86269701Y-81822905D01*
X86153989Y-82102257D01*
X86095000Y-82398816D01*
X86095000Y-82701184D01*
X86153989Y-82997743D01*
X86269701Y-83277095D01*
X86437688Y-83528505D01*
X86651495Y-83742312D01*
X86902905Y-83910299D01*
X87182257Y-84026011D01*
X87478816Y-84085000D01*
X87781184Y-84085000D01*
X88032552Y-84035000D01*
X88196260Y-84035000D01*
X88483158Y-83977932D01*
X88753411Y-83865990D01*
X88996632Y-83703475D01*
X89203475Y-83496632D01*
X89365990Y-83253411D01*
X89477932Y-82983158D01*
X89535000Y-82696260D01*
X89535000Y-82403740D01*
X89477932Y-82116842D01*
X89365990Y-81846589D01*
X89203475Y-81603368D01*
X88996632Y-81396525D01*
X88753411Y-81234010D01*
X88483158Y-81122068D01*
X88196260Y-81065000D01*
X88032552Y-81065000D01*
X87781184Y-81015000D01*
X87650132Y-81015000D01*
X87782038Y-80797412D01*
X87875237Y-80541004D01*
X87911845Y-80302468D01*
X87940524Y-80301203D01*
X88195933Y-80238587D01*
X88434217Y-80127346D01*
X88595498Y-80008981D01*
X92275018Y-83688501D01*
X92298817Y-83717500D01*
X92327815Y-83741298D01*
X92414541Y-83812473D01*
X92514664Y-83865990D01*
X92546571Y-83883045D01*
X92689832Y-83926502D01*
X92801485Y-83937499D01*
X92801494Y-83937499D01*
X92838817Y-83941175D01*
X92876140Y-83937499D01*
X98826058Y-83937499D01*
X98803507Y-83991943D01*
X98742500Y-84298645D01*
X98742500Y-84611355D01*
X98803507Y-84918057D01*
X98826058Y-84972501D01*
X83571212Y-84972501D01*
X83795251Y-84879701D01*
X84225826Y-84592000D01*
X84592000Y-84225826D01*
X84879701Y-83795251D01*
X85077873Y-83316822D01*
X85178900Y-82808924D01*
X85178900Y-82291076D01*
X85077873Y-81783178D01*
X84879701Y-81304749D01*
X84592000Y-80874174D01*
X84225826Y-80508000D01*
X83795251Y-80220299D01*
X83316822Y-80022127D01*
X82808924Y-79921100D01*
X82291076Y-79921100D01*
X81783178Y-80022127D01*
X81304749Y-80220299D01*
X80874174Y-80508000D01*
X80508000Y-80874174D01*
X80220299Y-81304749D01*
X80022127Y-81783178D01*
X79921100Y-82291076D01*
X79921100Y-82808924D01*
X80022127Y-83316822D01*
X80220299Y-83795251D01*
X80508000Y-84225826D01*
X80874174Y-84592000D01*
X81304749Y-84879701D01*
X81528788Y-84972501D01*
X73483622Y-84972501D01*
X69925123Y-81414003D01*
X69901320Y-81384999D01*
X69785595Y-81290026D01*
X69666992Y-81226631D01*
X69260000Y-80773031D01*
X69260000Y-79332322D01*
X69263676Y-79294999D01*
X69260000Y-79257676D01*
X69260000Y-79257667D01*
X69249003Y-79146014D01*
X69205546Y-79002753D01*
X69149843Y-78898541D01*
X69134974Y-78870723D01*
X69063799Y-78783997D01*
X69040001Y-78754999D01*
X69011003Y-78731201D01*
X67873804Y-77594003D01*
X67850001Y-77564999D01*
X67734276Y-77470026D01*
X67602247Y-77399454D01*
X67458986Y-77355997D01*
X67347333Y-77345000D01*
X67347322Y-77345000D01*
X67310000Y-77341324D01*
X67272678Y-77345000D01*
X62123112Y-77345000D01*
X62085787Y-77341324D01*
X62048462Y-77345000D01*
X62048454Y-77345000D01*
X61936801Y-77355997D01*
X61793540Y-77399454D01*
X61661511Y-77470026D01*
X61545786Y-77564999D01*
X61521988Y-77593997D01*
X60489002Y-78626983D01*
X60459999Y-78650786D01*
X60411180Y-78710273D01*
X60365026Y-78766511D01*
X60318260Y-78854003D01*
X60294454Y-78898541D01*
X60250997Y-79041802D01*
X60240000Y-79153455D01*
X60240000Y-79153465D01*
X60238352Y-79170197D01*
X60228350Y-79174000D01*
X60207874Y-79186830D01*
X60185537Y-79196082D01*
X60071551Y-79272245D01*
X59955431Y-79345002D01*
X59937849Y-79361582D01*
X59917748Y-79375013D01*
X59820815Y-79471946D01*
X59721116Y-79565963D01*
X59707106Y-79585655D01*
X59690013Y-79602748D01*
X59613848Y-79716736D01*
X59534411Y-79828392D01*
X59524514Y-79850435D01*
X59511082Y-79870537D01*
X59458616Y-79997201D01*
X59402491Y-80122201D01*
X59397084Y-80145751D01*
X59387832Y-80168088D01*
X59361085Y-80302556D01*
X59330425Y-80436102D01*
X59329717Y-80460255D01*
X59325000Y-80483967D01*
X59325000Y-80509850D01*
X59274463Y-80476082D01*
X58976912Y-80352832D01*
X58661033Y-80290000D01*
X58338967Y-80290000D01*
X58023088Y-80352832D01*
X57725537Y-80476082D01*
X57457748Y-80655013D01*
X57230013Y-80882748D01*
X57051082Y-81150537D01*
X56927832Y-81448088D01*
X56865000Y-81763967D01*
X56865000Y-82086033D01*
X56927832Y-82401912D01*
X57051082Y-82699463D01*
X57230013Y-82967252D01*
X57457748Y-83194987D01*
X57725537Y-83373918D01*
X58023088Y-83497168D01*
X58085682Y-83509619D01*
X58098354Y-83592191D01*
X58110744Y-83626279D01*
X58117832Y-83661912D01*
X58165704Y-83777484D01*
X58208375Y-83894882D01*
X58227182Y-83925905D01*
X58241082Y-83959463D01*
X58310566Y-84063453D01*
X58375335Y-84170294D01*
X58393376Y-84190000D01*
X58268816Y-84190000D01*
X58017448Y-84240000D01*
X57853740Y-84240000D01*
X57566842Y-84297068D01*
X57296589Y-84409010D01*
X57053368Y-84571525D01*
X56846525Y-84778368D01*
X56684010Y-85021589D01*
X56572068Y-85291842D01*
X56515000Y-85578740D01*
X56515000Y-85871260D01*
X56572068Y-86158158D01*
X56684010Y-86428411D01*
X56846525Y-86671632D01*
X57053368Y-86878475D01*
X57296589Y-87040990D01*
X57566842Y-87152932D01*
X57853740Y-87210000D01*
X58017448Y-87210000D01*
X58268816Y-87260000D01*
X58571184Y-87260000D01*
X58867743Y-87201011D01*
X59147095Y-87085299D01*
X59398505Y-86917312D01*
X59612312Y-86703505D01*
X59780299Y-86452095D01*
X59896011Y-86172743D01*
X59955000Y-85876184D01*
X59955000Y-85573816D01*
X59933570Y-85466076D01*
X60871100Y-85466076D01*
X60871100Y-85983924D01*
X60972127Y-86491822D01*
X61170299Y-86970251D01*
X61458000Y-87400826D01*
X61824174Y-87767000D01*
X62254749Y-88054701D01*
X62733178Y-88252873D01*
X63241076Y-88353900D01*
X63758924Y-88353900D01*
X64266822Y-88252873D01*
X64745251Y-88054701D01*
X65175826Y-87767000D01*
X65542000Y-87400826D01*
X65829701Y-86970251D01*
X66027873Y-86491822D01*
X66128900Y-85983924D01*
X66128900Y-85466076D01*
X66027873Y-84958178D01*
X65829701Y-84479749D01*
X65542000Y-84049174D01*
X65175826Y-83683000D01*
X64745251Y-83395299D01*
X64266822Y-83197127D01*
X63758924Y-83096100D01*
X63241076Y-83096100D01*
X62733178Y-83197127D01*
X62254749Y-83395299D01*
X61824174Y-83683000D01*
X61458000Y-84049174D01*
X61170299Y-84479749D01*
X60972127Y-84958178D01*
X60871100Y-85466076D01*
X59933570Y-85466076D01*
X59896011Y-85277257D01*
X59780299Y-84997905D01*
X59661656Y-84820343D01*
X59778851Y-84825511D01*
X59814760Y-84820000D01*
X59851033Y-84820000D01*
X59973540Y-84795632D01*
X60097192Y-84776655D01*
X60131336Y-84764244D01*
X60166912Y-84757168D01*
X60282299Y-84709373D01*
X60399883Y-84666634D01*
X60430955Y-84647797D01*
X60464463Y-84633918D01*
X60568298Y-84564538D01*
X60675295Y-84499674D01*
X60702097Y-84475136D01*
X60732252Y-84454987D01*
X60820555Y-84366684D01*
X60853312Y-84336694D01*
X60877474Y-84309765D01*
X60959987Y-84227252D01*
X60984717Y-84190241D01*
X62187323Y-82849916D01*
X62269987Y-82767252D01*
X62339511Y-82663202D01*
X62413387Y-82562540D01*
X62428727Y-82529682D01*
X62448918Y-82499463D01*
X62496808Y-82383847D01*
X62549626Y-82270707D01*
X62558260Y-82235488D01*
X62572168Y-82201912D01*
X62596581Y-82079182D01*
X62626313Y-81957904D01*
X62627911Y-81921673D01*
X62635000Y-81886033D01*
X62635000Y-81760914D01*
X62640502Y-81636149D01*
X62635000Y-81600299D01*
X62635000Y-81563967D01*
X62618620Y-81481617D01*
X62629575Y-81433898D01*
X62630283Y-81409745D01*
X62635000Y-81386033D01*
X62635000Y-81248936D01*
X62636022Y-81214106D01*
X62725537Y-81273918D01*
X63023088Y-81397168D01*
X63338967Y-81460000D01*
X63661033Y-81460000D01*
X63976912Y-81397168D01*
X64274463Y-81273918D01*
X64363978Y-81214106D01*
X64365000Y-81248936D01*
X64365000Y-81386033D01*
X64369717Y-81409745D01*
X64370425Y-81433898D01*
X64381380Y-81481617D01*
X64365000Y-81563967D01*
X64365000Y-81886033D01*
X64427832Y-82201912D01*
X64551082Y-82499463D01*
X64730013Y-82767252D01*
X64957748Y-82994987D01*
X65225537Y-83173918D01*
X65523088Y-83297168D01*
X65555670Y-83303649D01*
X66491520Y-84346671D01*
X66642320Y-84484732D01*
X66875620Y-84626163D01*
X67132029Y-84719361D01*
X67380354Y-84757471D01*
X67219701Y-84997905D01*
X67103989Y-85277257D01*
X67045000Y-85573816D01*
X67045000Y-85876184D01*
X67103989Y-86172743D01*
X67219701Y-86452095D01*
X67387688Y-86703505D01*
X67601495Y-86917312D01*
X67852905Y-87085299D01*
X68132257Y-87201011D01*
X68428816Y-87260000D01*
X68731184Y-87260000D01*
X68982552Y-87210000D01*
X69146260Y-87210000D01*
X69433158Y-87152932D01*
X69703411Y-87040990D01*
X69946632Y-86878475D01*
X70153475Y-86671632D01*
X70315990Y-86428411D01*
X70427932Y-86158158D01*
X70485000Y-85871260D01*
X70485000Y-85578740D01*
X70427932Y-85291842D01*
X70315990Y-85021589D01*
X70153475Y-84778368D01*
X69946632Y-84571525D01*
X69703411Y-84409010D01*
X69433158Y-84297068D01*
X69146260Y-84240000D01*
X68982552Y-84240000D01*
X68731184Y-84190000D01*
X68600132Y-84190000D01*
X68732038Y-83972412D01*
X68825237Y-83716004D01*
X68861845Y-83477468D01*
X68890524Y-83476203D01*
X69145933Y-83413587D01*
X69384217Y-83302346D01*
X69545498Y-83183981D01*
X72605020Y-86243503D01*
X72628819Y-86272502D01*
X72657817Y-86296300D01*
X72744544Y-86367475D01*
X72876573Y-86438047D01*
X73019834Y-86481504D01*
X73168820Y-86496178D01*
X73206153Y-86492501D01*
X80172435Y-86492501D01*
X80046908Y-86618028D01*
X79873176Y-86878037D01*
X79753507Y-87166943D01*
X79692500Y-87473645D01*
X79692500Y-87786355D01*
X79753507Y-88093057D01*
X79873176Y-88381963D01*
X80046908Y-88641972D01*
X80268028Y-88863092D01*
X80528037Y-89036824D01*
X80816943Y-89156493D01*
X81123645Y-89217500D01*
X81436355Y-89217500D01*
X81743057Y-89156493D01*
X82031963Y-89036824D01*
X82291972Y-88863092D01*
X82295549Y-88859515D01*
X82336963Y-88936994D01*
X82416315Y-89033685D01*
X82513006Y-89113037D01*
X82623320Y-89172002D01*
X82743018Y-89208312D01*
X82867500Y-89220572D01*
X83644629Y-89220572D01*
X82820201Y-90045000D01*
X80178072Y-90045000D01*
X80178072Y-90005000D01*
X80165812Y-89880518D01*
X80129502Y-89760820D01*
X80070537Y-89650506D01*
X79991185Y-89553815D01*
X79894494Y-89474463D01*
X79784180Y-89415498D01*
X79664482Y-89379188D01*
X79540000Y-89366928D01*
X77940000Y-89366928D01*
X77815518Y-89379188D01*
X77695820Y-89415498D01*
X77585506Y-89474463D01*
X77488815Y-89553815D01*
X77409463Y-89650506D01*
X77350498Y-89760820D01*
X77314188Y-89880518D01*
X77301928Y-90005000D01*
X77301928Y-90045000D01*
X71792322Y-90045000D01*
X71754999Y-90041324D01*
X71717676Y-90045000D01*
X71717667Y-90045000D01*
X71606014Y-90055997D01*
X71462753Y-90099454D01*
X71330724Y-90170026D01*
X71330722Y-90170027D01*
X71330723Y-90170027D01*
X71243996Y-90241201D01*
X71243992Y-90241205D01*
X71214999Y-90264999D01*
X71191205Y-90293992D01*
X69390200Y-92094999D01*
X66262121Y-92094999D01*
X66312002Y-92001680D01*
X66348312Y-91881982D01*
X66360572Y-91757500D01*
X66360572Y-89852500D01*
X66348312Y-89728018D01*
X66312002Y-89608320D01*
X66253037Y-89498006D01*
X66173685Y-89401315D01*
X66076994Y-89321963D01*
X65966680Y-89262998D01*
X65846982Y-89226688D01*
X65722500Y-89214428D01*
X63817500Y-89214428D01*
X63693018Y-89226688D01*
X63573320Y-89262998D01*
X63463006Y-89321963D01*
X63366315Y-89401315D01*
X63286963Y-89498006D01*
X63245549Y-89575485D01*
X63241972Y-89571908D01*
X62981963Y-89398176D01*
X62693057Y-89278507D01*
X62386355Y-89217500D01*
X62073645Y-89217500D01*
X61766943Y-89278507D01*
X61478037Y-89398176D01*
X61218028Y-89571908D01*
X60996908Y-89793028D01*
X60823176Y-90053037D01*
X60703507Y-90341943D01*
X60642500Y-90648645D01*
X60642500Y-90961355D01*
X60703507Y-91268057D01*
X60823176Y-91556963D01*
X60996908Y-91816972D01*
X61218028Y-92038092D01*
X61303196Y-92094999D01*
X59802323Y-92094999D01*
X59765000Y-92091323D01*
X59727678Y-92094999D01*
X59727668Y-92094999D01*
X59616015Y-92105996D01*
X59472754Y-92149453D01*
X59340725Y-92220025D01*
X59225000Y-92314998D01*
X59201201Y-92343997D01*
X59178996Y-92366203D01*
X59150000Y-92389999D01*
X59126202Y-92418997D01*
X59126201Y-92418998D01*
X59055026Y-92505724D01*
X59035674Y-92541928D01*
X58890000Y-92541928D01*
X58765518Y-92554188D01*
X58645820Y-92590498D01*
X58535506Y-92649463D01*
X58438815Y-92728815D01*
X58359463Y-92825506D01*
X58300498Y-92935820D01*
X58264188Y-93055518D01*
X58251928Y-93180000D01*
X58251928Y-94780000D01*
X58264188Y-94904482D01*
X58300498Y-95024180D01*
X58359463Y-95134494D01*
X58438815Y-95231185D01*
X58535506Y-95310537D01*
X58645820Y-95369502D01*
X58765518Y-95405812D01*
X58890000Y-95418072D01*
X60490000Y-95418072D01*
X60614482Y-95405812D01*
X60734180Y-95369502D01*
X60844494Y-95310537D01*
X60941185Y-95231185D01*
X61020537Y-95134494D01*
X61079502Y-95024180D01*
X61115812Y-94904482D01*
X61128072Y-94780000D01*
X61128072Y-93614999D01*
X65919491Y-93614999D01*
X65875000Y-93838665D01*
X65875000Y-94121335D01*
X65930147Y-94398574D01*
X66038320Y-94659727D01*
X66195363Y-94894759D01*
X66395241Y-95094637D01*
X66630273Y-95251680D01*
X66891426Y-95359853D01*
X67168665Y-95415000D01*
X67451335Y-95415000D01*
X67728574Y-95359853D01*
X67989727Y-95251680D01*
X68224759Y-95094637D01*
X68424637Y-94894759D01*
X68581680Y-94659727D01*
X68689853Y-94398574D01*
X68745000Y-94121335D01*
X68745000Y-93838665D01*
X68700509Y-93614999D01*
X69667679Y-93614999D01*
X69705001Y-93618675D01*
X69742323Y-93614999D01*
X69742334Y-93614999D01*
X69853987Y-93604002D01*
X69997248Y-93560545D01*
X70129277Y-93489973D01*
X70245002Y-93395000D01*
X70268805Y-93365997D01*
X72069803Y-91565000D01*
X77301928Y-91565000D01*
X77301928Y-91605000D01*
X77314188Y-91729482D01*
X77350498Y-91849180D01*
X77409463Y-91959494D01*
X77488815Y-92056185D01*
X77585506Y-92135537D01*
X77695820Y-92194502D01*
X77815518Y-92230812D01*
X77940000Y-92243072D01*
X79540000Y-92243072D01*
X79664482Y-92230812D01*
X79784180Y-92194502D01*
X79894494Y-92135537D01*
X79991185Y-92056185D01*
X80070537Y-91959494D01*
X80129502Y-91849180D01*
X80165812Y-91729482D01*
X80178072Y-91605000D01*
X80178072Y-91565000D01*
X83097680Y-91565000D01*
X83135002Y-91568676D01*
X83172324Y-91565000D01*
X83172335Y-91565000D01*
X83283988Y-91554003D01*
X83427249Y-91510546D01*
X83559278Y-91439974D01*
X83675003Y-91345001D01*
X83698806Y-91315997D01*
X84351138Y-90663665D01*
X84925000Y-90663665D01*
X84925000Y-90946335D01*
X84980147Y-91223574D01*
X85088320Y-91484727D01*
X85245363Y-91719759D01*
X85445241Y-91919637D01*
X85680273Y-92076680D01*
X85941426Y-92184853D01*
X86218665Y-92240000D01*
X86501335Y-92240000D01*
X86778574Y-92184853D01*
X87039727Y-92076680D01*
X87274759Y-91919637D01*
X87474637Y-91719759D01*
X87631680Y-91484727D01*
X87739853Y-91223574D01*
X87795000Y-90946335D01*
X87795000Y-90663665D01*
X87739853Y-90386426D01*
X87631680Y-90125273D01*
X87474637Y-89890241D01*
X87274759Y-89690363D01*
X87039727Y-89533320D01*
X86778574Y-89425147D01*
X86501335Y-89370000D01*
X86218665Y-89370000D01*
X85941426Y-89425147D01*
X85680273Y-89533320D01*
X85445241Y-89690363D01*
X85245363Y-89890241D01*
X85088320Y-90125273D01*
X84980147Y-90386426D01*
X84925000Y-90663665D01*
X84351138Y-90663665D01*
X86624804Y-88390000D01*
X96351928Y-88390000D01*
X96351928Y-88430000D01*
X96364188Y-88554482D01*
X96400498Y-88674180D01*
X96459463Y-88784494D01*
X96538815Y-88881185D01*
X96635506Y-88960537D01*
X96745820Y-89019502D01*
X96865518Y-89055812D01*
X96990000Y-89068072D01*
X98590000Y-89068072D01*
X98714482Y-89055812D01*
X98834180Y-89019502D01*
X98944494Y-88960537D01*
X99041185Y-88881185D01*
X99120537Y-88784494D01*
X99179502Y-88674180D01*
X99215812Y-88554482D01*
X99228072Y-88430000D01*
X99228072Y-88390000D01*
X102147680Y-88390000D01*
X102185002Y-88393676D01*
X102222324Y-88390000D01*
X102222335Y-88390000D01*
X102333988Y-88379003D01*
X102477249Y-88335546D01*
X102609278Y-88264974D01*
X102725003Y-88170001D01*
X102748806Y-88140998D01*
X103624805Y-87264999D01*
X104019491Y-87264999D01*
X103975000Y-87488665D01*
X103975000Y-87771335D01*
X104030147Y-88048574D01*
X104138320Y-88309727D01*
X104295363Y-88544759D01*
X104495241Y-88744637D01*
X104730273Y-88901680D01*
X104991426Y-89009853D01*
X105268665Y-89065000D01*
X105551335Y-89065000D01*
X105828574Y-89009853D01*
X106089727Y-88901680D01*
X106324759Y-88744637D01*
X106524637Y-88544759D01*
X106681680Y-88309727D01*
X106789853Y-88048574D01*
X106845000Y-87771335D01*
X106845000Y-87488665D01*
X106800509Y-87264999D01*
X113275198Y-87264999D01*
X115577635Y-89567438D01*
X115509463Y-89650506D01*
X115450498Y-89760820D01*
X115414188Y-89880518D01*
X115401928Y-90005000D01*
X115401928Y-91605000D01*
X115414188Y-91729482D01*
X115450498Y-91849180D01*
X115509463Y-91959494D01*
X115588815Y-92056185D01*
X115685506Y-92135537D01*
X115795820Y-92194502D01*
X115915518Y-92230812D01*
X116040000Y-92243072D01*
X117640000Y-92243072D01*
X117764482Y-92230812D01*
X117884180Y-92194502D01*
X117994494Y-92135537D01*
X118077563Y-92067364D01*
X129680384Y-103670186D01*
X129704182Y-103699184D01*
X129733180Y-103722982D01*
X129819906Y-103794157D01*
X129903726Y-103838960D01*
X129951936Y-103864729D01*
X130095197Y-103908186D01*
X130206850Y-103919183D01*
X130206859Y-103919183D01*
X130244182Y-103922859D01*
X130281505Y-103919183D01*
X135070013Y-103919183D01*
X122989002Y-116000195D01*
X122959998Y-116023998D01*
X122904870Y-116091173D01*
X122865025Y-116139723D01*
X122816478Y-116230547D01*
X122794453Y-116271753D01*
X122750996Y-116415014D01*
X122739999Y-116526667D01*
X122739999Y-116526677D01*
X122736323Y-116563999D01*
X122739999Y-116601321D01*
X122740000Y-127052667D01*
X122736323Y-127089999D01*
X122750997Y-127238984D01*
X122794453Y-127382245D01*
X122865025Y-127514275D01*
X122873948Y-127525147D01*
X122959999Y-127630000D01*
X122988997Y-127653798D01*
X124751201Y-129416003D01*
X124774999Y-129445001D01*
X124803997Y-129468799D01*
X124890723Y-129539974D01*
X124926928Y-129559326D01*
X124926928Y-129705000D01*
X124939188Y-129829482D01*
X124975498Y-129949180D01*
X125034463Y-130059494D01*
X125113815Y-130156185D01*
X125210506Y-130235537D01*
X125320820Y-130294502D01*
X125440518Y-130330812D01*
X125565000Y-130343072D01*
X127165000Y-130343072D01*
X127289482Y-130330812D01*
X127409180Y-130294502D01*
X127519494Y-130235537D01*
X127616185Y-130156185D01*
X127695537Y-130059494D01*
X127754502Y-129949180D01*
X127790812Y-129829482D01*
X127803072Y-129705000D01*
X127803072Y-128763665D01*
X132550000Y-128763665D01*
X132550000Y-129046335D01*
X132605147Y-129323574D01*
X132713320Y-129584727D01*
X132870363Y-129819759D01*
X133070241Y-130019637D01*
X133305273Y-130176680D01*
X133566426Y-130284853D01*
X133843665Y-130340000D01*
X134126335Y-130340000D01*
X134403574Y-130284853D01*
X134664727Y-130176680D01*
X134899759Y-130019637D01*
X135099637Y-129819759D01*
X135256680Y-129584727D01*
X135364853Y-129323574D01*
X135420000Y-129046335D01*
X135420000Y-128763665D01*
X135364853Y-128486426D01*
X135256680Y-128225273D01*
X135099637Y-127990241D01*
X134899759Y-127790363D01*
X134664727Y-127633320D01*
X134403574Y-127525147D01*
X134126335Y-127470000D01*
X133843665Y-127470000D01*
X133566426Y-127525147D01*
X133305273Y-127633320D01*
X133070241Y-127790363D01*
X132870363Y-127990241D01*
X132713320Y-128225273D01*
X132605147Y-128486426D01*
X132550000Y-128763665D01*
X127803072Y-128763665D01*
X127803072Y-128105000D01*
X127790812Y-127980518D01*
X127754502Y-127860820D01*
X127695537Y-127750506D01*
X127616185Y-127653815D01*
X127519494Y-127574463D01*
X127409180Y-127515498D01*
X127289482Y-127479188D01*
X127165000Y-127466928D01*
X125565000Y-127466928D01*
X125440518Y-127479188D01*
X125320820Y-127515498D01*
X125210506Y-127574463D01*
X125127437Y-127642636D01*
X124259999Y-126775198D01*
X124259999Y-125573645D01*
X127317500Y-125573645D01*
X127317500Y-125886355D01*
X127378507Y-126193057D01*
X127498176Y-126481963D01*
X127671908Y-126741972D01*
X127893028Y-126963092D01*
X128153037Y-127136824D01*
X128441943Y-127256493D01*
X128748645Y-127317500D01*
X129061355Y-127317500D01*
X129368057Y-127256493D01*
X129656963Y-127136824D01*
X129916972Y-126963092D01*
X129920549Y-126959515D01*
X129961963Y-127036994D01*
X130041315Y-127133685D01*
X130138006Y-127213037D01*
X130248320Y-127272002D01*
X130368018Y-127308312D01*
X130492500Y-127320572D01*
X132397500Y-127320572D01*
X132521982Y-127308312D01*
X132641680Y-127272002D01*
X132751994Y-127213037D01*
X132848685Y-127133685D01*
X132928037Y-127036994D01*
X132987002Y-126926680D01*
X133023312Y-126806982D01*
X133035572Y-126682500D01*
X133035572Y-124777500D01*
X133023312Y-124653018D01*
X132987002Y-124533320D01*
X132928037Y-124423006D01*
X132848685Y-124326315D01*
X132751994Y-124246963D01*
X132641680Y-124187998D01*
X132521982Y-124151688D01*
X132397500Y-124139428D01*
X130492500Y-124139428D01*
X130368018Y-124151688D01*
X130248320Y-124187998D01*
X130138006Y-124246963D01*
X130041315Y-124326315D01*
X129961963Y-124423006D01*
X129920549Y-124500485D01*
X129916972Y-124496908D01*
X129656963Y-124323176D01*
X129368057Y-124203507D01*
X129061355Y-124142500D01*
X128748645Y-124142500D01*
X128441943Y-124203507D01*
X128153037Y-124323176D01*
X127893028Y-124496908D01*
X127671908Y-124718028D01*
X127498176Y-124978037D01*
X127378507Y-125266943D01*
X127317500Y-125573645D01*
X124259999Y-125573645D01*
X124259999Y-122081544D01*
X124528740Y-122135000D01*
X124692448Y-122135000D01*
X124943816Y-122185000D01*
X125246184Y-122185000D01*
X125542743Y-122126011D01*
X125822095Y-122010299D01*
X126073505Y-121842312D01*
X126287312Y-121628505D01*
X126455299Y-121377095D01*
X126571011Y-121097743D01*
X126630000Y-120801184D01*
X126630000Y-120498816D01*
X126608570Y-120391076D01*
X127546100Y-120391076D01*
X127546100Y-120908924D01*
X127647127Y-121416822D01*
X127845299Y-121895251D01*
X128133000Y-122325826D01*
X128499174Y-122692000D01*
X128929749Y-122979701D01*
X129408178Y-123177873D01*
X129916076Y-123278900D01*
X130433924Y-123278900D01*
X130941822Y-123177873D01*
X131420251Y-122979701D01*
X131850826Y-122692000D01*
X132217000Y-122325826D01*
X132504701Y-121895251D01*
X132702873Y-121416822D01*
X132803900Y-120908924D01*
X132803900Y-120391076D01*
X132702873Y-119883178D01*
X132504701Y-119404749D01*
X132217000Y-118974174D01*
X131850826Y-118608000D01*
X131420251Y-118320299D01*
X130941822Y-118122127D01*
X130433924Y-118021100D01*
X129916076Y-118021100D01*
X129408178Y-118122127D01*
X128929749Y-118320299D01*
X128499174Y-118608000D01*
X128133000Y-118974174D01*
X127845299Y-119404749D01*
X127647127Y-119883178D01*
X127546100Y-120391076D01*
X126608570Y-120391076D01*
X126571011Y-120202257D01*
X126455299Y-119922905D01*
X126336656Y-119745343D01*
X126453851Y-119750511D01*
X126489760Y-119745000D01*
X126526033Y-119745000D01*
X126648540Y-119720632D01*
X126772192Y-119701655D01*
X126806336Y-119689244D01*
X126841912Y-119682168D01*
X126957299Y-119634373D01*
X127074883Y-119591634D01*
X127105955Y-119572797D01*
X127139463Y-119558918D01*
X127243298Y-119489538D01*
X127350295Y-119424674D01*
X127377097Y-119400136D01*
X127407252Y-119379987D01*
X127495555Y-119291684D01*
X127528312Y-119261694D01*
X127552474Y-119234765D01*
X127634987Y-119152252D01*
X127659717Y-119115241D01*
X128862323Y-117774916D01*
X128944987Y-117692252D01*
X129014511Y-117588202D01*
X129088387Y-117487540D01*
X129103727Y-117454682D01*
X129123918Y-117424463D01*
X129171808Y-117308847D01*
X129224626Y-117195707D01*
X129233260Y-117160488D01*
X129247168Y-117126912D01*
X129271581Y-117004182D01*
X129301313Y-116882904D01*
X129302911Y-116846673D01*
X129310000Y-116811033D01*
X129310000Y-116685914D01*
X129315502Y-116561149D01*
X129310000Y-116525299D01*
X129310000Y-116488967D01*
X129293620Y-116406617D01*
X129304575Y-116358898D01*
X129305283Y-116334745D01*
X129310000Y-116311033D01*
X129310000Y-116173936D01*
X129311022Y-116139106D01*
X129400537Y-116198918D01*
X129698088Y-116322168D01*
X130013967Y-116385000D01*
X130336033Y-116385000D01*
X130651912Y-116322168D01*
X130949463Y-116198918D01*
X131038978Y-116139106D01*
X131040000Y-116173936D01*
X131040000Y-116311033D01*
X131044717Y-116334745D01*
X131045425Y-116358898D01*
X131056380Y-116406617D01*
X131040000Y-116488967D01*
X131040000Y-116811033D01*
X131102832Y-117126912D01*
X131226082Y-117424463D01*
X131405013Y-117692252D01*
X131632748Y-117919987D01*
X131900537Y-118098918D01*
X132198088Y-118222168D01*
X132230670Y-118228649D01*
X133166520Y-119271671D01*
X133317320Y-119409732D01*
X133550620Y-119551163D01*
X133807029Y-119644361D01*
X134055354Y-119682471D01*
X133894701Y-119922905D01*
X133778989Y-120202257D01*
X133720000Y-120498816D01*
X133720000Y-120801184D01*
X133778989Y-121097743D01*
X133894701Y-121377095D01*
X134062688Y-121628505D01*
X134276495Y-121842312D01*
X134527905Y-122010299D01*
X134807257Y-122126011D01*
X135103816Y-122185000D01*
X135406184Y-122185000D01*
X135657552Y-122135000D01*
X135821260Y-122135000D01*
X136108158Y-122077932D01*
X136378411Y-121965990D01*
X136621632Y-121803475D01*
X136828475Y-121596632D01*
X136990990Y-121353411D01*
X137102932Y-121083158D01*
X137160000Y-120796260D01*
X137160000Y-120503740D01*
X137102932Y-120216842D01*
X136990990Y-119946589D01*
X136828475Y-119703368D01*
X136621632Y-119496525D01*
X136378411Y-119334010D01*
X136108158Y-119222068D01*
X135821260Y-119165000D01*
X135657552Y-119165000D01*
X135406184Y-119115000D01*
X135275132Y-119115000D01*
X135407038Y-118897412D01*
X135500237Y-118641004D01*
X135536845Y-118402468D01*
X135565524Y-118401203D01*
X135820933Y-118338587D01*
X136059217Y-118227346D01*
X136271221Y-118071755D01*
X136448798Y-117877793D01*
X136585122Y-117652917D01*
X136674955Y-117405763D01*
X136714846Y-117145835D01*
X136703260Y-116883119D01*
X136640644Y-116627710D01*
X136529402Y-116389427D01*
X136412800Y-116230547D01*
X135935000Y-115698031D01*
X135935000Y-114892322D01*
X135938676Y-114854999D01*
X135935000Y-114817676D01*
X135935000Y-114817667D01*
X135924003Y-114706014D01*
X135880546Y-114562753D01*
X135809974Y-114430724D01*
X135715001Y-114314999D01*
X135686004Y-114291202D01*
X133278804Y-111884003D01*
X133255001Y-111854999D01*
X133139276Y-111760026D01*
X133007247Y-111689454D01*
X132863986Y-111645997D01*
X132752333Y-111635000D01*
X132752322Y-111635000D01*
X132715000Y-111631324D01*
X132677678Y-111635000D01*
X129657322Y-111635000D01*
X129619999Y-111631324D01*
X129582676Y-111635000D01*
X129582667Y-111635000D01*
X129495183Y-111643617D01*
X137219617Y-103919183D01*
X146082968Y-103919183D01*
X146178081Y-104061529D01*
X146397431Y-104280879D01*
X146655360Y-104453222D01*
X146941956Y-104571934D01*
X147246204Y-104632452D01*
X147556412Y-104632452D01*
X147860660Y-104571934D01*
X148147256Y-104453222D01*
X148405185Y-104280879D01*
X148624535Y-104061529D01*
X148796878Y-103803600D01*
X148915590Y-103517004D01*
X148943689Y-103375738D01*
X149168796Y-104131453D01*
X140967298Y-129366835D01*
X140946410Y-129462003D01*
X140945637Y-129501222D01*
X140906091Y-129904545D01*
X140800220Y-130255206D01*
X140628257Y-130578623D01*
X140396748Y-130862482D01*
X140114514Y-131095965D01*
X139792304Y-131270184D01*
X139442385Y-131378502D01*
X139047557Y-131420000D01*
X121317278Y-131420000D01*
X120890529Y-131378157D01*
X120511077Y-131263594D01*
X120161114Y-131077515D01*
X119933642Y-130891993D01*
X108599127Y-101449108D01*
X108567475Y-101147958D01*
X108555449Y-101089371D01*
X108544238Y-101030601D01*
X108541574Y-101021779D01*
X108431633Y-100666615D01*
X108408449Y-100611464D01*
X108386044Y-100556008D01*
X108381717Y-100547872D01*
X108204885Y-100220827D01*
X108171469Y-100171285D01*
X108138680Y-100121178D01*
X108132855Y-100114037D01*
X107895866Y-99827568D01*
X107853451Y-99785448D01*
X107811569Y-99742679D01*
X107804468Y-99736805D01*
X107516351Y-99501822D01*
X107466540Y-99468728D01*
X107417168Y-99434922D01*
X107409062Y-99430539D01*
X107080790Y-99255994D01*
X107025489Y-99233201D01*
X106970504Y-99209634D01*
X106961700Y-99206909D01*
X106605778Y-99099449D01*
X106547078Y-99087826D01*
X106488584Y-99075393D01*
X106479422Y-99074430D01*
X106479420Y-99074430D01*
X106129801Y-99040150D01*
X106118021Y-99038251D01*
X54662563Y-95861989D01*
X54368795Y-95833185D01*
X54136774Y-95763133D01*
X53922778Y-95649350D01*
X53734961Y-95496169D01*
X53580471Y-95309424D01*
X53465198Y-95096231D01*
X53393528Y-94864701D01*
X53365000Y-94593276D01*
X53365000Y-76867277D01*
X53391815Y-76593796D01*
X53461867Y-76361774D01*
X53575650Y-76147778D01*
X53728832Y-75959959D01*
X53915577Y-75805470D01*
X54128769Y-75690199D01*
X54360300Y-75618528D01*
X54631069Y-75590069D01*
X54686525Y-75586349D01*
X73800481Y-72400691D01*
X73800494Y-72400688D01*
X92764627Y-69240000D01*
X110435379Y-69240000D01*
X129414076Y-72403116D01*
G36*
X124400537Y-118298918D02*
G01*
X124698088Y-118422168D01*
X124760682Y-118434619D01*
X124773354Y-118517191D01*
X124785744Y-118551279D01*
X124792832Y-118586912D01*
X124840704Y-118702484D01*
X124883375Y-118819882D01*
X124902182Y-118850905D01*
X124916082Y-118884463D01*
X124985566Y-118988453D01*
X125050335Y-119095294D01*
X125068376Y-119115000D01*
X124943816Y-119115000D01*
X124692448Y-119165000D01*
X124528740Y-119165000D01*
X124259999Y-119218456D01*
X124259999Y-118205013D01*
X124400537Y-118298918D01*
G37*
X124400537Y-118298918D02*
X124698088Y-118422168D01*
X124760682Y-118434619D01*
X124773354Y-118517191D01*
X124785744Y-118551279D01*
X124792832Y-118586912D01*
X124840704Y-118702484D01*
X124883375Y-118819882D01*
X124902182Y-118850905D01*
X124916082Y-118884463D01*
X124985566Y-118988453D01*
X125050335Y-119095294D01*
X125068376Y-119115000D01*
X124943816Y-119115000D01*
X124692448Y-119165000D01*
X124528740Y-119165000D01*
X124259999Y-119218456D01*
X124259999Y-118205013D01*
X124400537Y-118298918D01*
G36*
X134415000Y-115169802D02*
G01*
X134415000Y-115414665D01*
X134350000Y-115445010D01*
X134350000Y-115408967D01*
X134345283Y-115385255D01*
X134344575Y-115361102D01*
X134313915Y-115227556D01*
X134287168Y-115093088D01*
X134277916Y-115070751D01*
X134272509Y-115047201D01*
X134256301Y-115011103D01*
X134415000Y-115169802D01*
G37*
X134415000Y-115169802D02*
X134415000Y-115414665D01*
X134350000Y-115445010D01*
X134350000Y-115408967D01*
X134345283Y-115385255D01*
X134344575Y-115361102D01*
X134313915Y-115227556D01*
X134287168Y-115093088D01*
X134277916Y-115070751D01*
X134272509Y-115047201D01*
X134256301Y-115011103D01*
X134415000Y-115169802D01*
G36*
X126072084Y-115070751D02*
G01*
X126062832Y-115093088D01*
X126036085Y-115227556D01*
X126005425Y-115361102D01*
X126004717Y-115385255D01*
X126000000Y-115408967D01*
X126000000Y-115434850D01*
X125949463Y-115401082D01*
X125799736Y-115339063D01*
X126073287Y-115065512D01*
X126072084Y-115070751D01*
G37*
X126072084Y-115070751D02*
X126062832Y-115093088D01*
X126036085Y-115227556D01*
X126005425Y-115361102D01*
X126004717Y-115385255D01*
X126000000Y-115408967D01*
X126000000Y-115434850D01*
X125949463Y-115401082D01*
X125799736Y-115339063D01*
X126073287Y-115065512D01*
X126072084Y-115070751D01*
G36*
X133279177Y-114033978D02*
G01*
X133191912Y-113997832D01*
X133168202Y-113993116D01*
X133145613Y-113984526D01*
X133010473Y-113961742D01*
X132876033Y-113935000D01*
X132851861Y-113935000D01*
X132828029Y-113930982D01*
X132691034Y-113935000D01*
X132553967Y-113935000D01*
X132530261Y-113939715D01*
X132506101Y-113940424D01*
X132372516Y-113971093D01*
X132238088Y-113997832D01*
X132215757Y-114007082D01*
X132192200Y-114012490D01*
X132067159Y-114068633D01*
X131940537Y-114121082D01*
X131920442Y-114134509D01*
X131898391Y-114144410D01*
X131786694Y-114223877D01*
X131739771Y-114255230D01*
X131623918Y-113975537D01*
X131444987Y-113707748D01*
X131217252Y-113480013D01*
X130949463Y-113301082D01*
X130651912Y-113177832D01*
X130537127Y-113155000D01*
X132400199Y-113155000D01*
X133279177Y-114033978D01*
G37*
X133279177Y-114033978D02*
X133191912Y-113997832D01*
X133168202Y-113993116D01*
X133145613Y-113984526D01*
X133010473Y-113961742D01*
X132876033Y-113935000D01*
X132851861Y-113935000D01*
X132828029Y-113930982D01*
X132691034Y-113935000D01*
X132553967Y-113935000D01*
X132530261Y-113939715D01*
X132506101Y-113940424D01*
X132372516Y-113971093D01*
X132238088Y-113997832D01*
X132215757Y-114007082D01*
X132192200Y-114012490D01*
X132067159Y-114068633D01*
X131940537Y-114121082D01*
X131920442Y-114134509D01*
X131898391Y-114144410D01*
X131786694Y-114223877D01*
X131739771Y-114255230D01*
X131623918Y-113975537D01*
X131444987Y-113707748D01*
X131217252Y-113480013D01*
X130949463Y-113301082D01*
X130651912Y-113177832D01*
X130537127Y-113155000D01*
X132400199Y-113155000D01*
X133279177Y-114033978D01*
G36*
X144777843Y-99178319D02*
G01*
X144997193Y-99397669D01*
X145255122Y-99570012D01*
X145451719Y-99651445D01*
X145305619Y-99870099D01*
X145186907Y-100156695D01*
X145126389Y-100460943D01*
X145126389Y-100771151D01*
X145186907Y-101075399D01*
X145305619Y-101361995D01*
X145477962Y-101619924D01*
X145697312Y-101839274D01*
X145955241Y-102011617D01*
X146151838Y-102093050D01*
X146005738Y-102311704D01*
X145969503Y-102399183D01*
X136942148Y-102399183D01*
X136904815Y-102395506D01*
X136867482Y-102399183D01*
X130558985Y-102399183D01*
X127195775Y-99035973D01*
X144682730Y-99035973D01*
X144777843Y-99178319D01*
G37*
X144777843Y-99178319D02*
X144997193Y-99397669D01*
X145255122Y-99570012D01*
X145451719Y-99651445D01*
X145305619Y-99870099D01*
X145186907Y-100156695D01*
X145126389Y-100460943D01*
X145126389Y-100771151D01*
X145186907Y-101075399D01*
X145305619Y-101361995D01*
X145477962Y-101619924D01*
X145697312Y-101839274D01*
X145955241Y-102011617D01*
X146151838Y-102093050D01*
X146005738Y-102311704D01*
X145969503Y-102399183D01*
X136942148Y-102399183D01*
X136904815Y-102395506D01*
X136867482Y-102399183D01*
X130558985Y-102399183D01*
X127195775Y-99035973D01*
X144682730Y-99035973D01*
X144777843Y-99178319D01*
G36*
X148518255Y-101947495D02*
G01*
X148405185Y-101834425D01*
X148147256Y-101662082D01*
X147950659Y-101580649D01*
X148096759Y-101361995D01*
X148215471Y-101075399D01*
X148232692Y-100988820D01*
X148518255Y-101947495D01*
G37*
X148518255Y-101947495D02*
X148405185Y-101834425D01*
X148147256Y-101662082D01*
X147950659Y-101580649D01*
X148096759Y-101361995D01*
X148215471Y-101075399D01*
X148232692Y-100988820D01*
X148518255Y-101947495D01*
G36*
X147779443Y-99467197D02*
G01*
X147705066Y-99392820D01*
X147447137Y-99220477D01*
X147250540Y-99139044D01*
X147396640Y-98920390D01*
X147515352Y-98633794D01*
X147521696Y-98601902D01*
X147779443Y-99467197D01*
G37*
X147779443Y-99467197D02*
X147705066Y-99392820D01*
X147447137Y-99220477D01*
X147250540Y-99139044D01*
X147396640Y-98920390D01*
X147515352Y-98633794D01*
X147521696Y-98601902D01*
X147779443Y-99467197D01*
G36*
X144077724Y-96736715D02*
G01*
X144297074Y-96956065D01*
X144555003Y-97128408D01*
X144751600Y-97209841D01*
X144605500Y-97428494D01*
X144569265Y-97515973D01*
X126810777Y-97515973D01*
X125920538Y-96625734D01*
X126023944Y-96594368D01*
X143982611Y-96594368D01*
X144077724Y-96736715D01*
G37*
X144077724Y-96736715D02*
X144297074Y-96956065D01*
X144555003Y-97128408D01*
X144751600Y-97209841D01*
X144605500Y-97428494D01*
X144569265Y-97515973D01*
X126810777Y-97515973D01*
X125920538Y-96625734D01*
X126023944Y-96594368D01*
X143982611Y-96594368D01*
X144077724Y-96736715D01*
G36*
X147040631Y-96986899D02*
G01*
X147004947Y-96951215D01*
X146747018Y-96778872D01*
X146550421Y-96697439D01*
X146696521Y-96478786D01*
X146808646Y-96208092D01*
X147040631Y-96986899D01*
G37*
X147040631Y-96986899D02*
X147004947Y-96951215D01*
X146747018Y-96778872D01*
X146550421Y-96697439D01*
X146696521Y-96478786D01*
X146808646Y-96208092D01*
X147040631Y-96986899D01*
G36*
X134103965Y-93903767D02*
G01*
X134127763Y-93932765D01*
X134243488Y-94027738D01*
X134375517Y-94098310D01*
X134518778Y-94141767D01*
X134630431Y-94152764D01*
X134630440Y-94152764D01*
X134667763Y-94156440D01*
X134705086Y-94152764D01*
X143282492Y-94152764D01*
X143377605Y-94295110D01*
X143596955Y-94514460D01*
X143854884Y-94686803D01*
X144051481Y-94768236D01*
X143905381Y-94986890D01*
X143869146Y-95074368D01*
X126008469Y-95074368D01*
X121597766Y-90663665D01*
X123025000Y-90663665D01*
X123025000Y-90946335D01*
X123080147Y-91223574D01*
X123188320Y-91484727D01*
X123345363Y-91719759D01*
X123545241Y-91919637D01*
X123780273Y-92076680D01*
X124041426Y-92184853D01*
X124318665Y-92240000D01*
X124601335Y-92240000D01*
X124878574Y-92184853D01*
X125139727Y-92076680D01*
X125374759Y-91919637D01*
X125574637Y-91719759D01*
X125731680Y-91484727D01*
X125839853Y-91223574D01*
X125895000Y-90946335D01*
X125895000Y-90663665D01*
X125839853Y-90386426D01*
X125731680Y-90125273D01*
X125574637Y-89890241D01*
X125374759Y-89690363D01*
X125139727Y-89533320D01*
X124878574Y-89425147D01*
X124601335Y-89370000D01*
X124318665Y-89370000D01*
X124041426Y-89425147D01*
X123780273Y-89533320D01*
X123545241Y-89690363D01*
X123345363Y-89890241D01*
X123188320Y-90125273D01*
X123080147Y-90386426D01*
X123025000Y-90663665D01*
X121597766Y-90663665D01*
X120018091Y-89083991D01*
X120131963Y-89036824D01*
X120391972Y-88863092D01*
X120395549Y-88859515D01*
X120436963Y-88936994D01*
X120516315Y-89033685D01*
X120613006Y-89113037D01*
X120723320Y-89172002D01*
X120843018Y-89208312D01*
X120967500Y-89220572D01*
X122872500Y-89220572D01*
X122996982Y-89208312D01*
X123116680Y-89172002D01*
X123226994Y-89113037D01*
X123323685Y-89033685D01*
X123403037Y-88936994D01*
X123462002Y-88826680D01*
X123498312Y-88706982D01*
X123510572Y-88582500D01*
X123510572Y-87112499D01*
X127312698Y-87112499D01*
X134103965Y-93903767D01*
G37*
X134103965Y-93903767D02*
X134127763Y-93932765D01*
X134243488Y-94027738D01*
X134375517Y-94098310D01*
X134518778Y-94141767D01*
X134630431Y-94152764D01*
X134630440Y-94152764D01*
X134667763Y-94156440D01*
X134705086Y-94152764D01*
X143282492Y-94152764D01*
X143377605Y-94295110D01*
X143596955Y-94514460D01*
X143854884Y-94686803D01*
X144051481Y-94768236D01*
X143905381Y-94986890D01*
X143869146Y-95074368D01*
X126008469Y-95074368D01*
X121597766Y-90663665D01*
X123025000Y-90663665D01*
X123025000Y-90946335D01*
X123080147Y-91223574D01*
X123188320Y-91484727D01*
X123345363Y-91719759D01*
X123545241Y-91919637D01*
X123780273Y-92076680D01*
X124041426Y-92184853D01*
X124318665Y-92240000D01*
X124601335Y-92240000D01*
X124878574Y-92184853D01*
X125139727Y-92076680D01*
X125374759Y-91919637D01*
X125574637Y-91719759D01*
X125731680Y-91484727D01*
X125839853Y-91223574D01*
X125895000Y-90946335D01*
X125895000Y-90663665D01*
X125839853Y-90386426D01*
X125731680Y-90125273D01*
X125574637Y-89890241D01*
X125374759Y-89690363D01*
X125139727Y-89533320D01*
X124878574Y-89425147D01*
X124601335Y-89370000D01*
X124318665Y-89370000D01*
X124041426Y-89425147D01*
X123780273Y-89533320D01*
X123545241Y-89690363D01*
X123345363Y-89890241D01*
X123188320Y-90125273D01*
X123080147Y-90386426D01*
X123025000Y-90663665D01*
X121597766Y-90663665D01*
X120018091Y-89083991D01*
X120131963Y-89036824D01*
X120391972Y-88863092D01*
X120395549Y-88859515D01*
X120436963Y-88936994D01*
X120516315Y-89033685D01*
X120613006Y-89113037D01*
X120723320Y-89172002D01*
X120843018Y-89208312D01*
X120967500Y-89220572D01*
X122872500Y-89220572D01*
X122996982Y-89208312D01*
X123116680Y-89172002D01*
X123226994Y-89113037D01*
X123323685Y-89033685D01*
X123403037Y-88936994D01*
X123462002Y-88826680D01*
X123498312Y-88706982D01*
X123510572Y-88582500D01*
X123510572Y-87112499D01*
X127312698Y-87112499D01*
X134103965Y-93903767D01*
G36*
X146302191Y-94507849D02*
G01*
X146046899Y-94337268D01*
X145850302Y-94255835D01*
X145996402Y-94037181D01*
X146092724Y-93804639D01*
X146302191Y-94507849D01*
G37*
X146302191Y-94507849D02*
X146046899Y-94337268D01*
X145850302Y-94255835D01*
X145996402Y-94037181D01*
X146092724Y-93804639D01*
X146302191Y-94507849D01*
G36*
X121515000Y-78073936D02*
G01*
X121515000Y-78211033D01*
X121519717Y-78234745D01*
X121520425Y-78258898D01*
X121531380Y-78306617D01*
X121515000Y-78388967D01*
X121515000Y-78711033D01*
X121577832Y-79026912D01*
X121701082Y-79324463D01*
X121880013Y-79592252D01*
X122107748Y-79819987D01*
X122375537Y-79998918D01*
X122673088Y-80122168D01*
X122705670Y-80128649D01*
X123641520Y-81171671D01*
X123792320Y-81309732D01*
X124025620Y-81451163D01*
X124282029Y-81544361D01*
X124530354Y-81582471D01*
X124369701Y-81822905D01*
X124253989Y-82102257D01*
X124195000Y-82398816D01*
X124195000Y-82701184D01*
X124253989Y-82997743D01*
X124369701Y-83277095D01*
X124537688Y-83528505D01*
X124751495Y-83742312D01*
X125002905Y-83910299D01*
X125282257Y-84026011D01*
X125578816Y-84085000D01*
X125881184Y-84085000D01*
X126132552Y-84035000D01*
X126296260Y-84035000D01*
X126583158Y-83977932D01*
X126853411Y-83865990D01*
X127096632Y-83703475D01*
X127303475Y-83496632D01*
X127465990Y-83253411D01*
X127577932Y-82983158D01*
X127633975Y-82701414D01*
X136394722Y-91462162D01*
X136418520Y-91491160D01*
X136534245Y-91586133D01*
X136666274Y-91656705D01*
X136809535Y-91700162D01*
X136921188Y-91711159D01*
X136921196Y-91711159D01*
X136958521Y-91714835D01*
X136995846Y-91711159D01*
X142582373Y-91711159D01*
X142677486Y-91853505D01*
X142896836Y-92072855D01*
X143154765Y-92245198D01*
X143351362Y-92326631D01*
X143205262Y-92545285D01*
X143169027Y-92632764D01*
X134982566Y-92632764D01*
X128191303Y-85841502D01*
X128167500Y-85812498D01*
X128051775Y-85717525D01*
X127919746Y-85646953D01*
X127776485Y-85603496D01*
X127664832Y-85592499D01*
X127664821Y-85592499D01*
X127627499Y-85588823D01*
X127590177Y-85592499D01*
X117528300Y-85592499D01*
X115971091Y-84035291D01*
X116017743Y-84026011D01*
X116297095Y-83910299D01*
X116548505Y-83742312D01*
X116762312Y-83528505D01*
X116930299Y-83277095D01*
X117046011Y-82997743D01*
X117105000Y-82701184D01*
X117105000Y-82398816D01*
X117083570Y-82291076D01*
X118021100Y-82291076D01*
X118021100Y-82808924D01*
X118122127Y-83316822D01*
X118320299Y-83795251D01*
X118608000Y-84225826D01*
X118974174Y-84592000D01*
X119404749Y-84879701D01*
X119883178Y-85077873D01*
X120391076Y-85178900D01*
X120908924Y-85178900D01*
X121416822Y-85077873D01*
X121895251Y-84879701D01*
X122325826Y-84592000D01*
X122692000Y-84225826D01*
X122979701Y-83795251D01*
X123177873Y-83316822D01*
X123278900Y-82808924D01*
X123278900Y-82291076D01*
X123177873Y-81783178D01*
X122979701Y-81304749D01*
X122692000Y-80874174D01*
X122325826Y-80508000D01*
X121895251Y-80220299D01*
X121416822Y-80022127D01*
X120908924Y-79921100D01*
X120391076Y-79921100D01*
X119883178Y-80022127D01*
X119404749Y-80220299D01*
X118974174Y-80508000D01*
X118608000Y-80874174D01*
X118320299Y-81304749D01*
X118122127Y-81783178D01*
X118021100Y-82291076D01*
X117083570Y-82291076D01*
X117046011Y-82102257D01*
X116930299Y-81822905D01*
X116811656Y-81645343D01*
X116928851Y-81650511D01*
X116964760Y-81645000D01*
X117001033Y-81645000D01*
X117123540Y-81620632D01*
X117247192Y-81601655D01*
X117281336Y-81589244D01*
X117316912Y-81582168D01*
X117432299Y-81534373D01*
X117549883Y-81491634D01*
X117580955Y-81472797D01*
X117614463Y-81458918D01*
X117718298Y-81389538D01*
X117825295Y-81324674D01*
X117852097Y-81300136D01*
X117882252Y-81279987D01*
X117970555Y-81191684D01*
X118003312Y-81161694D01*
X118027474Y-81134765D01*
X118109987Y-81052252D01*
X118134717Y-81015241D01*
X119337323Y-79674916D01*
X119419987Y-79592252D01*
X119489511Y-79488202D01*
X119563387Y-79387540D01*
X119578727Y-79354682D01*
X119598918Y-79324463D01*
X119646808Y-79208847D01*
X119699626Y-79095707D01*
X119708260Y-79060488D01*
X119722168Y-79026912D01*
X119746581Y-78904182D01*
X119776313Y-78782904D01*
X119777911Y-78746673D01*
X119785000Y-78711033D01*
X119785000Y-78585914D01*
X119790502Y-78461149D01*
X119785000Y-78425299D01*
X119785000Y-78388967D01*
X119768620Y-78306617D01*
X119779575Y-78258898D01*
X119780283Y-78234745D01*
X119785000Y-78211033D01*
X119785000Y-78073936D01*
X119786022Y-78039106D01*
X119875537Y-78098918D01*
X120173088Y-78222168D01*
X120488967Y-78285000D01*
X120811033Y-78285000D01*
X121126912Y-78222168D01*
X121424463Y-78098918D01*
X121513978Y-78039106D01*
X121515000Y-78073936D01*
G37*
X121515000Y-78073936D02*
X121515000Y-78211033D01*
X121519717Y-78234745D01*
X121520425Y-78258898D01*
X121531380Y-78306617D01*
X121515000Y-78388967D01*
X121515000Y-78711033D01*
X121577832Y-79026912D01*
X121701082Y-79324463D01*
X121880013Y-79592252D01*
X122107748Y-79819987D01*
X122375537Y-79998918D01*
X122673088Y-80122168D01*
X122705670Y-80128649D01*
X123641520Y-81171671D01*
X123792320Y-81309732D01*
X124025620Y-81451163D01*
X124282029Y-81544361D01*
X124530354Y-81582471D01*
X124369701Y-81822905D01*
X124253989Y-82102257D01*
X124195000Y-82398816D01*
X124195000Y-82701184D01*
X124253989Y-82997743D01*
X124369701Y-83277095D01*
X124537688Y-83528505D01*
X124751495Y-83742312D01*
X125002905Y-83910299D01*
X125282257Y-84026011D01*
X125578816Y-84085000D01*
X125881184Y-84085000D01*
X126132552Y-84035000D01*
X126296260Y-84035000D01*
X126583158Y-83977932D01*
X126853411Y-83865990D01*
X127096632Y-83703475D01*
X127303475Y-83496632D01*
X127465990Y-83253411D01*
X127577932Y-82983158D01*
X127633975Y-82701414D01*
X136394722Y-91462162D01*
X136418520Y-91491160D01*
X136534245Y-91586133D01*
X136666274Y-91656705D01*
X136809535Y-91700162D01*
X136921188Y-91711159D01*
X136921196Y-91711159D01*
X136958521Y-91714835D01*
X136995846Y-91711159D01*
X142582373Y-91711159D01*
X142677486Y-91853505D01*
X142896836Y-92072855D01*
X143154765Y-92245198D01*
X143351362Y-92326631D01*
X143205262Y-92545285D01*
X143169027Y-92632764D01*
X134982566Y-92632764D01*
X128191303Y-85841502D01*
X128167500Y-85812498D01*
X128051775Y-85717525D01*
X127919746Y-85646953D01*
X127776485Y-85603496D01*
X127664832Y-85592499D01*
X127664821Y-85592499D01*
X127627499Y-85588823D01*
X127590177Y-85592499D01*
X117528300Y-85592499D01*
X115971091Y-84035291D01*
X116017743Y-84026011D01*
X116297095Y-83910299D01*
X116548505Y-83742312D01*
X116762312Y-83528505D01*
X116930299Y-83277095D01*
X117046011Y-82997743D01*
X117105000Y-82701184D01*
X117105000Y-82398816D01*
X117083570Y-82291076D01*
X118021100Y-82291076D01*
X118021100Y-82808924D01*
X118122127Y-83316822D01*
X118320299Y-83795251D01*
X118608000Y-84225826D01*
X118974174Y-84592000D01*
X119404749Y-84879701D01*
X119883178Y-85077873D01*
X120391076Y-85178900D01*
X120908924Y-85178900D01*
X121416822Y-85077873D01*
X121895251Y-84879701D01*
X122325826Y-84592000D01*
X122692000Y-84225826D01*
X122979701Y-83795251D01*
X123177873Y-83316822D01*
X123278900Y-82808924D01*
X123278900Y-82291076D01*
X123177873Y-81783178D01*
X122979701Y-81304749D01*
X122692000Y-80874174D01*
X122325826Y-80508000D01*
X121895251Y-80220299D01*
X121416822Y-80022127D01*
X120908924Y-79921100D01*
X120391076Y-79921100D01*
X119883178Y-80022127D01*
X119404749Y-80220299D01*
X118974174Y-80508000D01*
X118608000Y-80874174D01*
X118320299Y-81304749D01*
X118122127Y-81783178D01*
X118021100Y-82291076D01*
X117083570Y-82291076D01*
X117046011Y-82102257D01*
X116930299Y-81822905D01*
X116811656Y-81645343D01*
X116928851Y-81650511D01*
X116964760Y-81645000D01*
X117001033Y-81645000D01*
X117123540Y-81620632D01*
X117247192Y-81601655D01*
X117281336Y-81589244D01*
X117316912Y-81582168D01*
X117432299Y-81534373D01*
X117549883Y-81491634D01*
X117580955Y-81472797D01*
X117614463Y-81458918D01*
X117718298Y-81389538D01*
X117825295Y-81324674D01*
X117852097Y-81300136D01*
X117882252Y-81279987D01*
X117970555Y-81191684D01*
X118003312Y-81161694D01*
X118027474Y-81134765D01*
X118109987Y-81052252D01*
X118134717Y-81015241D01*
X119337323Y-79674916D01*
X119419987Y-79592252D01*
X119489511Y-79488202D01*
X119563387Y-79387540D01*
X119578727Y-79354682D01*
X119598918Y-79324463D01*
X119646808Y-79208847D01*
X119699626Y-79095707D01*
X119708260Y-79060488D01*
X119722168Y-79026912D01*
X119746581Y-78904182D01*
X119776313Y-78782904D01*
X119777911Y-78746673D01*
X119785000Y-78711033D01*
X119785000Y-78585914D01*
X119790502Y-78461149D01*
X119785000Y-78425299D01*
X119785000Y-78388967D01*
X119768620Y-78306617D01*
X119779575Y-78258898D01*
X119780283Y-78234745D01*
X119785000Y-78211033D01*
X119785000Y-78073936D01*
X119786022Y-78039106D01*
X119875537Y-78098918D01*
X120173088Y-78222168D01*
X120488967Y-78285000D01*
X120811033Y-78285000D01*
X121126912Y-78222168D01*
X121424463Y-78098918D01*
X121513978Y-78039106D01*
X121515000Y-78073936D01*
G36*
X63277879Y-92094999D02*
G01*
X63156804Y-92094999D01*
X63241972Y-92038092D01*
X63245549Y-92034515D01*
X63277879Y-92094999D01*
G37*
X63277879Y-92094999D02*
X63156804Y-92094999D01*
X63241972Y-92038092D01*
X63245549Y-92034515D01*
X63277879Y-92094999D01*
G36*
X145568153Y-92043580D02*
G01*
X145346780Y-91895663D01*
X145150183Y-91814230D01*
X145296283Y-91595576D01*
X145376802Y-91401186D01*
X145568153Y-92043580D01*
G37*
X145568153Y-92043580D02*
X145346780Y-91895663D01*
X145150183Y-91814230D01*
X145296283Y-91595576D01*
X145376802Y-91401186D01*
X145568153Y-92043580D01*
G36*
X144834116Y-89579312D02*
G01*
X144646661Y-89454058D01*
X144450064Y-89372625D01*
X144596164Y-89153972D01*
X144660880Y-88997734D01*
X144834116Y-89579312D01*
G37*
X144834116Y-89579312D02*
X144646661Y-89454058D01*
X144450064Y-89372625D01*
X144596164Y-89153972D01*
X144660880Y-88997734D01*
X144834116Y-89579312D01*
G36*
X96400498Y-86585820D02*
G01*
X96364188Y-86705518D01*
X96351928Y-86830000D01*
X96351928Y-86870000D01*
X86347324Y-86870000D01*
X86310001Y-86866324D01*
X86272678Y-86870000D01*
X86272669Y-86870000D01*
X86161016Y-86880997D01*
X86017755Y-86924454D01*
X85885725Y-86995026D01*
X85824832Y-87045000D01*
X85770001Y-87089999D01*
X85746203Y-87118997D01*
X85410572Y-87454628D01*
X85410572Y-86677500D01*
X85398312Y-86553018D01*
X85379954Y-86492501D01*
X96450379Y-86492501D01*
X96400498Y-86585820D01*
G37*
X96400498Y-86585820D02*
X96364188Y-86705518D01*
X96351928Y-86830000D01*
X96351928Y-86870000D01*
X86347324Y-86870000D01*
X86310001Y-86866324D01*
X86272678Y-86870000D01*
X86272669Y-86870000D01*
X86161016Y-86880997D01*
X86017755Y-86924454D01*
X85885725Y-86995026D01*
X85824832Y-87045000D01*
X85770001Y-87089999D01*
X85746203Y-87118997D01*
X85410572Y-87454628D01*
X85410572Y-86677500D01*
X85398312Y-86553018D01*
X85379954Y-86492501D01*
X96450379Y-86492501D01*
X96400498Y-86585820D01*
G36*
X144100079Y-87115044D02*
G01*
X143946542Y-87012454D01*
X143749946Y-86931021D01*
X143896046Y-86712367D01*
X143944958Y-86594282D01*
X144100079Y-87115044D01*
G37*
X144100079Y-87115044D02*
X143946542Y-87012454D01*
X143749946Y-86931021D01*
X143896046Y-86712367D01*
X143944958Y-86594282D01*
X144100079Y-87115044D01*
G36*
X101870201Y-86870000D02*
G01*
X99228072Y-86870000D01*
X99228072Y-86830000D01*
X99215812Y-86705518D01*
X99179502Y-86585820D01*
X99129621Y-86492501D01*
X102247699Y-86492501D01*
X101870201Y-86870000D01*
G37*
X101870201Y-86870000D02*
X99228072Y-86870000D01*
X99228072Y-86830000D01*
X99215812Y-86705518D01*
X99179502Y-86585820D01*
X99129621Y-86492501D01*
X102247699Y-86492501D01*
X101870201Y-86870000D01*
G36*
X111202699Y-84972501D02*
G01*
X104460572Y-84972501D01*
X104460572Y-83937499D01*
X110167698Y-83937499D01*
X111202699Y-84972501D01*
G37*
X111202699Y-84972501D02*
X104460572Y-84972501D01*
X104460572Y-83937499D01*
X110167698Y-83937499D01*
X111202699Y-84972501D01*
G36*
X143366041Y-84650775D02*
G01*
X143246424Y-84570849D01*
X143049827Y-84489416D01*
X143195927Y-84270762D01*
X143229036Y-84190829D01*
X143366041Y-84650775D01*
G37*
X143366041Y-84650775D02*
X143246424Y-84570849D01*
X143049827Y-84489416D01*
X143195927Y-84270762D01*
X143229036Y-84190829D01*
X143366041Y-84650775D01*
G36*
X142632004Y-82186506D02*
G01*
X142546305Y-82129244D01*
X142349708Y-82047811D01*
X142495808Y-81829157D01*
X142513114Y-81787376D01*
X142632004Y-82186506D01*
G37*
X142632004Y-82186506D02*
X142546305Y-82129244D01*
X142349708Y-82047811D01*
X142495808Y-81829157D01*
X142513114Y-81787376D01*
X142632004Y-82186506D01*
G36*
X125964042Y-81031481D02*
G01*
X125881184Y-81015000D01*
X125750132Y-81015000D01*
X125824646Y-80892085D01*
X125964042Y-81031481D01*
G37*
X125964042Y-81031481D02*
X125881184Y-81015000D01*
X125750132Y-81015000D01*
X125824646Y-80892085D01*
X125964042Y-81031481D01*
G36*
X67740001Y-79609803D02*
G01*
X67740001Y-80489665D01*
X67675000Y-80520010D01*
X67675000Y-80483967D01*
X67670283Y-80460255D01*
X67669575Y-80436102D01*
X67638915Y-80302556D01*
X67612168Y-80168088D01*
X67602916Y-80145751D01*
X67597509Y-80122201D01*
X67541384Y-79997201D01*
X67488918Y-79870537D01*
X67475486Y-79850435D01*
X67465589Y-79828392D01*
X67386152Y-79716736D01*
X67309987Y-79602748D01*
X67292894Y-79585655D01*
X67278884Y-79565963D01*
X67179185Y-79471946D01*
X67082252Y-79375013D01*
X67062151Y-79361582D01*
X67044569Y-79345002D01*
X66928439Y-79272238D01*
X66814463Y-79196082D01*
X66792131Y-79186832D01*
X66771650Y-79173999D01*
X66643553Y-79125288D01*
X66516912Y-79072832D01*
X66493202Y-79068116D01*
X66470613Y-79059526D01*
X66335473Y-79036742D01*
X66201033Y-79010000D01*
X66176861Y-79010000D01*
X66153029Y-79005982D01*
X66016034Y-79010000D01*
X65878967Y-79010000D01*
X65855261Y-79014715D01*
X65831101Y-79015424D01*
X65697516Y-79046093D01*
X65563088Y-79072832D01*
X65540757Y-79082082D01*
X65517200Y-79087490D01*
X65392159Y-79143633D01*
X65265537Y-79196082D01*
X65245442Y-79209509D01*
X65223391Y-79219410D01*
X65111694Y-79298877D01*
X65064771Y-79330230D01*
X64948918Y-79050537D01*
X64824946Y-78865000D01*
X66995199Y-78865000D01*
X67740001Y-79609803D01*
G37*
X67740001Y-79609803D02*
X67740001Y-80489665D01*
X67675000Y-80520010D01*
X67675000Y-80483967D01*
X67670283Y-80460255D01*
X67669575Y-80436102D01*
X67638915Y-80302556D01*
X67612168Y-80168088D01*
X67602916Y-80145751D01*
X67597509Y-80122201D01*
X67541384Y-79997201D01*
X67488918Y-79870537D01*
X67475486Y-79850435D01*
X67465589Y-79828392D01*
X67386152Y-79716736D01*
X67309987Y-79602748D01*
X67292894Y-79585655D01*
X67278884Y-79565963D01*
X67179185Y-79471946D01*
X67082252Y-79375013D01*
X67062151Y-79361582D01*
X67044569Y-79345002D01*
X66928439Y-79272238D01*
X66814463Y-79196082D01*
X66792131Y-79186832D01*
X66771650Y-79173999D01*
X66643553Y-79125288D01*
X66516912Y-79072832D01*
X66493202Y-79068116D01*
X66470613Y-79059526D01*
X66335473Y-79036742D01*
X66201033Y-79010000D01*
X66176861Y-79010000D01*
X66153029Y-79005982D01*
X66016034Y-79010000D01*
X65878967Y-79010000D01*
X65855261Y-79014715D01*
X65831101Y-79015424D01*
X65697516Y-79046093D01*
X65563088Y-79072832D01*
X65540757Y-79082082D01*
X65517200Y-79087490D01*
X65392159Y-79143633D01*
X65265537Y-79196082D01*
X65245442Y-79209509D01*
X65223391Y-79219410D01*
X65111694Y-79298877D01*
X65064771Y-79330230D01*
X64948918Y-79050537D01*
X64824946Y-78865000D01*
X66995199Y-78865000D01*
X67740001Y-79609803D01*
G36*
X141897966Y-79722238D02*
G01*
X141846186Y-79687639D01*
X141649589Y-79606206D01*
X141795689Y-79387553D01*
X141797192Y-79383924D01*
X141897966Y-79722238D01*
G37*
X141897966Y-79722238D02*
X141846186Y-79687639D01*
X141649589Y-79606206D01*
X141795689Y-79387553D01*
X141797192Y-79383924D01*
X141897966Y-79722238D01*
G36*
X107929369Y-78143173D02*
G01*
X107803411Y-78059010D01*
X107533158Y-77947068D01*
X107246260Y-77890000D01*
X107082552Y-77890000D01*
X106831184Y-77840000D01*
X106700132Y-77840000D01*
X106832038Y-77622412D01*
X106925237Y-77366004D01*
X106955434Y-77169238D01*
X107929369Y-78143173D01*
G37*
X107929369Y-78143173D02*
X107803411Y-78059010D01*
X107533158Y-77947068D01*
X107246260Y-77890000D01*
X107082552Y-77890000D01*
X106831184Y-77840000D01*
X106700132Y-77840000D01*
X106832038Y-77622412D01*
X106925237Y-77366004D01*
X106955434Y-77169238D01*
X107929369Y-78143173D01*
G36*
X141163929Y-77257970D02*
G01*
X141146067Y-77246035D01*
X140949470Y-77164602D01*
X141078567Y-76971395D01*
X141163929Y-77257970D01*
G37*
X141163929Y-77257970D02*
X141146067Y-77246035D01*
X140949470Y-77164602D01*
X141078567Y-76971395D01*
X141163929Y-77257970D01*
G36*
X84921653Y-75836455D02*
G01*
X84905261Y-75839715D01*
X84881101Y-75840424D01*
X84747516Y-75871093D01*
X84613088Y-75897832D01*
X84590757Y-75907082D01*
X84567200Y-75912490D01*
X84442159Y-75968633D01*
X84315537Y-76021082D01*
X84295442Y-76034509D01*
X84273391Y-76044410D01*
X84161694Y-76123877D01*
X84114771Y-76155230D01*
X83998918Y-75875537D01*
X83874946Y-75690000D01*
X84775199Y-75690000D01*
X84921653Y-75836455D01*
G37*
X84921653Y-75836455D02*
X84905261Y-75839715D01*
X84881101Y-75840424D01*
X84747516Y-75871093D01*
X84613088Y-75897832D01*
X84590757Y-75907082D01*
X84567200Y-75912490D01*
X84442159Y-75968633D01*
X84315537Y-76021082D01*
X84295442Y-76034509D01*
X84273391Y-76044410D01*
X84161694Y-76123877D01*
X84114771Y-76155230D01*
X83998918Y-75875537D01*
X83874946Y-75690000D01*
X84775199Y-75690000D01*
X84921653Y-75836455D01*
G36*
X122641753Y-75923916D02*
G01*
X122542159Y-75968633D01*
X122415537Y-76021082D01*
X122395442Y-76034509D01*
X122373391Y-76044410D01*
X122261694Y-76123877D01*
X122214771Y-76155230D01*
X122098918Y-75875537D01*
X121974946Y-75690000D01*
X122407837Y-75690000D01*
X122641753Y-75923916D01*
G37*
X122641753Y-75923916D02*
X122542159Y-75968633D01*
X122415537Y-76021082D01*
X122395442Y-76034509D01*
X122373391Y-76044410D01*
X122261694Y-76123877D01*
X122214771Y-76155230D01*
X122098918Y-75875537D01*
X121974946Y-75690000D01*
X122407837Y-75690000D01*
X122641753Y-75923916D01*
G36*
X103715286Y-72712449D02*
G01*
X103663088Y-72722832D01*
X103640757Y-72732082D01*
X103617200Y-72737490D01*
X103492159Y-72793633D01*
X103365537Y-72846082D01*
X103345442Y-72859509D01*
X103323391Y-72869410D01*
X103211694Y-72948877D01*
X103164771Y-72980230D01*
X103048918Y-72700537D01*
X102924946Y-72515000D01*
X103517837Y-72515000D01*
X103715286Y-72712449D01*
G37*
X103715286Y-72712449D02*
X103663088Y-72722832D01*
X103640757Y-72732082D01*
X103617200Y-72737490D01*
X103492159Y-72793633D01*
X103365537Y-72846082D01*
X103345442Y-72859509D01*
X103323391Y-72869410D01*
X103211694Y-72948877D01*
X103164771Y-72980230D01*
X103048918Y-72700537D01*
X102924946Y-72515000D01*
X103517837Y-72515000D01*
X103715286Y-72712449D01*
M02*
