M48
; DRILL file {KiCad (5.1.5)-3} date 09/15/20 11:54:27
; FORMAT={-:-/ absolute / inch / decimal}
; #@! TF.CreationDate,2020-09-15T11:54:27+03:00
; #@! TF.GenerationSoftware,Kicad,Pcbnew,(5.1.5)-3
FMAT,2
INCH
T1C0.0315
T2C0.0390
T3C0.0400
T4C0.0472
T5C0.0551
T6C0.0669
T7C0.0709
T8C0.1570
%
G90
G05
T1
X4.975Y-5.075
X5.275Y-5.075
X3.1Y-3.575
X3.4Y-3.575
X4.6Y-3.575
X4.9Y-3.575
X2.35Y-3.7
X2.65Y-3.7
X3.85Y-3.45
X4.15Y-3.45
T2
X3.95Y-3.325
X4.05Y-3.325
X4.7Y-3.45
X4.8Y-3.45
X3.2Y-3.45
X3.3Y-3.45
X5.075Y-4.95
X5.175Y-4.95
X2.45Y-3.575
X2.55Y-3.575
T3
X5.5Y-3.0
X5.5276Y-3.0961
X5.5551Y-3.1923
X5.5827Y-3.2884
X5.6103Y-3.3845
X5.6378Y-3.4806
X5.6654Y-3.5768
X5.6929Y-3.6729
X5.7205Y-3.769
X5.7481Y-3.8651
X5.7756Y-3.9613
X5.8032Y-4.0574
T4
X3.8031Y-2.9754
X3.9Y-2.925
X4.0Y-2.8927
X4.1Y-2.925
X4.15Y-3.025
X4.1969Y-2.9754
X2.3031Y-3.2254
X2.4Y-3.175
X2.5Y-3.1427
X2.6Y-3.175
X2.65Y-3.275
X2.6969Y-3.2254
X4.5531Y-3.1004
X4.65Y-3.05
X4.75Y-3.0177
X4.85Y-3.05
X4.9Y-3.15
X4.9469Y-3.1004
X3.0531Y-3.1004
X3.15Y-3.05
X3.25Y-3.0177
X3.35Y-3.05
X3.4Y-3.15
X3.4469Y-3.1004
X4.9281Y-4.6004
X5.025Y-4.55
X5.125Y-4.5177
X5.225Y-4.55
X5.275Y-4.65
X5.3219Y-4.6004
T5
X3.9016Y-2.9478
X3.9016Y-2.9675
X4.0984Y-2.9478
X4.0984Y-2.9675
X2.4016Y-3.1978
X2.4016Y-3.2175
X2.5984Y-3.1978
X2.5984Y-3.2175
X4.6516Y-3.0728
X4.6516Y-3.0925
X4.8484Y-3.0728
X4.8484Y-3.0925
X3.1516Y-3.0728
X3.1516Y-3.0925
X3.3484Y-3.0728
X3.3484Y-3.0925
X5.0266Y-4.5728
X5.0266Y-4.5925
X5.2234Y-4.5728
X5.2234Y-4.5925
T6
X3.0335Y-3.25
X3.4665Y-3.25
X4.9085Y-4.75
X5.3415Y-4.75
X3.7835Y-3.125
X4.2165Y-3.125
X2.2835Y-3.375
X2.7165Y-3.375
X4.5335Y-3.25
X4.9665Y-3.25
T7
X3.05Y-3.25
X3.45Y-3.25
X4.925Y-4.75
X5.325Y-4.75
X3.8Y-3.125
X4.2Y-3.125
X2.3Y-3.375
X2.7Y-3.375
X4.55Y-3.25
X4.95Y-3.25
T8
X3.25Y-3.25
X5.125Y-4.75
X4.0Y-3.125
X2.5Y-3.375
X4.75Y-3.25
T4
G00X3.85Y-3.025
M15
G01X3.85Y-3.025
M16
G05
G00X2.35Y-3.275
M15
G01X2.35Y-3.275
M16
G05
G00X4.6Y-3.15
M15
G01X4.6Y-3.15
M16
G05
G00X3.1Y-3.15
M15
G01X3.1Y-3.15
M16
G05
G00X4.975Y-4.65
M15
G01X4.975Y-4.65
M16
G05
T0
M30
